<?xml version="1.0" encoding="UTF-8"?>
<svg width="206px" height="206px" viewBox="0 0 206 206" version="1.1" xmlns="http://www.w3.org/2000/svg" xmlns:xlink="http://www.w3.org/1999/xlink">
    <!-- Generator: Sketch 51.3 (57544) - http://www.bohemiancoding.com/sketch -->
    <title>ic_AppIntegrator Copy 2</title>
    <desc>Created with Sketch.</desc>
    <defs>
        <linearGradient x1="50%" y1="0%" x2="50%" y2="100%" id="linearGradient-1">
            <stop stop-color="#54C9E5" offset="0%"></stop>
            <stop stop-color="#2A98C7" offset="100%"></stop>
        </linearGradient>
        <linearGradient x1="50%" y1="-12.4944823%" x2="50%" y2="59.1227139%" id="linearGradient-2">
            <stop stop-color="#FFFFFF" stop-opacity="0.5" offset="0%"></stop>
            <stop stop-color="#000000" stop-opacity="0" offset="100%"></stop>
        </linearGradient>
        <linearGradient x1="50%" y1="65.1926828%" x2="50%" y2="97.5780631%" id="linearGradient-3">
            <stop stop-color="#000000" stop-opacity="0" offset="0%"></stop>
            <stop stop-color="#010507" offset="100%"></stop>
        </linearGradient>
        <rect id="path-4" x="0.55777773" y="0" width="179.998822" height="179.998822" rx="44.8329897"></rect>
        <linearGradient x1="24.5468449%" y1="95.5706735%" x2="62.2733113%" y2="33.8631944%" id="linearGradient-6">
            <stop stop-color="#0086AD" offset="0%"></stop>
            <stop stop-color="#004E75" offset="100%"></stop>
        </linearGradient>
        <path d="M69.1620159,38.4507804 C85.536368,38.4610666 98.8025459,51.7425308 98.7939753,68.1168839 C98.7854047,84.491237 85.5053305,97.7588064 69.1309766,97.7519513 C52.7566227,97.7450963 39.487662,84.4664123 39.4928014,68.0920577 C39.5184737,51.7213717 52.7913129,38.4610305 69.1620159,38.4507804 Z M78.0871751,16.3941428 L80.783855,0.651865979 C88.6501054,2.00452982 96.2159855,4.73455156 103.133546,8.71637938 L95.202698,22.558129 C99.2067041,24.8504256 102.924194,27.6802296 106.242385,31.0007784 C107.273164,32.0322897 108.256559,33.1022997 109.191169,34.2074265 L121.311294,23.9048567 C126.471593,29.9803183 130.52504,36.9146758 133.287004,44.3920732 L118.356188,49.9400597 C120.46581,55.6651866 121.580121,61.7675693 121.590594,67.9849347 L137.542757,67.8778732 L137.542757,68.0920577 C137.542544,76.0675144 136.14635,83.981383 133.417377,91.4754216 L118.436088,86.0238714 C116.336365,91.7965143 113.241674,97.1445364 109.31344,101.826304 L121.572041,112.065074 C116.431641,118.17801 110.260585,123.343669 103.338418,127.328051 L103.357043,127.411862 L95.3227309,113.554774 C93.3694568,114.679454 91.3288124,115.686604 89.2083412,116.564931 C85.6373463,118.044086 81.9680969,119.104817 78.2642022,119.759785 L81.0632262,135.513625 C77.1330733,136.19729 73.1511881,136.540018 69.1620159,136.537986 C65.2107312,136.538943 61.2665814,136.202475 57.372554,135.532249 L60.0780583,119.770355 C54.0888758,118.720359 48.2870411,116.631883 42.954294,113.560994 L34.9576767,127.411862 C28.0516783,123.43523 21.8936205,118.282506 16.7613035,112.186135 L28.9954991,101.875321 C25.0060811,97.1369772 21.9488631,91.8034108 19.8778447,86.1465052 L4.90665505,91.5964825 C2.17464915,84.1062007 0.775287615,76.1953956 0.771962266,68.2224309 L16.6761295,68.2224309 C16.6608885,62.1967111 17.6840756,56.1234963 19.7995007,50.273685 L4.77628185,44.8763165 C7.48256585,37.3696251 11.4925178,30.3994964 16.6216179,24.2866639 L28.8660513,34.4795034 C32.8033024,29.7650568 37.5241408,25.7985905 42.7889362,22.7400666 L34.7621169,8.95850103 C41.6709529,4.93130797 49.2372429,2.15700164 57.1118076,0.763614433 L59.9009013,16.4615631 C62.922929,15.9218196 66.0196292,15.64311 69.1620159,15.6447835 L69.1620159,15.6261588 C72.1737982,15.6272281 75.1587796,15.8873394 78.0871751,16.3941428 Z" id="path-7"></path>
        <polygon id="path-9" points="0 77.1969863 0 130.842189 140.834385 0.0774463995 79.1820607 0.0234394458"></polygon>
        <filter x="-11.7%" y="-8.0%" width="123.4%" height="125.2%" filterUnits="objectBoundingBox" id="filter-10">
            <feOffset dx="0" dy="6" in="SourceAlpha" result="shadowOffsetOuter1"></feOffset>
            <feGaussianBlur stdDeviation="4.5" in="shadowOffsetOuter1" result="shadowBlurOuter1"></feGaussianBlur>
            <feColorMatrix values="0 0 0 0 0   0 0 0 0 0   0 0 0 0 0  0 0 0 0.15 0" type="matrix" in="shadowBlurOuter1"></feColorMatrix>
        </filter>
    </defs>
    <g id="ic_AppIntegrator-Copy-2" stroke="none" stroke-width="1" fill="none" fill-rule="evenodd">
        <g id="Group-28" transform="translate(25.450000, 26.000000)">
            <mask id="mask-5" fill="white">
                <use xlink:href="#path-4"></use>
            </mask>
            <g id="Mask" fill-rule="nonzero">
                <use fill="url(#linearGradient-1)" xlink:href="#path-4"></use>
                <use fill="url(#linearGradient-2)" xlink:href="#path-4"></use>
                <use fill="url(#linearGradient-3)" xlink:href="#path-4"></use>
            </g>
            <g id="Group-27" mask="url(#mask-5)">
                <g transform="translate(21.418454, 21.418454)" id="Bitmap-+-Bitmap-Mask">
                    <g>
                        <mask id="mask-8" fill="white">
                            <use xlink:href="#path-7"></use>
                        </mask>
                        <use id="Mask" fill="url(#linearGradient-6)" fill-rule="nonzero" xlink:href="#path-7"></use>
                    </g>
                </g>
            </g>
            <path d="M90.5804695,51.2646031 C106.249964,51.2721406 120.371824,60.7185081 126.360448,75.1984775 C132.349072,89.6784469 129.024968,106.340113 117.938303,117.413459 C106.851638,128.486805 90.1859882,131.790878 75.713228,125.784853 C61.2404678,119.778828 51.8110825,105.645622 51.8223808,89.9761299 C51.8273185,79.7026402 55.9138203,69.8520241 63.1826402,62.5919366 C70.4514601,55.331849 80.3069813,51.2571914 90.5804695,51.2646031 Z" id="Shape" fill="#FFFFFF" fill-rule="nonzero" mask="url(#mask-5)"></path>
            <path d="M116.962417,89.9761299 C116.937394,86.5743298 114.858573,83.5251163 111.701124,82.2588688 C108.543674,80.9926212 104.934039,81.7605652 102.565491,84.2024598 C101.5948,85.225515 100.535243,86.1604184 99.3992849,86.9961711 C98.4280036,87.4351736 97.2818754,87.1272003 96.6614478,86.2604938 C95.4795696,84.2893578 93.3715862,83.0597008 91.0740252,83.0011639 C87.3125664,83.0876225 84.3324469,86.205286 84.4156798,89.9668175 L84.4156798,90.2927505 C84.5698729,93.8917878 87.4734808,96.7629077 91.0740252,96.8765969 C93.4734091,96.8329099 95.6687213,95.5171412 96.8383829,93.4217072 C97.4924661,92.7969354 98.4675132,92.6480732 99.2782241,93.0492124 C100.024398,93.5693932 100.264312,94.5650363 99.8369664,95.3679928 C97.9351504,98.6881339 94.3481963,100.678893 90.5245953,100.536359 C89.9543364,100.520922 89.3845184,100.580409 88.8297437,100.713294 C84.5734764,101.626721 81.7250743,105.64659 82.2741619,109.964999 C82.8232494,114.283409 86.587007,117.462539 90.9364294,117.281749 C95.2858519,117.10096 98.7727922,113.620444 98.9616035,109.271363 C98.9616035,109.271363 99.6600313,103.730502 102.109185,101.281348 C104.558339,98.8321948 107.957354,98.8880691 110.043325,98.2548278 C114.055462,97.5440546 116.975089,94.0507192 116.962417,89.9761299 Z" id="Shape" fill="#004E75" fill-rule="nonzero" mask="url(#mask-5)"></path>
            <path d="M90.5804695,62.728132 C88.3767655,62.7214719 86.2603187,63.5888133 84.6950509,65.1400361 C83.4410769,66.3416735 82.6165709,67.9219766 82.3483334,69.6379113 C80.9887272,78.0190454 78.7537581,80.1143289 71.5552953,81.7439938 C66.7501118,82.8056041 64.2078344,85.7576258 64.2078344,90.0413165 C64.2078344,94.670089 67.9601959,98.4224505 72.5889685,98.4224505 C76.979028,98.4956725 80.6503566,95.1032829 80.9235406,90.7211196 C81.4264087,82.1537381 86.0825942,79.6859598 90.6363437,79.5462742 C95.2378951,79.4812072 98.9524107,75.7666916 99.0174777,71.1651402 C99.0175801,66.5581004 95.2991553,62.8147198 90.6922179,62.7840062 L90.5804695,62.728132 Z" id="Shape" fill="#004E75" fill-rule="nonzero" mask="url(#mask-5)"></path>
        </g>
        <g id="Path-2-Copy">
            <use fill="black" fill-opacity="1" filter="url(#filter-10)" xlink:href="#path-9"></use>
            <use fill="#14B468" fill-rule="evenodd" xlink:href="#path-9"></use>
        </g>
        <path d="M7.72999225,60.4579772 L7.72999225,48.6979772 C7.72999225,48.0179772 8.26999225,47.4779772 8.96999225,47.4779772 C9.64999225,47.4779772 10.1899923,48.0179772 10.1899923,48.6979772 L10.1899923,60.4579772 C10.1899923,61.1379772 9.64999225,61.6779772 8.96999225,61.6779772 C8.26999225,61.6779772 7.72999225,61.1379772 7.72999225,60.4579772 Z M11.9299923,60.4779772 L11.9299923,48.7379772 C11.9299923,48.0579772 12.4699923,47.4979772 13.1699923,47.4979772 L13.4299923,47.4979772 C14.0299923,47.4979772 14.3699923,47.7979772 14.7099923,48.2179772 L21.7099923,57.2779772 L21.7099923,48.6779772 C21.7099923,48.0179772 22.2499923,47.4779772 22.9099923,47.4779772 C23.5899923,47.4779772 24.1299923,48.0179772 24.1299923,48.6779772 L24.1299923,60.4379772 C24.1299923,61.1179772 23.6099923,61.6579772 22.9299923,61.6579772 L22.8299923,61.6579772 C22.2499923,61.6579772 21.8899923,61.3579772 21.5499923,60.9179772 L14.3499923,51.5979772 L14.3499923,60.4779772 C14.3499923,61.1379772 13.8099923,61.6779772 13.1499923,61.6779772 C12.4699923,61.6779772 11.9299923,61.1379772 11.9299923,60.4779772 Z M32.2299923,61.8179772 C28.1499923,61.8179772 25.1099923,58.6379772 25.1099923,54.6179772 L25.1099923,54.5779772 C25.1099923,50.5979772 28.0899923,47.3379772 32.3299923,47.3379772 C34.4899923,47.3379772 35.9099923,47.9779772 37.1299923,48.9179772 C37.3899923,49.1179772 37.6099923,49.4579772 37.6099923,49.8979772 C37.6099923,50.5779772 37.0699923,51.0979772 36.3899923,51.0979772 C36.0499923,51.0979772 35.8099923,50.9779772 35.6499923,50.8579772 C34.6899923,50.0779772 33.6499923,49.5979772 32.3099923,49.5979772 C29.6499923,49.5979772 27.6899923,51.7979772 27.6899923,54.5379772 L27.6899923,54.5779772 C27.6899923,57.3179772 29.6299923,59.5379772 32.3099923,59.5379772 C33.7899923,59.5379772 34.7899923,59.0579772 35.8099923,58.1979772 C35.9899923,58.0379772 36.2499923,57.9179772 36.5499923,57.9179772 C37.1699923,57.9179772 37.7099923,58.4379772 37.7099923,59.0579772 C37.7099923,59.4379772 37.5299923,59.7379772 37.3099923,59.9379772 C35.9899923,61.0979772 34.4899923,61.8179772 32.2299923,61.8179772 Z M38.4899923,60.3379772 L38.4899923,48.6979772 C38.4899923,48.0179772 39.0299923,47.4779772 39.7299923,47.4779772 C40.4099923,47.4779772 40.9499923,48.0179772 40.9499923,48.6979772 L40.9499923,59.3379772 L47.2899923,59.3379772 C47.9099923,59.3379772 48.4099923,59.8379772 48.4099923,60.4579772 C48.4099923,61.0779772 47.9099923,61.5779772 47.2899923,61.5779772 L39.7299923,61.5779772 C39.0299923,61.5779772 38.4899923,61.0379772 38.4899923,60.3379772 Z M54.2099923,61.7979772 C50.5699923,61.7979772 48.2499923,59.6979772 48.2499923,55.6379772 L48.2499923,48.6979772 C48.2499923,48.0179772 48.7899923,47.4779772 49.4899923,47.4779772 C50.1699923,47.4779772 50.7099923,48.0179772 50.7099923,48.6979772 L50.7099923,55.5379772 C50.7099923,58.1379772 52.0499923,59.5179772 54.2499923,59.5179772 C56.4299923,59.5179772 57.7699923,58.2179772 57.7699923,55.6379772 L57.7699923,48.6979772 C57.7699923,48.0179772 58.3099923,47.4779772 59.0099923,47.4779772 C59.6899923,47.4779772 60.2299923,48.0179772 60.2299923,48.6979772 L60.2299923,55.5179772 C60.2299923,59.6979772 57.8699923,61.7979772 54.2099923,61.7979772 Z M61.6099923,60.3379772 L61.6099923,48.8179772 C61.6099923,48.1179772 62.1499923,47.5779772 62.8499923,47.5779772 L66.8299923,47.5779772 C71.2299923,47.5779772 74.2699923,50.5979772 74.2699923,54.5379772 L74.2699923,54.5779772 C74.2699923,58.5179772 71.2299923,61.5779772 66.8299923,61.5779772 L62.8499923,61.5779772 C62.1499923,61.5779772 61.6099923,61.0379772 61.6099923,60.3379772 Z M64.0699923,59.3379772 L66.8299923,59.3379772 C69.7699923,59.3379772 71.6899923,57.3579772 71.6899923,54.6179772 L71.6899923,54.5779772 C71.6899923,51.8379772 69.7699923,49.8179772 66.8299923,49.8179772 L64.0699923,49.8179772 L64.0699923,59.3379772 Z M76.4899923,61.5779772 C75.7899923,61.5779772 75.2499923,61.0379772 75.2499923,60.3379772 L75.2499923,48.8179772 C75.2499923,48.1179772 75.7899923,47.5779772 76.4899923,47.5779772 L84.6299923,47.5779772 C85.2299923,47.5779772 85.7299923,48.0779772 85.7299923,48.6779772 C85.7299923,49.2979772 85.2299923,49.7779772 84.6299923,49.7779772 L77.7099923,49.7779772 L77.7099923,53.4179772 L83.7299923,53.4179772 C84.3299923,53.4179772 84.8299923,53.9179772 84.8299923,54.5379772 C84.8299923,55.1379772 84.3299923,55.6179772 83.7299923,55.6179772 L77.7099923,55.6179772 L77.7099923,59.3779772 L84.7299923,59.3779772 C85.3299923,59.3779772 85.8299923,59.8779772 85.8299923,60.4779772 C85.8299923,61.0979772 85.3299923,61.5779772 84.7299923,61.5779772 L76.4899923,61.5779772 Z M86.6499923,60.3379772 L86.6499923,48.8179772 C86.6499923,48.1179772 87.1899923,47.5779772 87.8899923,47.5779772 L91.8699923,47.5779772 C96.2699923,47.5779772 99.3099923,50.5979772 99.3099923,54.5379772 L99.3099923,54.5779772 C99.3099923,58.5179772 96.2699923,61.5779772 91.8699923,61.5779772 L87.8899923,61.5779772 C87.1899923,61.5779772 86.6499923,61.0379772 86.6499923,60.3379772 Z M89.1099923,59.3379772 L91.8699923,59.3379772 C94.8099923,59.3379772 96.7299923,57.3579772 96.7299923,54.6179772 L96.7299923,54.5779772 C96.7299923,51.8379772 94.8099923,49.8179772 91.8699923,49.8179772 L89.1099923,49.8179772 L89.1099923,59.3379772 Z" id="INCLUDED" fill="#FFFFFF" transform="translate(53.519992, 54.577977) rotate(-43.000000) translate(-53.519992, -54.577977) "></path>
    </g>
</svg>