<?xml version="1.0" encoding="UTF-8"?>
<svg width="24px" height="24px" viewBox="0 0 24 24" version="1.1" xmlns="http://www.w3.org/2000/svg" xmlns:xlink="http://www.w3.org/1999/xlink">
    <!-- Generator: Sketch 54.1 (76490) - https://sketchapp.com -->
    <title>Adobe Sign LOGO</title>
    <desc>Created with Sketch.</desc>
    <defs>
        <polygon id="path-1" points="0.00503622388 0.00519838057 23.9621553 0.00519838057 23.9621553 24.0051984 0.00503622388 24.0051984"></polygon>
    </defs>
    <g id="Adobe-Sign-LOGO" stroke="none" stroke-width="1" fill="none" fill-rule="evenodd">
        <g id="Group-22">
            <path d="M0.313482495,23.9947822 C-0.000255935614,23.9944907 -0.000255935614,23.9944907 3.38028169e-05,23.6786526 C3.38028169e-05,23.638183 8.20925553e-05,23.5977134 0.000130382294,23.5572437 C0.0779251509,23.4859239 0.175084105,23.4820858 0.272098189,23.4795595 C0.384709859,23.4764988 0.497369819,23.4781506 0.609981489,23.4782478 C8.18886278,23.485098 15.7677441,23.4921425 23.3466736,23.4984097 C23.9046616,23.4988955 23.8723074,23.5306202 23.8728386,22.9702154 C23.8801304,15.4991223 23.8863598,8.02798057 23.8949553,0.556838866 C23.8951485,0.390636437 23.8556958,0.213988664 23.9728467,0.0647902834" id="Fill-1" fill="#FDFDFD"></path>
            <g id="Group-5" transform="translate(0.000000, 0.043385)">
                <mask id="mask-2" fill="white">
                    <use xlink:href="#path-1"></use>
                </mask>
                <g id="Clip-4"></g>
                <path d="M23.9621553,0.0106672509 C23.9603203,0.117998006 23.95694,0.225279185 23.95694,0.33260994 C23.9566503,8.10598409 23.9566986,15.8794574 23.9566986,23.6528811 C23.9566986,23.9866228 23.9566503,23.9867219 23.6406905,23.9867219 C15.8676362,23.9867219 8.09467847,23.9866723 0.321672435,23.9875151 C0.217897787,23.9875151 0.114171429,23.9990166 0.0104450704,24.005164 C0.0104450704,16.0853936 0.0114108652,8.16567288 0.00503661972,0.245902554 C0.0048917505,0.0446264043 0.0444410463,0.00501565459 0.239869618,0.00516438081 C8.147266,0.0116091836 16.0547107,0.0106672509 23.9621553,0.0106672509" id="Fill-3" fill="#FE3500" mask="url(#mask-2)"></path>
            </g>
            <path d="M22.9311453,23.0458282 C22.8669199,23.0436408 22.8026463,23.0395643 22.7384209,23.0395643 C15.5622761,23.0393157 8.38617948,23.0393157 1.2100829,23.0395145 C1.15382535,23.0395145 1.09756781,23.0425968 1.04131026,23.0441877 C0.965302213,22.9784159 1.00291992,22.8894276 1.00291992,22.8123209 C1.00098833,15.6469728 1.00103662,8.48157497 1.00224386,1.31617713 C1.00224386,1.23559051 0.978678471,1.15013191 1.02817545,1.07426814 L1.02397425,1.07859327 C1.0976161,1.02763628 1.18062616,1.0519465 1.25890382,1.05189678 C8.41037264,1.05065393 15.5618414,1.05065393 22.713262,1.05199621 C22.7912982,1.05199621 22.874598,1.02619457 22.9474189,1.08013441 L22.944763,1.07486471 C22.9936322,1.15087763 22.9703565,1.2362368 22.9703565,1.31692284 C22.9715638,8.4827184 22.9716121,15.648514 22.9696322,22.8143592 C22.9696322,22.891267 23.007926,22.9804044 22.9311453,23.0458282" id="Fill-6" fill="#250000"></path>
            <path d="M22.9474141,1.12013707 C22.8831887,1.11727654 22.8189151,1.11188239 22.7546897,1.11188239 C15.5673416,1.11147374 8.38004185,1.11147374 1.19279034,1.11171893 C1.1365328,1.11171893 1.08027525,1.11556022 1.02401771,1.11760346 C1.09205795,0.972124918 1.18791308,1.0324413 1.27140604,1.03235957 C8.41466559,1.02958077 15.5579734,1.02958077 22.701233,1.03252303 C22.7843396,1.03252303 22.8807742,0.969754762 22.9474141,1.12013707" id="Fill-8" fill="#E45531"></path>
            <path d="M1.04852885,1.07364049 C1.04692626,1.56748664 1.04391339,2.06133279 1.04391339,2.55517895 C1.04359287,9.10513846 1.04359287,15.6551466 1.04461853,22.2051061 C1.04461853,22.3179644 1.05852902,22.4307741 1.06596504,22.5436324 C0.909808588,22.4698834 0.983207249,22.3522154 0.983143145,22.2563126 C0.97916872,16.7193571 0.979617445,11.182353 0.979617445,5.64539757 C0.979617445,4.21253927 0.978527683,2.77972955 0.98218159,1.34691984 C0.982373901,1.25534089 0.928334538,1.15064453 1.04852885,1.07364049" id="Fill-10" fill="#E45531"></path>
            <path d="M22.9311453,22.5452648 C22.9388714,22.4729247 22.953333,22.400536 22.953333,22.3282445 C22.9542575,15.2678235 22.9540594,8.20740243 22.9537292,1.14702996 C22.9537292,1.12273846 22.9511539,1.09849555 22.9497671,1.07420405 C23.0649321,1.14343482 23.0183114,1.2394834 23.0183114,1.32392065 C23.0205566,8.30966964 23.0205566,15.2954186 23.017453,22.2811676 C23.017453,22.3704146 23.0819031,22.4793862 22.9311453,22.5452648" id="Fill-12" fill="#F94819"></path>
            <path d="M15.7634656,12.6796421 C15.9731396,12.7054883 16.1482865,12.6097312 16.3310632,12.5641603 C17.1540652,12.3590429 17.9814133,12.2026543 18.834693,12.2975368 C19.0014857,12.3160955 19.1682302,12.3506381 19.3297111,12.3967433 C19.482693,12.440468 19.5501054,12.5626057 19.5138881,12.7175854 C19.4776225,12.8727595 19.3599887,12.9575854 19.2065722,12.9234316 C17.8707815,12.6260551 16.6299767,13.034881 15.3872402,13.4334559 C15.2955863,13.4628 15.2043187,13.4950105 15.1160934,13.5333425 C14.9648499,13.5991239 14.8165038,13.627302 14.7027815,13.4757231 C14.5873207,13.3217636 14.6640048,13.1910267 14.7686487,13.0628648 C15.0647131,12.7001927 15.3493328,12.3284356 15.6077312,11.9374397 C15.6490189,11.8750105 15.7251718,11.8225409 15.687361,11.6969538 C15.3602946,11.857715 15.0377674,12.0103142 14.7205521,12.1734559 C14.1055823,12.4898283 13.5032644,12.8296178 12.9096869,13.1850024 C12.7462744,13.2828972 12.5738801,13.4387514 12.3925038,13.2498121 C12.1989586,13.0482413 12.3768097,12.8784437 12.4868137,12.7155449 C12.90254,12.1001441 13.2991437,11.4733263 13.6279968,10.805553 C13.7017835,10.6556745 13.7787573,10.5060874 13.8102905,10.3184113 C13.3520692,10.3900227 12.9347976,10.5480146 12.5206165,10.7176178 C12.4219606,10.7580389 12.3814455,10.8487919 12.3272644,10.9265247 C11.7272644,11.7876583 11.1367292,12.6557879 10.4478761,13.4498769 C10.1667332,13.7739741 9.87086197,14.0825733 9.50806117,14.3162575 C9.29548974,14.4531644 9.06934889,14.5512049 8.80699074,14.5335692 C8.3347171,14.5018931 8.03324427,14.094136 8.14860845,13.6338607 C8.23765473,13.2783789 8.4462664,12.9901846 8.68394849,12.7244842 C9.58030262,11.7224113 10.6849304,11.0079984 11.8736789,10.4145085 C12.0162785,10.3433344 12.1259928,10.2571968 12.2139284,10.1242737 C12.8501457,9.16184453 13.4919646,8.20305911 13.9838922,7.15376356 C14.1178479,6.86804696 14.2341779,6.57562591 14.2863791,6.26236275 C14.3443268,5.914217 14.2086809,5.75763401 13.8580974,5.76472713 C13.5651235,5.77070283 13.2837392,5.84066235 13.0156346,5.95332632 C11.8157312,6.45761781 10.7896225,7.20472713 9.94416579,8.1999498 C9.80818189,8.36007935 9.69243139,8.53526964 9.60691026,8.72911579 C9.42678954,9.13745587 9.48608934,9.29403887 9.88728048,9.46548826 C9.90205714,9.47180405 9.91862052,9.47384453 9.93310744,9.48054899 C10.0903871,9.55352065 10.1477553,9.68139109 10.0874414,9.83836275 C10.0312805,9.98464615 9.90780362,10.035464 9.75197264,9.99990121 C9.13821006,9.85988502 8.83929658,9.33076761 9.02873722,8.72236275 C9.10913964,8.46414413 9.23628652,8.22919676 9.40124427,8.01999838 C10.3897352,6.76645992 11.6321336,5.86553684 13.1354414,5.33845992 C13.4633771,5.22346397 13.805027,5.1665247 14.1556588,5.24158543 C14.5708539,5.33049231 14.8137996,5.61028178 14.8331155,6.03620891 C14.8515622,6.44289717 14.7194414,6.81659757 14.5666044,7.18296194 C14.1980571,8.06649231 13.6862825,8.86932632 13.1718519,9.67036275 C13.1247211,9.74372308 13.0778318,9.81718057 13.0092121,9.92435466 C13.3047453,9.86216842 13.5584113,9.79905911 13.8155058,9.75698623 C14.1744918,9.69820081 14.3736869,9.87931822 14.3583308,10.2396097 C14.3449062,10.5537474 14.2221054,10.8373749 14.0862664,11.1118688 C13.9155139,11.4569538 13.726363,11.7928081 13.5434897,12.135804 C13.6434012,12.1694721 13.7070471,12.088387 13.7787091,12.0492777 C14.4069103,11.7063789 15.0439002,11.381553 15.6982262,11.0919012 C15.7861618,11.0530348 15.8754978,11.0126138 15.968359,10.9905085 C16.3456467,10.9007271 16.5740089,11.1439822 16.4509666,11.5141846 C16.3071115,11.9470591 16.035192,12.3082251 15.7634656,12.6796421" id="Fill-14" fill="#FECFCB"></path>
            <path d="M11.9355139,16.5188356 C9.53029859,16.5188356 7.12503501,16.5157749 4.71986801,16.524034 C4.50478551,16.5248113 4.44814165,16.468698 4.45456419,16.2551271 C4.46967887,15.7534105 4.45837907,15.7530704 4.96571107,15.7530704 C9.68762656,15.7530704 14.4095903,15.7553053 19.1315541,15.7467547 C19.3804877,15.746366 19.4422503,15.8117101 19.4319163,16.0538478 C19.4121658,16.518204 19.426363,16.5188356 18.9580974,16.5188356 L11.9355139,16.5188356 Z" id="Fill-16" fill="#FD3500"></path>
            <path d="M4.88342535,12.5907304 C4.63251187,12.2265522 4.53617384,11.8540664 4.55138511,11.4144874 C4.57804105,10.646536 4.5636507,9.87693279 4.55510342,9.10810688 C4.55322012,8.9380664 4.60184789,8.8889004 4.77095855,8.89079514 C5.53509537,8.89939433 6.29942535,8.89788826 7.06365875,8.89166964 C7.21432274,8.89045506 7.27342938,8.92528907 7.27212555,9.09129717 C7.26464064,10.0381798 7.26831066,10.9851595 7.26879356,11.9320907 C7.26884185,12.014196 7.25845956,12.0897425 7.21277746,12.1630057 C6.78584789,12.8478316 6.36167082,13.5343579 5.9203992,14.2466818 C5.56860845,13.6798154 5.24801288,13.1198964 4.88342535,12.5907304 Z" id="Fill-18" fill="#FE3500"></path>
            <path d="M11.3024885,11.3782883 C10.7646374,12.1794219 10.2126857,12.964183 9.50992515,13.6249603 C9.36920885,13.7573004 9.21767565,13.8774947 9.03504386,13.9508065 C8.92421891,13.9953085 8.81189698,14.01377 8.71749054,13.9277781 C8.6169996,13.8362478 8.68919276,13.7302883 8.72236781,13.6363773 C8.74887887,13.5614623 8.79127726,13.4897053 8.83811831,13.4249927 C9.48447646,12.5318429 10.3722833,11.9312113 11.3024885,11.3782883" id="Fill-20" fill="#250000"></path>
        </g>
    </g>
</svg>