<?xml version="1.0" encoding="UTF-8"?>
<svg width="24px" height="24px" viewBox="0 0 24 24" version="1.1" xmlns="http://www.w3.org/2000/svg" xmlns:xlink="http://www.w3.org/1999/xlink">
    <!-- Generator: Sketch 54.1 (76490) - https://sketchapp.com -->
    <title>Group</title>
    <desc>Created with Sketch.</desc>
    <g id="Page-1" stroke="none" stroke-width="1" fill="none" fill-rule="evenodd">
        <g id="DocuSign-LOGO">
            <g id="Group">
                <rect id="Rectangle" fill="#1E4CA1" x="0" y="0" width="24" height="24" rx="3"></rect>
                <path d="M3.66348187,16.5492275 L7.55186525,16.5492275 C10.7926902,16.5492275 13.6634819,14.6336481 13.6634819,11.0787747 C13.6634819,7.05728585 10.7343038,5.54922752 7.22808606,5.54922752 L3.66348187,5.54922752 L3.66348187,16.5492275 L3.66348187,16.5492275 Z M6.05504997,7.78483765 L7.47452221,7.78483765 C9.49681521,7.78483765 11.2074613,8.79481463 11.2074613,10.9598185 C11.2074613,13.4586673 9.53548673,14.3182221 7.31907787,14.3182221 L6.05504997,14.3182221 L6.05504997,7.78483765 Z" id="Shape" fill="#FFFFFF" fill-rule="nonzero"></path>
                <path d="M12.3855401,18.1852747 C10.867633,18.8128235 9.46217934,19.2523192 8.52434385,19.2523192 C8.07241051,19.2523192 7.67134412,19.3025734 7.67134412,18.7820837 C7.67134412,18.261594 15.2016102,16.3387734 15.2016102,14.2113466 C15.2016102,12.4416816 8.17805726,12.8054262 8.17805726,10.8311549 C8.17805726,9.32293134 13.1219342,5.99897647 17.2969375,5.99897647 C18.9135937,5.99897647 20.92023,6.43929879 20.92023,8.55595687 C20.9482122,8.78402981 20.8736854,9.01271631 20.7138378,9.18927346 C20.5539903,9.36583062 20.3226238,9.47501385 20.0730995,9.49164179 C19.7333343,9.49164179 19.4490011,9.44078935 19.4490011,9.12849553 C19.4490011,8.81620172 20.0065812,8.71330031 20.0065812,8.40220302 C20.0065812,7.57360736 17.4038885,7.41506739 17.0080393,7.41506739 C14.1823146,7.41506739 9.36104008,9.58257792 9.36104008,10.8407271 C9.36104008,12.252032 17.0693405,11.2912199 17.0693405,13.7859809 C17.022396,14.2837802 16.8466707,14.764122 16.5567581,15.1871152 C15.3394141,16.5971272 13.7995547,17.5165391 12.3855401,18.1852747 Z" id="Path" fill="#FFFFFF" fill-rule="nonzero"></path>
            </g>
        </g>
    </g>
</svg>