<?xml version="1.0" encoding="UTF-8"?>
<svg width="21px" height="22px" viewBox="0 0 21 22" version="1.1" xmlns="http://www.w3.org/2000/svg" xmlns:xlink="http://www.w3.org/1999/xlink">
    <!-- Generator: Sketch 51.3 (57544) - http://www.bohemiancoding.com/sketch -->
    <title>ic_Export to expense mgr_hover</title>
    <desc>Created with Sketch.</desc>
    <defs></defs>
    <g id="Operations-Manager" stroke="none" stroke-width="1" fill="none" fill-rule="evenodd">
        <g id="What-if-analysis-Copy" transform="translate(-508.000000, -303.000000)">
            <g id="ic_Export-to-expense-mgr_hover" transform="translate(507.000000, 302.000000)">
                <rect id="Rectangle-2" x="0" y="0" width="24" height="24"></rect>
                <path d="M8.74638352,7.37107239 L8.74638352,7.72879694 C7.30405866,7.79803395 6.28101429,8.67668457 6.28101429,9.86360474 C6.28101429,11.0752524 7.04410477,11.709925 8.78411876,12.1138076 L8.78411876,15.0102225 C8.00817412,14.9121911 7.28191566,14.5811654 6.70448758,14.0623348 C6.57547972,13.9620116 6.39991644,13.9418425 6.25084913,14.0102201 C6.10178182,14.0785977 6.00473762,14.2238124 6.00009637,14.3854409 C5.99690546,14.5350877 6.0731415,14.6755908 6.201351,14.7563534 C6.92547736,15.3422105 7.81234299,15.7000939 8.74638352,15.7833691 L8.74638352,16.6249285 C8.74638352,16.8297778 8.91532995,16.995841 9.12373595,16.995841 C9.33214195,16.995841 9.50108838,16.8297778 9.50108838,16.6249285 L9.50108838,15.8064481 C10.9685701,15.7141321 12,14.8585605 12,13.6254823 C12,12.4599926 11.249488,11.779162 9.46335314,11.386819 L9.46335314,8.53656205 C10.0279808,8.63286823 10.560357,8.86255043 11.0146909,9.20585315 C11.0872717,9.26232808 11.1779424,9.29154885 11.270452,9.28827816 C11.3865627,9.29376946 11.4999529,9.25261134 11.5845653,9.17426197 C11.6691778,9.09591259 11.7177363,8.98710964 11.7190822,8.8728561 C11.7116241,8.7149837 11.6232181,8.571603 11.4842851,8.49205255 C10.899687,8.08076551 10.2161862,7.82623475 9.50108838,7.75352444 L9.50108838,7.37107239 C9.5010882,7.16622316 9.33214182,7.00016014 9.12373595,7.00016014 C8.91533007,7.00016014 8.74638369,7.16622316 8.74638352,7.37107239 Z M11.0943542,13.6831798 C11.0943542,14.4447869 10.4738191,14.9871435 9.46335314,15.0431925 L9.46335314,12.2638211 C10.7421586,12.5861029 11.0943542,13.0023492 11.0943542,13.6831798 Z M7.18666013,9.80590723 C7.18666013,9.10199763 7.78623121,8.54810155 8.78411876,8.50194355 L8.78411876,11.2260902 C7.50531329,10.8906204 7.18666013,10.4751983 7.18666013,9.80590723 Z" id="market" fill="#000000" fill-rule="nonzero"></path>
                <polyline id="Path-25-Copy" stroke="#000000" stroke-linecap="round" stroke-linejoin="round" transform="translate(18.828189, 12.028189) rotate(135.000000) translate(-18.828189, -12.028189) " points="20.8281891 10.0627704 16.8281891 10.0285259 16.8631074 14.0278521"></polyline>
                <path d="M15.035534,14.5355339 L20.035534,9.53553387 L15.035534,14.5355339 Z" id="Path-26-Copy" stroke="#000000" stroke-linecap="round" stroke-linejoin="round" transform="translate(17.535534, 12.035534) rotate(45.000000) translate(-17.535534, -12.035534) "></path>
                <path d="M1.9999996,9.10786792 L1.9999996,4 C1.9999996,2.8954305 2.8954301,2 3.9999996,2 L14.995494,2 C16.1000635,2 16.995494,2.8954305 16.995494,4 L16.995494,19.9960012 C16.995494,21.1005707 16.1000635,21.9960012 14.995494,21.9960012 L3.9999996,21.9960012 C2.8954301,21.9960012 1.9999996,21.1005707 1.9999996,19.9960012 L1.9999996,14.5372385 L1.9999996,14.671298" id="Rectangle" stroke="#000000" stroke-linecap="round" stroke-linejoin="round" transform="translate(9.497747, 11.998001) scale(-1, 1) translate(-9.497747, -11.998001) "></path>
            </g>
        </g>
    </g>
</svg>