<?xml version="1.0" encoding="UTF-8"?>
<svg width="20px" height="20px" viewBox="0 0 20 20" version="1.1" xmlns="http://www.w3.org/2000/svg" xmlns:xlink="http://www.w3.org/1999/xlink">
    <!-- Generator: Sketch 51.3 (57544) - http://www.bohemiancoding.com/sketch -->
    <title>ic_Email_Notification</title>
    <desc>Created with Sketch.</desc>
    <defs></defs>
    <g id="ic_Email_Notification" stroke="none" stroke-width="1" fill="none" fill-rule="evenodd">
        <g id="ic_Email_Notification-Copy" fill="#677885">
            <path d="M14.275,11.698125 L16.2189375,13.6420625 C16.3804375,13.8035625 16.3804375,14.0652083 16.2189375,14.2271042 C16.0574375,14.3882083 15.7953958,14.3882083 15.6338958,14.2271042 L13.6899583,12.2831667 C13.5284583,12.1212708 13.5284583,11.859625 13.6899583,11.698125 C13.8518542,11.536625 14.1135,11.536625 14.275,11.698125 Z M5.61970833,11.8291458 C5.77408333,11.6747708 6.02464583,11.6747708 6.17941667,11.8291458 C6.33379167,11.9839167 6.33379167,12.2344792 6.17941667,12.38925 L4.33641667,14.23225 C4.18164583,14.3870208 3.93108333,14.3870208 3.77670833,14.23225 C3.6219375,14.077875 3.6219375,13.8273125 3.77670833,13.6725417 L5.61970833,11.8291458 Z M15.1644375,7.4955625 C15.1438542,7.51614583 15.1189167,7.52604167 15.0955625,7.54147917 L11.1194167,11.5172292 C10.5015208,12.1355208 9.498875,12.1355208 8.88058333,11.5172292 L4.89058333,7.52722917 C4.88939583,7.52604167 4.8878125,7.52564583 4.886625,7.52485417 L3.76720833,6.40504167 C3.6124375,6.25066667 3.6124375,6.00010417 3.76720833,5.84533333 C3.92197917,5.69095833 4.17254167,5.69095833 4.32691667,5.84533333 L4.45833333,5.97675 L4.45833333,5.9755625 L9.44029167,10.9575208 C9.7494375,11.2666667 10.2505625,11.2666667 10.5597083,10.9575208 L14.5421875,6.9754375 C14.5560417,6.95485417 14.5643542,6.93189583 14.5825625,6.91408333 L15.7459167,5.75072917 C15.906625,5.59002083 16.1666875,5.59002083 16.3277917,5.75072917 C16.4881042,5.9114375 16.4881042,6.17189583 16.3277917,6.33220833 L15.1644375,7.4955625 Z M18.3125,4.45833333 C18.3125,4.02133333 17.9582292,3.66666667 17.5208333,3.66666667 L2.47916667,3.66666667 C2.04216667,3.66666667 1.6875,4.02133333 1.6875,4.45833333 L1.6875,15.5416667 C1.6875,15.9790625 2.04216667,16.3333333 2.47916667,16.3333333 L17.5208333,16.3333333 C17.9582292,16.3333333 18.3125,15.9790625 18.3125,15.5416667 L18.3125,4.45833333 Z M17.5208333,17.125 L2.47916667,17.125 C1.60477083,17.125 0.895833333,16.4160625 0.895833333,15.5416667 L0.895833333,4.45833333 C0.895833333,3.5839375 1.60477083,2.875 2.47916667,2.875 L17.5208333,2.875 C18.3952292,2.875 19.1041667,3.5839375 19.1041667,4.45833333 L19.1041667,15.5416667 C19.1041667,16.4160625 18.3952292,17.125 17.5208333,17.125 Z" id="Fill-5"></path>
        </g>
    </g>
</svg>