<?xml version="1.0" encoding="UTF-8"?>
<svg width="20px" height="20px" viewBox="0 0 20 20" version="1.1" xmlns="http://www.w3.org/2000/svg" xmlns:xlink="http://www.w3.org/1999/xlink">
    <!-- Generator: Sketch 51.3 (57544) - http://www.bohemiancoding.com/sketch -->
    <title>ic_FirmPost_Notification</title>
    <desc>Created with Sketch.</desc>
    <defs></defs>
    <g id="ic_FirmPost_Notification" stroke="none" stroke-width="1" fill="none" fill-rule="evenodd">
        <g id="ic_FirmPost_Notification-Copy" fill="#677885">
            <path d="M1.6875,10.1357708 C1.6875,10.3693125 1.70570833,10.5985 1.73341667,10.8253125 C1.737375,10.8585625 1.74014583,10.8918125 1.74489583,10.9250625 C1.775375,11.1411875 1.81891667,11.3533542 1.87314583,11.5623542 C1.88264583,11.598375 1.89254167,11.6343958 1.9024375,11.6704167 C1.9618125,11.8806042 2.03108333,12.087625 2.11341667,12.2891042 C2.122125,12.3100833 2.13202083,12.3306667 2.141125,12.3520417 C2.32004167,12.776375 2.54883333,13.1785417 2.82195833,13.5545833 C2.83422917,13.5716042 2.8465,13.5894167 2.85877083,13.6064375 C2.99454167,13.7889167 3.14060417,13.9646667 3.29577083,14.1332917 C3.312,14.1511042 3.328625,14.168125 3.34485417,14.1851458 C3.50477083,14.3553542 3.67339583,14.5192292 3.8523125,14.6732083 C3.85864583,14.67875 3.86497917,14.6838958 3.8713125,14.6890417 C4.05695833,14.8477708 4.25170833,14.9985833 4.45595833,15.1391042 C4.45754167,15.1402917 4.45872917,15.1414792 4.4603125,15.1426667 L4.4603125,15.1422708 C4.71047917,15.3140625 4.97291667,15.4716042 5.24722917,15.6133125 L5.24841667,15.6141042 C5.252375,15.6160833 5.2559375,15.6184583 5.25989583,15.6200417 L5.25554167,16.4944375 C5.25514583,16.4944375 5.25475,16.4944375 5.25435417,16.4940417 L5.25514583,16.562125 L5.25,17.545375 L5.2630625,17.535875 L5.2630625,17.5414167 L6.2201875,16.8617708 C6.2178125,16.861375 6.2154375,16.8601875 6.2130625,16.8593958 L7.04747917,16.26525 C7.0490625,16.2656458 7.05104167,16.2656458 7.05302083,16.2660417 C7.05460417,16.2664375 7.0561875,16.2672292 7.057375,16.267625 L7.05816667,16.2672292 C7.42272917,16.3491667 7.79995833,16.3990417 8.18391667,16.4315 L8.17085417,16.4406042 C8.382625,16.4572292 8.59597917,16.4691042 8.8125,16.4691042 C12.7474792,16.4691042 15.9375,13.6333542 15.9375,10.1357708 C15.9375,6.6381875 12.7474792,3.8024375 8.8125,3.8024375 C4.87752083,3.8024375 1.6875,6.6381875 1.6875,10.1357708 M16.7291667,10.1357708 C16.7291667,14.07075 13.184875,17.2607708 8.8125,17.2607708 C8.2555625,17.2607708 7.71247917,17.2077292 7.188,17.1091667 L4.45833333,18.9683958 L4.45991667,16.0843542 C2.31410417,14.8097708 0.895833333,12.6227917 0.895833333,10.1357708 C0.895833333,6.20079167 4.440125,3.01077083 8.8125,3.01077083 C13.184875,3.01077083 16.7291667,6.20079167 16.7291667,10.1357708 M16.8855208,13.0958125 C17.1507292,12.4985 17.334,11.864375 17.4321667,11.2053125 C17.9922708,10.3008333 18.3125,9.26216667 18.3125,8.15660417 C18.3125,4.65902083 15.1224792,1.82327083 11.1875,1.82327083 C10.3162708,1.82327083 9.48502083,1.96933333 8.71314583,2.22385417 C7.87635417,2.23216667 7.0680625,2.34735417 6.30410417,2.55635417 C7.6499375,1.60397917 9.34291667,1.03160417 11.1875,1.03160417 C15.559875,1.03160417 19.1041667,4.221625 19.1041667,8.15660417 C19.1041667,10.076 18.2566875,11.8145 16.8855208,13.0958125" id="Fill-1"></path>
        </g>
    </g>
</svg>