<?xml version="1.0" encoding="UTF-8"?>
<svg width="25px" height="24px" viewBox="0 0 25 24" version="1.1" xmlns="http://www.w3.org/2000/svg" xmlns:xlink="http://www.w3.org/1999/xlink">
    <!-- Generator: Sketch 54.1 (76490) - https://sketchapp.com -->
    <title>ic_Home</title>
    <desc>Created with Sketch.</desc>
    <g id="Page-1" stroke="none" stroke-width="1" fill="none" fill-rule="evenodd">
        <g id="Cloudlex-Icons-Copy-2" transform="translate(-108.000000, -587.000000)">
            <g id="ic_Home" transform="translate(108.439040, 586.995466)">
                <circle id="Oval-2" stroke="#6D6D6D" fill-rule="nonzero" cx="12" cy="12" r="11.5"></circle>
                <g id="Group" fill-rule="evenodd" transform="translate(4.500000, 4.500000)" fill="#000000">
                    <path d="M7.50002517,2.98279243 L2.17005764,7.37678594 C2.17005764,7.38298723 2.1684992,7.39211061 2.16538231,7.40454568 C2.16233037,7.41688334 2.16070699,7.42584438 2.16070699,7.43220801 L2.16070699,11.8815911 C2.16070699,12.0422405 2.21944076,12.1814613 2.33687582,12.2987015 C2.45427842,12.4160067 2.59330439,12.4750327 2.75398621,12.4750327 L6.31340179,12.4750327 L6.31340179,8.9154223 L8.68668102,8.9154223 L8.68668102,12.4751626 L12.2460641,12.4751626 C12.4067135,12.4751626 12.5459343,12.4162665 12.6631745,12.2987015 C12.7806096,12.1815911 12.8395382,12.0422729 12.8395382,11.8815911 L12.8395382,7.43220801 C12.8395382,7.40753269 12.8361615,7.38889632 12.8301875,7.37678594 L7.50002517,2.98279243 Z" id="Shape" fill-rule="nonzero"></path>
                    <path d="M14.8692784,6.27561688 L12.8393434,4.58853896 L10.4663239,2.61405844 L8.20457063,0.722987013 C8.00703816,0.562305195 7.77216803,0.481980519 7.50021998,0.481980519 C7.22830439,0.481980519 6.99346673,0.562305195 6.79573946,0.722987013 L0.130642054,6.27561688 C0.0688563402,6.32496753 0.0349927038,6.3913961 0.0286940025,6.47483766 C0.0224277688,6.55821429 0.0440186778,6.63103896 0.0935316649,6.69279221 L0.668239457,7.37876623 C0.717752444,7.43435065 0.782557639,7.46834416 0.862914782,7.48077922 C0.937103093,7.48701299 1.01129141,7.46532468 1.08547972,7.41590909 L7.50002517,2.06714286 L13.9146356,7.41587662 C13.964181,7.45899351 14.0289537,7.48051948 14.1093109,7.48051948 C14.2173953,7.46831169 14.2820706,7.43409091 14.3318434,7.37863636 L14.9066161,6.69275974 C14.9560317,6.63087662 14.9776875,6.55818182 14.9712589,6.47470779 C14.9649278,6.39149351 14.9309343,6.32506494 14.8692784,6.27561688 Z" id="Shape" fill-rule="nonzero"></path>
                </g>
            </g>
        </g>
    </g>
</svg>