<?xml version="1.0" encoding="UTF-8"?>
<svg width="17px" height="16px" viewBox="0 0 17 16" version="1.1" xmlns="http://www.w3.org/2000/svg" xmlns:xlink="http://www.w3.org/1999/xlink">
    <!-- Generator: Sketch 54.1 (76490) - https://sketchapp.com -->
    <title>ic_ImportantNote</title>
    <desc>Created with Sketch.</desc>
    <g id="Page-1" stroke="none" stroke-width="1" fill="none" fill-rule="evenodd">
        <g id="Cloudlex-Icons-Copy-2" transform="translate(-38.000000, -5.000000)" fill="#F48267">
            <g id="ic_ImportantNote" transform="translate(34.298846, 1.000000)">
                <g id="important-note-copy-4" transform="translate(4.000000, 4.000000)">
                    <path d="M8,0 C12.418278,0 16,3.581722 16,8 C16,12.418278 12.418278,16 8,16 C3.581722,16 0,12.418278 0,8 C0,3.581722 3.581722,0 8,0 Z M7.485,9.165 C7.48366521,9.29847244 7.53575378,9.42693768 7.62966703,9.52179007 C7.72358029,9.61664245 7.85152089,9.67000667 7.985,9.67 C8.26664453,9.67064514 8.49740337,9.4465428 8.505,9.165 L8.995,3.45 C9.02100321,3.30096068 8.97976049,3.14805164 8.88233843,3.03230266 C8.78491636,2.91655367 8.64129062,2.84981702 8.49,2.85 L7.485,2.85 C7.33483865,2.84996935 7.19261413,2.91742791 7.09763188,3.0337327 C7.00264964,3.1500375 6.96496773,3.30287252 6.995,3.45 L7.485,9.165 Z M6.995,11.655 L6.995,11.795 C7.01201213,12.3308822 7.45134787,12.7564921 7.9875,12.7564921 C8.52365213,12.7564921 8.96298787,12.3308822 8.98,11.795 L8.98,11.655 C8.96298787,11.1191178 8.52365213,10.6935079 7.9875,10.6935079 C7.45134787,10.6935079 7.01201213,11.1191178 6.995,11.655 Z" id="important_note_copy_4"></path>
                </g>
            </g>
        </g>
    </g>
</svg>