<?xml version="1.0" encoding="UTF-8"?>
<svg width="25px" height="25px" viewBox="0 0 25 25" version="1.1" xmlns="http://www.w3.org/2000/svg" xmlns:xlink="http://www.w3.org/1999/xlink">
    <!-- Generator: Sketch 54.1 (76490) - https://sketchapp.com -->
    <title>ic_Office</title>
    <desc>Created with Sketch.</desc>
    <g id="Page-1" stroke="none" stroke-width="1" fill="none" fill-rule="evenodd">
        <g id="Cloudlex-Icons-Copy-2" transform="translate(-108.000000, -561.000000)">
            <g id="ic_Office" transform="translate(108.504710, 561.237822)">
                <circle id="Oval-2" stroke="#6D6D6D" fill-rule="nonzero" cx="12" cy="12" r="11.5"></circle>
                <g id="Group" fill-rule="evenodd" transform="translate(5.000000, 5.700000)" fill="#000000">
                    <path d="M11.937923,2.19344743 L9.71896794,2.19344743 L9.71896794,1.649636 C9.71896794,1.04982224 9.23120982,0.562038631 8.63137057,0.562038631 L5.36860394,0.562038631 C4.76879018,0.562038631 4.28100657,1.04979675 4.28100657,1.649636 L4.28100657,2.19342194 L2.062051,2.19342194 C1.46221175,2.19344743 0.974454,2.68120555 0.974454,3.28101932 L0.974454,4.91240263 C0.974454,5.51224188 1.46221175,6 2.062051,6 L5.91241537,6 L5.91241537,5.72809428 C5.91241537,5.5778031 6.0340299,5.45618857 6.18432109,5.45618857 L7.8157044,5.45618857 C7.96599559,5.45618857 8.08761012,5.5778031 8.08761012,5.72809428 L8.08761012,6 L11.937974,6 C12.5377623,6 13.025521,5.51224188 13.025521,4.91240263 L13.025521,3.28101932 C13.025521,2.68120555 12.5377623,2.19344743 11.937923,2.19344743 Z M8.63137057,2.19344743 L5.36860394,2.19344743 L5.36860394,1.649636 L8.63137057,1.649636 L8.63137057,2.19344743 Z" id="Shape" fill-rule="nonzero"></path>
                    <path d="M12.874694,6.39339409 C12.7820365,6.34746045 12.6713066,6.35808993 12.589508,6.42020995 C12.3962146,6.56652464 12.1710329,6.64378593 11.937898,6.64378593 L8.08758463,6.64378593 L8.08758463,7.45947759 C8.08758463,7.60976878 7.9659701,7.73138331 7.81567891,7.73138331 L6.1842956,7.73138331 C6.03400441,7.73138331 5.91238988,7.60976878 5.91238988,7.45947759 L5.91238988,6.64378593 L2.062051,6.64378593 C1.82891613,6.64378593 1.60375992,6.56652464 1.410441,6.42020995 C1.32838752,6.35755463 1.21793796,6.34692515 1.125255,6.39339409 C1.03287792,6.43935321 0.974454,6.53359109 0.974454,6.63690354 L0.974454,10.450364 C0.974454,11.0501778 1.46221175,11.5379614 2.062051,11.5379614 L11.937949,11.5379614 C12.5377628,11.5379614 13.025546,11.0502032 13.025546,10.450364 L13.025546,6.63690354 C13.0255205,6.53359109 12.9670966,6.43935321 12.874694,6.39339409 Z" id="Shape" fill-rule="nonzero"></path>
                </g>
            </g>
        </g>
    </g>
</svg>