<svg xmlns="http://www.w3.org/2000/svg" width="113" height="135" viewBox="0 0 113 135">
    <g fill="none" fill-rule="evenodd" transform="translate(1)">
        <g transform="rotate(21 -175.925 131.444)">
            <path fill="#FFF" d="M43.193 18L23.72 1.123a2 2 0 0 0-2.603-.014L1.193 18h42z"/>
            <rect width="44" height="33" y="17" fill="#FFF" rx="2"/>
            <path fill="#D5E1E6" d="M3.667 17l18.13 19 18.536-19z" style="mix-blend-mode:multiply"/>
            <path fill="#DEE8EC" d="M22 36l13.64 14H42a2 2 0 0 0 2-2V19a2 2 0 0 0-2-2h-1.667L22 36z" opacity=".503"/>
        </g>
        <circle cx="71" cy="63" r="7" fill="#FFB64C"/>
        <g transform="rotate(-15 233.49 -129.202)">
            <rect width="26" height="39" fill="#3A93FF" rx="2"/>
            <path fill="#3A93FF" d="M18.736 21l-2.359 2.512L14.018 21H5a2 2 0 0 1-2-2V5a2 2 0 0 1 2-2h16a2 2 0 0 1 2 2v14a2 2 0 0 1-2 2h-2.264z" opacity=".602" style="mix-blend-mode:multiply"/>
            <path fill="#EEF3F5" fill-rule="nonzero" d="M12.512 16.83v-4.498h-4.55c-.52 0-.962-.416-.962-.936s.442-.936.962-.936h4.55V5.962c0-.546.442-.962.988-.962a.96.96 0 0 1 .962.962v4.498h4.576c.52 0 .936.416.936.936s-.416.936-.936.936h-4.576v4.498a.96.96 0 0 1-.962.962c-.546 0-.988-.416-.988-.962z"/>
        </g>
        <circle cx="60" cy="27" r="1" fill="#FFB64C"/>
        <circle cx="76" cy="45" r="4" fill="#FFB64C"/>
        <circle cx="66" cy="36" r="3" fill="#FFB64C"/>
        <path fill="#EE574F" d="M48 30.1l7.778 7.779L48 45.657l-7.778-7.778zM45.59 16.066l2.344 5.523-5.523 2.345-2.345-5.523zM56 8v4h-4V8zM59 0v2h-2V0z"/>
        <path stroke="#83DE42" stroke-width="2" d="M42.503 78.546c-.308-1.774-1.74-2.92-4.296-3.441-2.556-.52-3.584-1.889-3.085-4.105" opacity=".3"/>
        <path fill="#83DE42" fill-rule="nonzero" d="M31.858 30.203c-1.011-.636-2.19-.443-3.459.495-.904.67-1.493.617-2.021-.129l-.816.578c.871 1.231 2.1 1.34 3.432.355.968-.716 1.718-.838 2.332-.453l.532-.846zM85.703 40.5c1.395-.246 2.28-1.367 2.654-3.224.266-1.325.826-1.752 1.883-1.51l.26-1.173c-1.744-.398-2.913.493-3.305 2.443-.284 1.417-.848 2.13-1.695 2.28l.203 1.184z" opacity=".3"/>
        <path fill="#83DE42" fill-rule="nonzero" d="M79.434 32.606c-1.176-.205-1.924-1.138-2.239-2.683-.224-1.103-.697-1.458-1.588-1.257l-.22-.976c1.472-.331 2.458.41 2.788 2.033.24 1.18.716 1.773 1.43 1.897l-.17.986zM23.406 58c2.79-.492 4.561-2.734 5.307-6.449.532-2.649 1.653-3.503 3.766-3.02L33 46.186c-3.488-.796-5.826.985-6.61 4.886-.569 2.835-1.696 4.261-3.39 4.56L23.406 58zM86.123 73.173c-1.39-4.932.372-9.239 4.886-12.726 3.145-2.428 3.47-4.694 1.322-7.8l2.976-2.416c3.67 5.307 2.955 10.297-1.798 13.969-3.384 2.613-4.47 5.27-3.655 8.162l-3.731.811zM17.652 73.407l3.625-1.69 5.071 10.876-3.625 1.69zM93.518 91.338L90.983 85.9l-14.501 6.762 2.535 5.438z"/>
        <circle cx="83" cy="113" r="4" stroke="#1E2C32"/>
        <circle cx="105" cy="79" r="6" stroke="#1E2C32"/>
        <circle cx="99" cy="41" r="5" stroke="#1E2C32"/>
        <circle cx="36.5" cy="7.5" r="4.5" fill="#EFF4F6"/>
        <circle cx="66.5" cy="5.5" r="2.5" fill="#EFF4F6"/>
        <circle cx="9" cy="57" r="9" stroke="#1E2C32"/>
        <circle cx="12" cy="42" r="3" fill="#D5E1E5" opacity=".05"/>
        <circle cx="27" cy="130" r="3" fill="#D5E1E5" opacity=".05"/>
        <circle cx="34" cy="132" r="1" fill="#D5E1E5" opacity=".05"/>
        <circle cx="12.5" cy="101.5" r="5.5" stroke="#1E2C32"/>
        <circle cx="7" cy="110" r="1" fill="#D5E1E5" opacity=".05"/>
    </g>
</svg>
