<svg xmlns="http://www.w3.org/2000/svg" width="66" height="77" viewBox="0 0 66 77">
    <g fill="none" fill-rule="evenodd" transform="translate(1)">
        <g transform="rotate(21 -98.54 76.696)">
            <path fill="#FFF" d="M24.316 10.133L13.92 1.123a2 2 0 0 0-2.604-.014L.672 10.133h23.644z"/>
            <rect width="24.77" height="18.578" y="9.57" fill="#FFF" rx="2"/>
            <path fill="#D5E1E6" d="M2.064 9.57l10.207 10.697L22.706 9.57z" style="mix-blend-mode:multiply"/>
            <path fill="#DEE8EC" d="M12.385 20.267l7.679 7.881h2.706a2 2 0 0 0 2-2V11.57a2 2 0 0 0-2-2h-.064l-10.32 10.697z" opacity=".503"/>
        </g>
        <circle cx="40.744" cy="35" r="4" fill="#FFB64C"/>
        <g transform="rotate(-15 131.946 -76.534)">
            <rect width="14.637" height="21.956" fill="#3A93FF" rx="2"/>
            <path fill="#3A93FF" d="M10.548 11.822L9.22 13.236l-1.328-1.414H3.689a2 2 0 0 1-2-2V3.69a2 2 0 0 1 2-2h7.26a2 2 0 0 1 2 2v6.133a2 2 0 0 1-2 2h-.401z" opacity=".602" style="mix-blend-mode:multiply"/>
            <path fill="#EEF3F5" fill-rule="nonzero" d="M7.044 9.475V6.942H4.482a.537.537 0 0 1-.541-.526c0-.293.249-.527.541-.527h2.562V3.356c0-.307.249-.541.556-.541a.54.54 0 0 1 .542.541V5.89h2.576c.292 0 .527.234.527.527a.525.525 0 0 1-.527.526H8.142v2.533a.54.54 0 0 1-.542.541.544.544 0 0 1-.556-.541z"/>
        </g>
        <circle cx="35.244" cy="15.5" r="1" fill="#FFB64C"/>
        <circle cx="44.244" cy="25.5" r="2.5" fill="#FFB64C"/>
        <circle cx="38.244" cy="20.5" r="1.5" fill="#FFB64C"/>
        <path fill="#EE574F" d="M28.022 16.945l4.379 4.38-4.379 4.378-4.379-4.379zM26.665 9.045l1.32 3.109-3.11 1.32-1.32-3.11zM32.744 5v2h-2V5zM33.744 0v1h-1V0z"/>
        <path stroke="#83DE42" stroke-width="2" d="M24.744 44c-.164-.94-.927-1.548-2.29-1.824-1.362-.276-1.91-1.001-1.644-2.176" opacity=".3"/>
        <path fill="#83DE42" fill-rule="nonzero" d="M18.935 17.003c-.57-.358-1.234-.249-1.947.279-.51.377-.84.347-1.138-.073l-.46.326c.491.693 1.183.754 1.932.2.545-.403.968-.473 1.314-.255l.3-.477zM48.866 23c.837-.123 1.369-.684 1.592-1.612.16-.662.496-.876 1.13-.755l.156-.586c-1.046-.2-1.747.246-1.982 1.22-.171.71-.51 1.066-1.018 1.141l.122.592z" opacity=".3"/>
        <path fill="#83DE42" fill-rule="nonzero" d="M45.163 18.5c-.558-.123-.912-.684-1.061-1.612-.107-.662-.33-.876-.753-.755l-.105-.586c.698-.2 1.166.246 1.322 1.22.114.71.34 1.066.678 1.141l-.08.592zM14.488 32.5c1.674-.287 2.737-1.595 3.184-3.762.32-1.545.992-2.043 2.26-1.762l.312-1.367c-2.092-.465-3.495.574-3.965 2.85-.342 1.653-1.018 2.486-2.035 2.66l.244 1.381zM49.484 41.194c-.782-2.777.21-5.201 2.75-7.164 1.771-1.368 1.954-2.643.745-4.392l1.675-1.36c2.066 2.988 1.664 5.797-1.012 7.864-1.905 1.471-2.516 2.967-2.058 4.595l-2.1.457zM10.937 41.326l2.041-.952 2.855 6.123-2.04.951zM53.647 51.42l-1.427-3.061-8.164 3.806 1.428 3.062z"/>
        <circle cx="47.244" cy="63.5" r="2.5" stroke="#1E2C32"/>
        <circle cx="60.244" cy="44.5" r="3.5" stroke="#1E2C32"/>
        <circle cx="56.744" cy="23" r="3" stroke="#1E2C32" opacity=".1"/>
        <circle cx="21.244" cy="4.5" r="2.5" fill="#EFF4F6"/>
        <circle cx="38.244" cy="3.5" r="1.5" fill="#EFF4F6"/>
        <circle cx="5.744" cy="32" r="5" stroke="#1E2C32"/>
        <circle cx="8.244" cy="23.5" r="1.5" fill="#D5E1E5" opacity=".05"/>
        <circle cx="16.244" cy="73.5" r="1.5" fill="#D5E1E5" opacity=".05"/>
        <circle cx="20.244" cy="74.5" r="1" fill="#D5E1E5" opacity=".05"/>
        <circle cx="7.744" cy="57" r="3" stroke="#1E2C32"/>
        <circle cx="5.244" cy="61.5" r="1" fill="#D5E1E5" opacity=".05"/>
    </g>
</svg>
