<svg xmlns="http://www.w3.org/2000/svg" width="85" height="85" viewBox="0 0 85 85">
    <g fill="none" fill-rule="evenodd">
        <g fill="#CCF1FF">
            <rect width="85" height="85" opacity=".3" rx="42.5"/>
            <rect width="65" height="65" x="10" y="10" rx="32.5"/>
        </g>
        <g transform="translate(17 26)">
            <rect width="49" height="36" fill="#FFF" rx="3"/>
            <g transform="translate(6.5 7)">
                <rect width="22.31" height="22" fill="#D7E2E6" rx="1"/>
                <g fill="#FFF" transform="translate(1.487 4)">
                    <rect width="18.649" height="2" rx="1"/>
                    <rect width="18.649" height="2" y="4" rx="1"/>
                    <rect width="18.649" height="2" y="8" rx="1"/>
                    <rect width="18.649" height="2" y="12" rx="1"/>
                </g>
            </g>
        </g>
        <g transform="translate(48 21)">
            <rect width="28.934" height="13.126" fill="#FFB64C" opacity=".227" rx="6.563"/>
            <rect width="20.234" height="5.307" x="4.35" y="3.91" fill="#FFB64C" rx="2.654"/>
            <path fill="#3A93FF" d="M13.106 25.562s-4.515-5.37-5.163-9.028c0 0-.207-3.148 2.581-1.76 0 0 1.215 1.667 1.446 2.732.232 1.065 0-8.982 0-8.982s.027-.43.155-.752c.13-.322 1.611-1.547 3.093 0 0 0 .13.515.13.708v5.09s1.706-1.74 2.447.29c0 0 1.701-1.32 2.43.516 0 0 1.894-.42 2.66 1.353 0 0 1.356 5.13-2.445 9.833h-7.334z"/>
        </g>
        <rect width="67" height="3" x="8" y="60" fill="#004E75" rx="1.5"/>
    </g>
</svg>
