<?xml version="1.0" encoding="UTF-8"?>
<svg width="20px" height="20px" viewBox="0 0 20 20" version="1.1" xmlns="http://www.w3.org/2000/svg" xmlns:xlink="http://www.w3.org/1999/xlink">
    <!-- Generator: Sketch 51.3 (57544) - http://www.bohemiancoding.com/sketch -->
    <title>ic_ClientMessenger_Notification</title>
    <desc>Created with Sketch.</desc>
    <defs></defs>
    <g id="ic_ClientMessenger_Notification" stroke="none" stroke-width="1" fill="none" fill-rule="evenodd">
        <g id="ic_ClientMessenger_Notification-Copy" stroke="#677885" stroke-width="0.8">
            <path d="M2.29943252,16.5411382 L9.98408442,16.5411382" id="Path" transform="translate(6.141758, 16.541138) scale(-1, 1) translate(-6.141758, -16.541138) "></path>
            <path d="M16.9181816,1.2 L5.395067,1.2 C4.94319766,1.2 4.57688518,1.56631248 4.57688518,2.01818182 L4.57688518,8.55275398 C4.57688518,9.00462332 4.94319766,9.3709358 5.395067,9.3709358 L6.27283759,9.3709358 L6.27283759,11.7096928 C6.27283759,11.9356274 6.45599383,12.1187837 6.6819285,12.1187837 C6.80895989,12.1187837 6.92878334,12.0597714 7.0062208,11.9590718 L8.99648305,9.3709358 L16.9181816,9.3709358 C17.3700509,9.3709358 17.7363634,9.00462332 17.7363634,8.55275398 L17.7363634,5.18071231 L17.7363634,2.01818182 C17.7363634,1.56631248 17.3700509,1.2 16.9181816,1.2 Z" id="Path-4"></path>
            <path d="M9.88181818,11.109091 L9.88181818,17.9727273 C9.88181818,18.4245966 9.5155057,18.7909091 9.06363636,18.7909091 L3.09090909,18.7909091 C2.63903975,18.7909091 2.27272727,18.4245966 2.27272727,17.9727273 L2.27272727,6.43636364 C2.27272727,5.9844943 2.63903975,5.61818182 3.09090909,5.61818182 L3.245455,5.61818182" id="Path-22" fill-rule="nonzero"></path>
        </g>
    </g>
</svg>