<?xml version="1.0" encoding="UTF-8"?>
<svg width="20px" height="20px" viewBox="0 0 20 20" version="1.1" xmlns="http://www.w3.org/2000/svg" xmlns:xlink="http://www.w3.org/1999/xlink">
    <!-- Generator: Sketch 51.3 (57544) - http://www.bohemiancoding.com/sketch -->
    <title>ic_Events_Notification</title>
    <desc>Created with Sketch.</desc>
    <defs></defs>
    <g id="ic_Events_Notification" stroke="none" stroke-width="1" fill="none" fill-rule="evenodd">
        <g id="ic_Events_Notification-Copy" fill="#677885">
            <path d="M6.03416982,9.80629433 C5.815256,9.80629433 5.63758681,9.97985461 5.63758681,10.1937057 C5.63758681,10.4075567 5.815256,10.581117 6.03416982,10.581117 C6.25308365,10.581117 6.43075284,10.4075567 6.43075284,10.1937057 C6.43075284,9.97985461 6.25308365,9.80629433 6.03416982,9.80629433 Z M6.03416982,11.3559397 C5.37703176,11.3559397 4.84442077,10.8356463 4.84442077,10.1937057 C4.84442077,9.55176507 5.37703176,9.03147163 6.03416982,9.03147163 C6.69130788,9.03147163 7.22391888,9.55176507 7.22391888,10.1937057 C7.22391888,10.8356463 6.69130788,11.3559397 6.03416982,11.3559397 Z M6.03416982,14.0678191 C5.815256,14.0678191 5.63758681,14.2413794 5.63758681,14.4552305 C5.63758681,14.6690816 5.815256,14.8426418 6.03416982,14.8426418 C6.25308365,14.8426418 6.43075284,14.6690816 6.43075284,14.4552305 C6.43075284,14.2413794 6.25308365,14.0678191 6.03416982,14.0678191 Z M6.03416982,15.6174645 C5.37703176,15.6174645 4.84442077,15.0971711 4.84442077,14.4552305 C4.84442077,13.8132899 5.37703176,13.2929965 6.03416982,13.2929965 C6.69130788,13.2929965 7.22391888,13.8132899 7.22391888,14.4552305 C7.22391888,15.0971711 6.69130788,15.6174645 6.03416982,15.6174645 Z M10,9.80629433 C9.78108617,9.80629433 9.60341698,9.97985461 9.60341698,10.1937057 C9.60341698,10.4075567 9.78108617,10.581117 10,10.581117 C10.2189138,10.581117 10.396583,10.4075567 10.396583,10.1937057 C10.396583,9.97985461 10.2189138,9.80629433 10,9.80629433 Z M10,11.3559397 C9.34286194,11.3559397 8.81025095,10.8356463 8.81025095,10.1937057 C8.81025095,9.55176507 9.34286194,9.03147163 10,9.03147163 C10.6571381,9.03147163 11.1897491,9.55176507 11.1897491,10.1937057 C11.1897491,10.8356463 10.6571381,11.3559397 10,11.3559397 Z M10,14.0678191 C9.78108617,14.0678191 9.60341698,14.2413794 9.60341698,14.4552305 C9.60341698,14.6690816 9.78108617,14.8426418 10,14.8426418 C10.2189138,14.8426418 10.396583,14.6690816 10.396583,14.4552305 C10.396583,14.2413794 10.2189138,14.0678191 10,14.0678191 Z M10,15.6174645 C9.34286194,15.6174645 8.81025095,15.0971711 8.81025095,14.4552305 C8.81025095,13.8132899 9.34286194,13.2929965 10,13.2929965 C10.6571381,13.2929965 11.1897491,13.8132899 11.1897491,14.4552305 C11.1897491,15.0971711 10.6571381,15.6174645 10,15.6174645 Z M13.9658302,9.80629433 C13.7469164,9.80629433 13.5692472,9.97985461 13.5692472,10.1937057 C13.5692472,10.4075567 13.7469164,10.581117 13.9658302,10.581117 C14.184744,10.581117 14.3624132,10.4075567 14.3624132,10.1937057 C14.3624132,9.97985461 14.184744,9.80629433 13.9658302,9.80629433 Z M13.9658302,11.3559397 C13.3086921,11.3559397 12.7760811,10.8356463 12.7760811,10.1937057 C12.7760811,9.55176507 13.3086921,9.03147163 13.9658302,9.03147163 C14.6229682,9.03147163 15.1555792,9.55176507 15.1555792,10.1937057 C15.1555792,10.8356463 14.6229682,11.3559397 13.9658302,11.3559397 Z M13.9658302,14.0678191 C13.7469164,14.0678191 13.5692472,14.2413794 13.5692472,14.4552305 C13.5692472,14.6690816 13.7469164,14.8426418 13.9658302,14.8426418 C14.184744,14.8426418 14.3624132,14.6690816 14.3624132,14.4552305 C14.3624132,14.2413794 14.184744,14.0678191 13.9658302,14.0678191 Z M13.9658302,15.6174645 C13.3086921,15.6174645 12.7760811,15.0971711 12.7760811,14.4552305 C12.7760811,13.8132899 13.3086921,13.2929965 13.9658302,13.2929965 C14.6229682,13.2929965 15.1555792,13.8132899 15.1555792,14.4552305 C15.1555792,15.0971711 14.6229682,15.6174645 13.9658302,15.6174645 Z M17.9316604,6.3195922 L2.06833965,6.3195922 L2.06833965,17.5545213 C2.06833965,17.9822234 2.42367803,18.329344 2.86150568,18.329344 L17.1384943,18.329344 C17.576322,18.329344 17.9316604,17.9822234 17.9316604,17.5545213 L17.9316604,6.3195922 Z M17.9316604,3.60771277 C17.9316604,3.18001064 17.576322,2.83289007 17.1384943,2.83289007 L15.1555792,2.83289007 C15.1555792,3.47483067 14.6229682,3.99512411 13.9658302,3.99512411 C13.3086921,3.99512411 12.7760811,3.47483067 12.7760811,2.83289007 L11.1897491,2.83289007 C11.1897491,3.47483067 10.6571381,3.99512411 10,3.99512411 C9.34286194,3.99512411 8.81025095,3.47483067 8.81025095,2.83289007 L7.22391888,2.83289007 C7.22391888,3.47483067 6.69130788,3.99512411 6.03416982,3.99512411 C5.37703176,3.99512411 4.84442077,3.47483067 4.84442077,2.83289007 L2.86150568,2.83289007 C2.42367803,2.83289007 2.06833965,3.18001064 2.06833965,3.60771277 L2.06833965,5.5447695 L17.9316604,5.5447695 L17.9316604,3.60771277 Z M14.3624132,2.05806738 C14.3624132,1.84421631 14.184744,1.67065603 13.9658302,1.67065603 C13.7469164,1.67065603 13.5692472,1.84421631 13.5692472,2.05806738 L13.5692472,2.83289007 C13.5692472,3.04674113 13.7469164,3.22030142 13.9658302,3.22030142 C14.184744,3.22030142 14.3624132,3.04674113 14.3624132,2.83289007 L14.3624132,2.05806738 Z M10.396583,2.05806738 C10.396583,1.84421631 10.2189138,1.67065603 10,1.67065603 C9.78108617,1.67065603 9.60341698,1.84421631 9.60341698,2.05806738 L9.60341698,2.83289007 C9.60341698,3.04674113 9.78108617,3.22030142 10,3.22030142 C10.2189138,3.22030142 10.396583,3.04674113 10.396583,2.83289007 L10.396583,2.05806738 Z M6.43075284,2.05806738 C6.43075284,1.84421631 6.25308365,1.67065603 6.03416982,1.67065603 C5.815256,1.67065603 5.63758681,1.84421631 5.63758681,2.05806738 L5.63758681,2.83289007 C5.63758681,3.04674113 5.815256,3.22030142 6.03416982,3.22030142 C6.25308365,3.22030142 6.43075284,3.04674113 6.43075284,2.83289007 L6.43075284,2.05806738 Z M17.1384943,19.1041667 L2.86150568,19.1041667 C1.9854538,19.1041667 1.27517361,18.4103129 1.27517361,17.5545213 L1.27517361,3.60771277 C1.27517361,2.7519211 1.9854538,2.05806738 2.86150568,2.05806738 L4.84442077,2.05806738 C4.84442077,1.41612677 5.37703176,0.895833333 6.03416982,0.895833333 C6.69130788,0.895833333 7.22391888,1.41612677 7.22391888,2.05806738 L8.81025095,2.05806738 C8.81025095,1.41612677 9.34286194,0.895833333 10,0.895833333 C10.6571381,0.895833333 11.1897491,1.41612677 11.1897491,2.05806738 L12.7760811,2.05806738 C12.7760811,1.41612677 13.3086921,0.895833333 13.9658302,0.895833333 C14.6229682,0.895833333 15.1555792,1.41612677 15.1555792,2.05806738 L17.1384943,2.05806738 C18.0145462,2.05806738 18.7248264,2.7519211 18.7248264,3.60771277 L18.7248264,17.5545213 C18.7248264,18.4103129 18.0145462,19.1041667 17.1384943,19.1041667 Z" id="Fill-11"></path>
        </g>
    </g>
</svg>