<?xml version="1.0" encoding="UTF-8"?>
<svg width="16px" height="16px" viewBox="0 0 16 16" version="1.1" xmlns="http://www.w3.org/2000/svg" xmlns:xlink="http://www.w3.org/1999/xlink">
    <!-- Generator: Sketch 58 (84663) - https://sketch.com -->
    <title>ic-Intake Migration@3x</title>
    <desc>Created with Sketch.</desc>
    <g id="ic-Intake-Migration" stroke="none" stroke-width="1" fill="none" fill-rule="evenodd">
        <g>
            <path d="M11,0 C11.5522847,-1.01453063e-16 12,0.44771525 12,1 L14,1 C14.5522847,1 15,1.44771525 15,2 L15,6 L14,6 L14,2 L2,2 L2,14 L6,14 L6,15 L2,15 C1.44771525,15 1,14.5522847 1,14 L1,2 C1,1.44771525 1.44771525,1 2,1 L4,1 C4,0.44771525 4.44771525,1.01453063e-16 5,0 L11,0 Z" id="Combined-Shape" fill="#677885"></path>
            <path d="M15,7 C15.5522847,7 16,7.44771525 16,8 L16,15 C16,15.5522847 15.5522847,16 15,16 L8,16 C7.44771525,16 7,15.5522847 7,15 L7,8 C7,7.44771525 7.44771525,7 8,7 L15,7 Z M15,8 L8,8 L8,15 L15,15 L15,8 Z" id="Combined-Shape" fill="#677885"></path>
            <polyline id="arrow-right" stroke="#677885" stroke-linecap="square" transform="translate(13.000000, 10.500000) scale(1, -1) translate(-13.000000, -10.500000) " points="12.5 9.5 13.5 10.5 12.5 11.5"></polyline>
            <polyline id="arrow-left" stroke="#677885" stroke-linecap="square" transform="translate(10.000000, 12.500000) scale(-1, -1) translate(-10.000000, -12.500000) " points="9.5 11.5 10.5 12.5 9.5 13.5"></polyline>
            <path d="M6,10 L6,11 L4,11 L4,10 L6,10 Z M6,8 L6,9 L4,9 L4,8 L6,8 Z M6,6 L6,7 L4,7 L4,6 L6,6 Z M11,4 L11,5 L4,5 L4,4 L11,4 Z" id="Combined-Shape" fill="#677885"></path>
            <rect id="Rectangle" fill="#D8D8D8" opacity="0" x="0" y="0" width="16" height="16"></rect>
        </g>
    </g>
</svg>