<?xml version="1.0" encoding="UTF-8"?>
<svg width="20px" height="20px" viewBox="0 0 20 20" version="1.1" xmlns="http://www.w3.org/2000/svg" xmlns:xlink="http://www.w3.org/1999/xlink">
    <!-- Generator: Sketch 51.3 (57544) - http://www.bohemiancoding.com/sketch -->
    <title>ic_Tasks_Notification</title>
    <desc>Created with Sketch.</desc>
    <defs></defs>
    <g id="ic_Tasks_Notification" stroke="none" stroke-width="1" fill="none" fill-rule="evenodd">
        <g id="ic_Tasks_Notification-Copy" fill="#677885">
            <path d="M5.82725694,7.34461806 L9.62065972,7.34461806 L9.62065972,6.5859375 L5.82725694,6.5859375 L5.82725694,7.34461806 Z M5.82725694,9.62065972 L9.62065972,9.62065972 L9.62065972,8.86197917 L5.82725694,8.86197917 L5.82725694,9.62065972 Z M5.82725694,11.8967014 L14.1727431,11.8967014 L14.1727431,11.1380208 L5.82725694,11.1380208 L5.82725694,11.8967014 Z M5.82725694,14.1727431 L14.1727431,14.1727431 L14.1727431,13.4140625 L5.82725694,13.4140625 L5.82725694,14.1727431 Z M16.0694444,6.5859375 L13.0347222,6.5859375 C12.1963802,6.5859375 11.5173611,5.90653906 11.5173611,5.06857639 L11.5173611,1.65451389 L4.68923611,1.65451389 C4.2700651,1.65451389 3.93055556,1.99402344 3.93055556,2.41319444 L3.93055556,17.5868056 C3.93055556,18.0059766 4.2700651,18.3454861 4.68923611,18.3454861 L15.3107639,18.3454861 C15.7295556,18.3454861 16.0694444,18.0059766 16.0694444,17.5868056 L16.0694444,6.5859375 Z M12.2760417,2.28497743 L12.2760417,5.06857639 C12.2760417,5.4877474 12.6155512,5.82725694 13.0347222,5.82725694 L15.5971658,5.82725694 L12.2760417,2.28497743 Z M15.3107639,19.1041667 L4.68923611,19.1041667 C3.8508941,19.1041667 3.171875,18.4247682 3.171875,17.5868056 L3.171875,2.41319444 C3.171875,1.57485243 3.8508941,0.895833333 4.68923611,0.895833333 L10.3793403,0.895833333 L10.581908,0.895833333 L10.9737665,0.895833333 L12.0344019,0.895833333 L16.7169783,5.93840365 L16.6938385,6.0726901 L16.828125,6.20659722 L16.828125,6.37540365 L16.828125,7.34461806 L16.828125,17.5868056 C16.828125,18.4247682 16.1487266,19.1041667 15.3107639,19.1041667 Z" id="Fill-9"></path>
        </g>
    </g>
</svg>