<?xml version="1.0" encoding="UTF-8"?>
<svg width="25px" height="25px" viewBox="0 0 25 25" version="1.1" xmlns="http://www.w3.org/2000/svg" xmlns:xlink="http://www.w3.org/1999/xlink">
    <!-- Generator: Sketch 54.1 (76490) - https://sketchapp.com -->
    <title>ic_Cellphone</title>
    <desc>Created with Sketch.</desc>
    <g id="Page-1" stroke="none" stroke-width="1" fill="none" fill-rule="evenodd">
        <g id="Cloudlex-Icons-Copy-2" transform="translate(-108.000000, -483.000000)" fill-rule="nonzero">
            <g id="ic_Cellphone" transform="translate(108.504710, 483.492112)">
                <path d="M14.9483536,4.99248929 L9.05164643,4.99248929 C8.48730714,4.99248929 8.03175,5.45008929 8.03175,6.01340714 L8.03175,17.9876143 C8.03175,18.5504214 8.48730714,19.0075107 9.05164643,19.0075107 L14.9483536,19.0075107 C15.5116714,19.0075107 15.96825,18.5504214 15.96825,17.9876143 L15.96825,6.01340714 C15.96825,5.45008929 15.5116714,4.99248929 14.9483536,4.99248929 Z M10.544975,5.61249643 L13.4560464,5.61249643 C13.5295893,5.61249643 13.5893429,5.7223 13.5893429,5.85815 C13.5893429,5.994 13.5295893,6.10431429 13.4560464,6.10431429 L10.544975,6.10431429 C10.4709214,6.10431429 10.4121893,5.994 10.4121893,5.85815 C10.4121893,5.7223 10.4709214,5.61249643 10.544975,5.61249643 Z M12.0005107,17.9998714 C11.6414786,17.9998714 11.34935,17.7077429 11.34935,17.3482 C11.34935,16.9886571 11.6414786,16.69755 12.0005107,16.69755 C12.3585214,16.69755 12.65065,16.9886571 12.65065,17.3482 C12.65065,17.7077429 12.3585214,17.9998714 12.0005107,17.9998714 Z M15.0014202,15.7685607 L9.00227356,15.7685607 L9.00227356,6.71512857 L15.0014202,6.71512857 L15.0014202,15.7685607 Z" id="Shape" fill="#000000"></path>
                <circle id="Oval-2" stroke="#6D6D6D" stroke-width="1" cx="12" cy="12" r="11.5"></circle>
            </g>
        </g>
    </g>
</svg>