<?xml version="1.0" encoding="UTF-8"?>
<svg width="24px" height="24px" viewBox="0 0 24 24" version="1.1" xmlns="http://www.w3.org/2000/svg" xmlns:xlink="http://www.w3.org/1999/xlink">
    <!-- Generator: Sketch 54.1 (76490) - https://sketchapp.com -->
    <title>ic_Send DocuSign</title>
    <desc>Created with Sketch.</desc>
    <g id="ic_Send-DocuSign" stroke="none" stroke-width="1" fill="none" fill-rule="evenodd">
        <g id="Docu-Send" transform="translate(3.375000, 0.500000)">
            <g id="Group">
                <path d="M16.2916667,7.1875 L12.4583333,7.1875 C11.399375,7.1875 10.5416667,6.3293125 10.5416667,5.27083333 L10.5416667,0.95833333 L1.91666667,0.95833333 C1.3871875,0.95833333 0.95833333,1.3871875 0.95833333,1.91666667 L0.95833333,21.0833333 C0.95833333,21.6128125 1.3871875,22.0416667 1.91666667,22.0416667 L15.3333333,22.0416667 C15.8623333,22.0416667 16.2916667,21.6128125 16.2916667,21.0833333 L16.2916667,7.1875 Z M11.5,1.75470833 L11.5,5.27083333 C11.5,5.8003125 11.9288542,6.22916667 12.4583333,6.22916667 L15.6951042,6.22916667 L11.5,1.75470833 Z M15.3333333,23 L1.91666667,23 C0.85770833,23 0,22.1418125 0,21.0833333 L0,1.91666667 C0,0.85770833 0.85770833,0 1.91666667,0 L9.1041667,0 L9.3600417,0 L9.8550208,0 L11.1947708,0 L17.1096042,6.3695625 L17.080375,6.5391875 L17.25,6.70833333 L17.25,6.9215625 L17.25,8.14583333 L17.25,21.0833333 C17.25,22.1418125 16.3918125,23 15.3333333,23 Z" id="Fill-9" fill="#677885" fill-rule="nonzero"></path>
                <g id="Group-3" transform="translate(8.625000, 13.993469) scale(-1, 1) rotate(90.000000) translate(-8.625000, -13.993469) translate(3.625000, 9.493469)" fill-rule="nonzero" stroke="#677885" stroke-linecap="round">
                    <polyline id="Path-25-Copy" stroke-linejoin="round" transform="translate(4.995272, 5.342152) rotate(-495.000000) translate(-4.995272, -5.342152) " points="7.49194056 2.88865281 2.49860344 2.84590425 2.54219309 7.83840027"></polyline>
                    <path d="M1.99062351,7.62615318 C1.99062351,7.62615318 3.99539753,5.62346793 8.00494555,1.61809743" id="Path-26-Copy" transform="translate(4.997785, 4.622125) rotate(-225.000000) translate(-4.997785, -4.622125) "></path>
                </g>
            </g>
        </g>
    </g>
</svg>