<svg xmlns="http://www.w3.org/2000/svg" width="179" height="123" viewBox="0 0 179 123">
    <g fill="none" fill-rule="evenodd">
        <g fill="#EEF3F5">
            <g transform="translate(147.5 100)">
                <circle cx="7.5" cy="15.5" r="7.5"/>
                <circle cx="25.5" cy="15" r="5"/>
                <circle cx="18.5" cy="3" r="3"/>
            </g>
            <g transform="matrix(-1 0 0 1 31 100)">
                <circle cx="7.5" cy="15.5" r="7.5"/>
                <circle cx="25.5" cy="15" r="5"/>
                <circle cx="18.5" cy="3" r="3"/>
            </g>
        </g>
        <g fill="#FFB64C">
            <path d="M153.5 26.062l-10.286 5.596 2.143-11.512-8.5-8.054 11.61-1.519L153.5 0l5.033 10.573 11.61 1.52-8.5 8.053 2.143 11.512zM162 61.36l-7.641 4.157 1.592-8.552-6.315-5.982 8.625-1.129L162 42l3.739 7.854 8.625 1.129-6.315 5.982 1.592 8.552zM153 91.893l-5.878 3.197 1.225-6.578-4.858-4.602 6.635-.868L153 77l2.876 6.042 6.635.868-4.858 4.602 1.225 6.578zM132 107.425l-4.114 2.238.857-4.605-3.4-3.221 4.644-.608L132 97l2.013 4.23 4.644.607-3.4 3.221.857 4.605zM112 112.957l-2.351 1.28.49-2.632-1.943-1.841 2.654-.347L112 107l1.15 2.417 2.654.347-1.943 1.84.49 2.632z"/>
            <g>
                <path d="M25.5 26.062l10.286 5.596-2.143-11.512 8.5-8.054-11.61-1.519L25.5 0l-5.033 10.573-11.61 1.52 8.5 8.053-2.143 11.512zM17 61.36l7.641 4.157-1.592-8.552 6.315-5.982-8.625-1.129L17 42l-3.739 7.854-8.625 1.129 6.315 5.982-1.592 8.552zM26 91.893l5.878 3.197-1.225-6.578 4.858-4.602-6.635-.868L26 77l-2.876 6.042-6.635.868 4.858 4.602-1.225 6.578zM47 107.425l4.114 2.238-.857-4.605 3.4-3.221-4.644-.608L47 97l-2.013 4.23-4.644.607 3.4 3.221-.857 4.605zM67 112.957l2.351 1.28-.49-2.632 1.943-1.841-2.654-.347L67 107l-1.15 2.417-2.654.347 1.943 1.84-.49 2.632z"/>
            </g>
        </g>
        <g fill="#83DE42" fill-rule="nonzero">
            <path d="M89 100c24.853 0 45-20.147 45-45s-20.147-45-45-45-45 20.147-45 45 20.147 45 45 45zm0-8c-20.435 0-37-16.565-37-37s16.565-37 37-37 37 16.565 37 37-16.565 37-37 37z"/>
            <path d="M75.828 51.65l-5.656 5.657L83.664 70.8l23.972-23.972-5.657-5.656-18.315 18.314z"/>
        </g>
    </g>
</svg>
