<?xml version="1.0" encoding="UTF-8"?>
<svg width="206px" height="206px" viewBox="0 0 206 206" version="1.1" xmlns="http://www.w3.org/2000/svg" xmlns:xlink="http://www.w3.org/1999/xlink">
    <!-- Generator: Sketch 51.3 (57544) - http://www.bohemiancoding.com/sketch -->
    <title>ic_EmailConnector Copy 2</title>
    <desc>Created with Sketch.</desc>
    <defs>
        <linearGradient x1="50%" y1="0%" x2="50%" y2="100%" id="linearGradient-1">
            <stop stop-color="#54C9E5" offset="0%"></stop>
            <stop stop-color="#2A98C7" offset="100%"></stop>
        </linearGradient>
        <linearGradient x1="50%" y1="-12.4944823%" x2="50%" y2="59.1227139%" id="linearGradient-2">
            <stop stop-color="#FFFFFF" stop-opacity="0.5" offset="0%"></stop>
            <stop stop-color="#000000" stop-opacity="0" offset="100%"></stop>
        </linearGradient>
        <linearGradient x1="50%" y1="65.1926828%" x2="50%" y2="97.5780631%" id="linearGradient-3">
            <stop stop-color="#000000" stop-opacity="0" offset="0%"></stop>
            <stop stop-color="#010507" offset="100%"></stop>
        </linearGradient>
        <rect id="path-4" x="0.40777773" y="0.5" width="179.998822" height="179.998822" rx="44.8329897"></rect>
        <polygon id="path-6" points="0 77.1969863 0 130.842189 140.834385 0.0774463995 79.1820607 0.0234394458"></polygon>
        <filter x="-11.7%" y="-8.0%" width="123.4%" height="125.2%" filterUnits="objectBoundingBox" id="filter-7">
            <feOffset dx="0" dy="6" in="SourceAlpha" result="shadowOffsetOuter1"></feOffset>
            <feGaussianBlur stdDeviation="4.5" in="shadowOffsetOuter1" result="shadowBlurOuter1"></feGaussianBlur>
            <feColorMatrix values="0 0 0 0 0   0 0 0 0 0   0 0 0 0 0  0 0 0 0.15 0" type="matrix" in="shadowBlurOuter1"></feColorMatrix>
        </filter>
    </defs>
    <g id="ic_EmailConnector-Copy-2" stroke="none" stroke-width="1" fill="none" fill-rule="evenodd">
        <g id="Group-26" transform="translate(25.600000, 25.500000)">
            <path d="M45.2650554,0.468811309 L135.262852,0.468811309 C160.115057,0.468811309 180.26175,20.6155043 180.26175,45.4677095 L180.26175,135.465506 C180.26175,160.317711 160.115057,180.464404 135.262852,180.464404 L45.2650554,180.464404 C20.4128502,180.464404 0.266157235,160.317711 0.266157235,135.465506 L0.266157235,45.4677095 C0.266157235,20.6155043 20.4128502,0.468811309 45.2650554,0.468811309 Z" id="Shape" fill="#2A98C7" fill-rule="nonzero"></path>
            <mask id="mask-5" fill="white">
                <use xlink:href="#path-4"></use>
            </mask>
            <g id="Mask" fill-rule="nonzero">
                <use fill="url(#linearGradient-1)" xlink:href="#path-4"></use>
                <use fill="url(#linearGradient-2)" xlink:href="#path-4"></use>
                <use fill="url(#linearGradient-3)" xlink:href="#path-4"></use>
            </g>
            <g id="Group" mask="url(#mask-5)" fill-rule="nonzero">
                <g transform="translate(18.895384, 34.308802)">
                    <polyline id="Shape" stroke="#D1CFCF" stroke-width="6.41" fill="#D1CFCF" stroke-linecap="round" stroke-linejoin="round" points="36.4480829 24.9072767 36.4480829 0.707910632 140.240822 0.707910632 140.240822 71.7411538 118.882413 71.7411538"></polyline>
                    <polyline id="Shape" stroke="#DDDDDD" stroke-width="6.38" fill="#DDDDDD" stroke-linecap="round" stroke-linejoin="round" points="116.786625 24.2086807 140.240822 0.707910632 36.4480829 0.707910632 59.4365493 23.6404893"></polyline>
                    <rect id="Rectangle-path" stroke="#D8D8D8" stroke-width="6.41" fill="#D8D8D8" stroke-linecap="round" stroke-linejoin="round" x="14.5959995" y="25.2891759" width="103.802054" height="71.0332432"></rect>
                    <polygon id="Shape" stroke="#E8E8E8" stroke-width="6.38" fill="#E8E8E8" stroke-linecap="round" stroke-linejoin="round" points="14.5959995 25.2891759 66.6088017 77.1995174 118.398053 25.2891759"></polygon>
                    <path d="M48.6874852,88.7589528 C48.6912529,98.5324599 42.8067338,107.345699 33.7782719,111.08847 C24.7498099,114.83124 14.3557292,112.766332 7.44348337,105.856751 C0.531237517,98.94717 -1.53767764,88.5538863 2.2016111,79.5239818 C5.94089985,70.4940774 14.7518698,64.6061605 24.5253776,64.6061598 C37.8661044,64.6061588 48.6823423,75.418227 48.6874852,88.7589528" id="Shape" stroke="none" fill="#F9C626"></path>
                    <polygon id="Shape" stroke="none" fill="#FFFFFF" points="28.5958637 83.3099039 37.7334996 84.6884667 31.0921801 91.1341793 32.6104622 100.28113 24.4508607 95.9312053 16.2633153 100.215928 17.8654289 91.0782916 11.279997 84.5673767 20.417633 83.2726454 24.5440068 74.9733247"></polygon>
                </g>
            </g>
        </g>
        <g id="Path-2-Copy">
            <use fill="black" fill-opacity="1" filter="url(#filter-7)" xlink:href="#path-6"></use>
            <use fill="#14B468" fill-rule="evenodd" xlink:href="#path-6"></use>
        </g>
        <path d="M7.72999225,60.4579772 L7.72999225,48.6979772 C7.72999225,48.0179772 8.26999225,47.4779772 8.96999225,47.4779772 C9.64999225,47.4779772 10.1899923,48.0179772 10.1899923,48.6979772 L10.1899923,60.4579772 C10.1899923,61.1379772 9.64999225,61.6779772 8.96999225,61.6779772 C8.26999225,61.6779772 7.72999225,61.1379772 7.72999225,60.4579772 Z M11.9299923,60.4779772 L11.9299923,48.7379772 C11.9299923,48.0579772 12.4699923,47.4979772 13.1699923,47.4979772 L13.4299923,47.4979772 C14.0299923,47.4979772 14.3699923,47.7979772 14.7099923,48.2179772 L21.7099923,57.2779772 L21.7099923,48.6779772 C21.7099923,48.0179772 22.2499923,47.4779772 22.9099923,47.4779772 C23.5899923,47.4779772 24.1299923,48.0179772 24.1299923,48.6779772 L24.1299923,60.4379772 C24.1299923,61.1179772 23.6099923,61.6579772 22.9299923,61.6579772 L22.8299923,61.6579772 C22.2499923,61.6579772 21.8899923,61.3579772 21.5499923,60.9179772 L14.3499923,51.5979772 L14.3499923,60.4779772 C14.3499923,61.1379772 13.8099923,61.6779772 13.1499923,61.6779772 C12.4699923,61.6779772 11.9299923,61.1379772 11.9299923,60.4779772 Z M32.2299923,61.8179772 C28.1499923,61.8179772 25.1099923,58.6379772 25.1099923,54.6179772 L25.1099923,54.5779772 C25.1099923,50.5979772 28.0899923,47.3379772 32.3299923,47.3379772 C34.4899923,47.3379772 35.9099923,47.9779772 37.1299923,48.9179772 C37.3899923,49.1179772 37.6099923,49.4579772 37.6099923,49.8979772 C37.6099923,50.5779772 37.0699923,51.0979772 36.3899923,51.0979772 C36.0499923,51.0979772 35.8099923,50.9779772 35.6499923,50.8579772 C34.6899923,50.0779772 33.6499923,49.5979772 32.3099923,49.5979772 C29.6499923,49.5979772 27.6899923,51.7979772 27.6899923,54.5379772 L27.6899923,54.5779772 C27.6899923,57.3179772 29.6299923,59.5379772 32.3099923,59.5379772 C33.7899923,59.5379772 34.7899923,59.0579772 35.8099923,58.1979772 C35.9899923,58.0379772 36.2499923,57.9179772 36.5499923,57.9179772 C37.1699923,57.9179772 37.7099923,58.4379772 37.7099923,59.0579772 C37.7099923,59.4379772 37.5299923,59.7379772 37.3099923,59.9379772 C35.9899923,61.0979772 34.4899923,61.8179772 32.2299923,61.8179772 Z M38.4899923,60.3379772 L38.4899923,48.6979772 C38.4899923,48.0179772 39.0299923,47.4779772 39.7299923,47.4779772 C40.4099923,47.4779772 40.9499923,48.0179772 40.9499923,48.6979772 L40.9499923,59.3379772 L47.2899923,59.3379772 C47.9099923,59.3379772 48.4099923,59.8379772 48.4099923,60.4579772 C48.4099923,61.0779772 47.9099923,61.5779772 47.2899923,61.5779772 L39.7299923,61.5779772 C39.0299923,61.5779772 38.4899923,61.0379772 38.4899923,60.3379772 Z M54.2099923,61.7979772 C50.5699923,61.7979772 48.2499923,59.6979772 48.2499923,55.6379772 L48.2499923,48.6979772 C48.2499923,48.0179772 48.7899923,47.4779772 49.4899923,47.4779772 C50.1699923,47.4779772 50.7099923,48.0179772 50.7099923,48.6979772 L50.7099923,55.5379772 C50.7099923,58.1379772 52.0499923,59.5179772 54.2499923,59.5179772 C56.4299923,59.5179772 57.7699923,58.2179772 57.7699923,55.6379772 L57.7699923,48.6979772 C57.7699923,48.0179772 58.3099923,47.4779772 59.0099923,47.4779772 C59.6899923,47.4779772 60.2299923,48.0179772 60.2299923,48.6979772 L60.2299923,55.5179772 C60.2299923,59.6979772 57.8699923,61.7979772 54.2099923,61.7979772 Z M61.6099923,60.3379772 L61.6099923,48.8179772 C61.6099923,48.1179772 62.1499923,47.5779772 62.8499923,47.5779772 L66.8299923,47.5779772 C71.2299923,47.5779772 74.2699923,50.5979772 74.2699923,54.5379772 L74.2699923,54.5779772 C74.2699923,58.5179772 71.2299923,61.5779772 66.8299923,61.5779772 L62.8499923,61.5779772 C62.1499923,61.5779772 61.6099923,61.0379772 61.6099923,60.3379772 Z M64.0699923,59.3379772 L66.8299923,59.3379772 C69.7699923,59.3379772 71.6899923,57.3579772 71.6899923,54.6179772 L71.6899923,54.5779772 C71.6899923,51.8379772 69.7699923,49.8179772 66.8299923,49.8179772 L64.0699923,49.8179772 L64.0699923,59.3379772 Z M76.4899923,61.5779772 C75.7899923,61.5779772 75.2499923,61.0379772 75.2499923,60.3379772 L75.2499923,48.8179772 C75.2499923,48.1179772 75.7899923,47.5779772 76.4899923,47.5779772 L84.6299923,47.5779772 C85.2299923,47.5779772 85.7299923,48.0779772 85.7299923,48.6779772 C85.7299923,49.2979772 85.2299923,49.7779772 84.6299923,49.7779772 L77.7099923,49.7779772 L77.7099923,53.4179772 L83.7299923,53.4179772 C84.3299923,53.4179772 84.8299923,53.9179772 84.8299923,54.5379772 C84.8299923,55.1379772 84.3299923,55.6179772 83.7299923,55.6179772 L77.7099923,55.6179772 L77.7099923,59.3779772 L84.7299923,59.3779772 C85.3299923,59.3779772 85.8299923,59.8779772 85.8299923,60.4779772 C85.8299923,61.0979772 85.3299923,61.5779772 84.7299923,61.5779772 L76.4899923,61.5779772 Z M86.6499923,60.3379772 L86.6499923,48.8179772 C86.6499923,48.1179772 87.1899923,47.5779772 87.8899923,47.5779772 L91.8699923,47.5779772 C96.2699923,47.5779772 99.3099923,50.5979772 99.3099923,54.5379772 L99.3099923,54.5779772 C99.3099923,58.5179772 96.2699923,61.5779772 91.8699923,61.5779772 L87.8899923,61.5779772 C87.1899923,61.5779772 86.6499923,61.0379772 86.6499923,60.3379772 Z M89.1099923,59.3379772 L91.8699923,59.3379772 C94.8099923,59.3379772 96.7299923,57.3579772 96.7299923,54.6179772 L96.7299923,54.5779772 C96.7299923,51.8379772 94.8099923,49.8179772 91.8699923,49.8179772 L89.1099923,49.8179772 L89.1099923,59.3379772 Z" id="INCLUDED" fill="#FFFFFF" transform="translate(53.519992, 54.577977) rotate(-43.000000) translate(-53.519992, -54.577977) "></path>
    </g>
</svg>