<?xml version="1.0" encoding="UTF-8"?>
<svg width="180px" height="180px" viewBox="0 0 180 180" version="1.1" xmlns="http://www.w3.org/2000/svg" xmlns:xlink="http://www.w3.org/1999/xlink">
    <!-- Generator: Sketch 51.3 (57544) - http://www.bohemiancoding.com/sketch -->
    <title>ic_LeadGenerator_w/oLabel</title>
    <desc>Created with Sketch.</desc>
    <defs>
        <rect id="path-1" x="0.406849315" y="0" width="179.173973" height="179.173973" rx="44.790411"></rect>
        <linearGradient x1="50%" y1="0%" x2="50%" y2="100%" id="linearGradient-3">
            <stop stop-color="#FFFFFF" offset="0%"></stop>
            <stop stop-color="#2A98C7" stop-opacity="0" offset="100%"></stop>
        </linearGradient>
        <rect id="path-4" x="0.406849315" y="0" width="179.173973" height="179.173973" rx="44.790411"></rect>
        <linearGradient x1="50%" y1="25.9695965%" x2="50%" y2="91.8069328%" id="linearGradient-6">
            <stop stop-color="#2A98C7" stop-opacity="0" offset="0%"></stop>
            <stop stop-color="#030B0E" offset="100%"></stop>
        </linearGradient>
        <rect id="path-7" x="0.406849315" y="0" width="179.173973" height="179.173973" rx="44.790411"></rect>
    </defs>
    <g id="ic_LeadGenerator_w/oLabel" stroke="none" stroke-width="1" fill="none" fill-rule="evenodd">
        <g id="Cloudlex_Lead-Connector_Icon">
            <g id="Group">
                <mask id="mask-2" fill="white">
                    <use xlink:href="#path-1"></use>
                </mask>
                <use id="Mask" fill="#2A98C7" fill-rule="nonzero" xlink:href="#path-1"></use>
                <mask id="mask-5" fill="white">
                    <use xlink:href="#path-4"></use>
                </mask>
                <use id="Mask" fill="url(#linearGradient-3)" fill-rule="nonzero" opacity="0.5" xlink:href="#path-4"></use>
                <mask id="mask-8" fill="white">
                    <use xlink:href="#path-7"></use>
                </mask>
                <use id="Mask-Copy" fill="url(#linearGradient-6)" fill-rule="nonzero" xlink:href="#path-7"></use>
            </g>
            <path d="M97.2616438,39.5876712 C99.5671233,40.1178082 101.921918,40.4630137 104.153425,41.190411 C117.30411,45.5136986 125.424658,54.4643836 128.515068,68.0424658 C128.597686,68.9293993 129.238133,69.6641763 130.105479,69.8671233 C144.70176,74.5636883 153.753533,89.1352177 151.49589,104.30137 C149.350685,117.764384 140.165753,127.553425 126.838356,130.40137 C125.217083,130.745518 123.564247,130.919066 121.906849,130.919178 C100.158904,130.919178 78.4109589,130.919178 56.6630137,130.919178 C44.9630137,130.919178 36.7520548,125.173973 31.660274,115.052055 C25.7054795,103.154795 28.7260274,90.0616438 39.0328767,81.6041096 C39.7285845,81.0543783 40.0171213,80.1349729 39.760274,79.2863014 C38.2758238,69.3532784 44.743739,59.9694113 54.5547945,57.8219178 C56.8280878,57.4500081 59.1380575,57.3547943 61.4342466,57.5383562 C62.2923749,57.6962757 63.1568596,57.2961428 63.5917808,56.539726 C68.1198121,49.0661008 75.2934852,43.5692189 83.6876712,41.1410959 C86.1534247,40.4013699 88.7547945,40.0931507 91.2821918,39.5876712 L97.2616438,39.5876712 Z" id="Shape" stroke="#FFFFFF" stroke-width="1.6890411" fill="#FFFFFF"></path>
            <polyline id="Shape" fill="#FFAA00" fill-rule="nonzero" points="125.309589 110.761644 135.172603 120.550685 103.315068 109.664384"></polyline>
            <path d="M83.9958904,101.552055 C83.9958904,110.589041 94.7589041,117.924658 108.049315,117.924658 C121.339726,117.924658 132.115068,110.527397 132.115068,101.552055 C132.115068,92.5767123 121.339726,85.1917808 108.049315,85.1917808 C94.7589041,85.1917808 83.9958904,92.5150685 83.9958904,101.552055 Z" id="Shape" fill="#FFAA00"></path>
            <circle id="Oval" fill="#FFFFFF" fill-rule="nonzero" cx="115.730137" cy="101.564384" r="2.20684932"></circle>
            <path d="M105.645205,101.564384 C105.640213,102.458076 106.174717,103.266549 106.998952,103.612015 C107.823188,103.957482 108.774408,103.771728 109.408121,103.141555 C110.041835,102.511382 110.232914,101.561218 109.892071,100.73506 C109.551227,99.9089023 108.745761,99.369877 107.852055,99.369863 C106.638044,99.3698441 105.651988,100.350392 105.645205,101.564384 Z" id="Shape" fill="#FFFFFF"></path>
            <path d="M97.7671233,101.564384 C97.7621305,102.458076 98.296635,103.266549 99.1208702,103.612015 C99.9451055,103.957482 100.896326,103.771728 101.530039,103.141555 C102.163752,102.511382 102.354832,101.561218 102.013988,100.73506 C101.673145,99.9089023 100.867679,99.369877 99.9739726,99.369863 C98.7599619,99.3698441 97.7739055,100.350392 97.7671233,101.564384 Z" id="Shape" fill="#FFFFFF"></path>
            <path d="M62.5191781,95.7575342 C61.9890411,95.2890411 61.4835616,94.869863 61.0027397,94.4136986 C53.9876712,87.8424658 54.1479452,78.9164384 61.4589041,72.5547945 C65.8121624,68.8754278 71.1318666,66.5258561 76.7835616,65.7863014 C85.5493151,64.430137 93.9575342,65.4287671 101.749315,69.9287671 C106.015068,72.3945205 109.257534,75.7479452 110.527397,80.6671233 C110.772404,81.8887752 110.945305,83.1237867 111.045205,84.3657534 C106.379764,83.8028153 101.648601,84.1928846 97.1383562,85.5123288 C89.469863,87.9780822 83.9342466,92.5273973 81.9369863,100.639726 C81.690411,101.626027 81.209589,101.872603 80.2356164,101.79863 C76.1361139,101.669536 72.1003086,100.748501 68.3506849,99.0863014" id="Shape" fill="#FFAA00"></path>
            <polyline id="Shape" fill="#FFAA00" fill-rule="nonzero" points="62.4452055 94.7219178 54.4438356 102.661644 80.2726027 93.8342466"></polyline>
            <path d="M90,84.969863 C90,86.1886722 90.9880401,87.1767123 92.2068493,87.1767123 C93.4256585,87.1767123 94.4136986,86.1886722 94.4136986,84.969863 C94.4136986,83.7510538 93.4256585,82.7630137 92.2068493,82.7630137 C90.9880401,82.7630137 90,83.7510538 90,84.969863 Z" id="Shape" fill="#FFFFFF"></path>
            <path d="M82.1712329,84.969863 C82.1712329,86.1886722 83.159273,87.1767123 84.3780822,87.1767123 C85.5968914,87.1767123 86.5849315,86.1886722 86.5849315,84.969863 C86.5849315,83.7510538 85.5968914,82.7630137 84.3780822,82.7630137 C83.159273,82.7630137 82.1712329,83.7510538 82.1712329,84.969863 Z" id="Shape" fill="#FFFFFF"></path>
            <path d="M74.2931507,84.969863 C74.2935011,85.8679851 74.838098,86.6763067 75.6703337,87.0139562 C76.5025694,87.3516057 77.4564121,87.1512216 78.0824223,86.5072226 C78.7084325,85.8632237 78.8817205,84.9040882 78.5206352,84.0817496 C78.1595498,83.259411 77.3361279,82.7379266 76.4383562,82.7630137 C75.2408484,82.7899101 74.2861194,83.7720739 74.2931507,84.969863 Z" id="Shape" fill="#FFFFFF"></path>
        </g>
    </g>
</svg>