<?xml version="1.0" encoding="UTF-8"?>
<svg width="206px" height="206px" viewBox="0 0 206 206" version="1.1" xmlns="http://www.w3.org/2000/svg" xmlns:xlink="http://www.w3.org/1999/xlink">
    <!-- Generator: Sketch 51.3 (57544) - http://www.bohemiancoding.com/sketch -->
    <title>ic_MSOfficeOnline Copy 2</title>
    <desc>Created with Sketch.</desc>
    <defs>
        <polygon id="path-1" points="0 77.1969863 0 130.842189 140.834385 0.0774463995 79.1820607 0.0234394458"></polygon>
        <filter x="-11.7%" y="-8.0%" width="123.4%" height="125.2%" filterUnits="objectBoundingBox" id="filter-2">
            <feOffset dx="0" dy="6" in="SourceAlpha" result="shadowOffsetOuter1"></feOffset>
            <feGaussianBlur stdDeviation="4.5" in="shadowOffsetOuter1" result="shadowBlurOuter1"></feGaussianBlur>
            <feColorMatrix values="0 0 0 0 0   0 0 0 0 0   0 0 0 0 0  0 0 0 0.15 0" type="matrix" in="shadowBlurOuter1"></feColorMatrix>
        </filter>
    </defs>
    <g id="ic_MSOfficeOnline-Copy-2" stroke="none" stroke-width="1" fill="none" fill-rule="evenodd">
        <g id="Microsoft-Office-Online" transform="translate(26.000000, 25.900000)" fill-rule="nonzero">
            <path d="M45.0053763,178.206397 C21.1545247,178.175628 1.82726047,158.848364 1.79649175,134.997512 L1.79649175,45.0053763 C1.82726047,21.1545247 21.1545247,1.82726047 45.0053763,1.79649175 L134.997512,1.79649175 C158.848364,1.82726047 178.175628,21.1545247 178.206397,45.0053763 L178.206397,134.997512 C178.175628,158.848364 158.848364,178.175628 134.997512,178.206397 L45.0053763,178.206397 Z" id="Shape" fill="#FFFFFF"></path>
            <path d="M134.997512,3.60229175 C157.853172,3.62794059 176.374948,22.1497166 176.400597,45.0053763 L176.400597,134.997512 C176.369832,157.851049 157.851049,176.369832 134.997512,176.400597 L45.0053763,176.400597 C22.1518397,176.369832 3.63305716,157.851049 3.60229175,134.997512 L3.60229175,45.0053763 C3.62794059,22.1497166 22.1497166,3.62794059 45.0053763,3.60229175 L134.997512,3.60229175 Z M134.997512,-2.11758237e-22 L45.0053763,-2.11758237e-22 C33.0684514,-0.00246962351 21.6197229,4.73836155 13.1790422,13.1790422 C4.73836155,21.6197229 -0.00246962351,33.0684514 -1.32278156e-14,45.0053763 L-1.32278156e-14,134.997512 C-0.00246962351,146.934437 4.73836155,158.383166 13.1790422,166.823846 C21.6197229,175.264527 33.0684514,180.005358 45.0053763,180.002889 L134.997512,180.002889 C146.934437,180.005358 158.383166,175.264527 166.823846,166.823846 C175.264527,158.383166 180.005358,146.934437 180.002889,134.997512 L180.002889,45.0053763 C180.005358,33.0684514 175.264527,21.6197229 166.823846,13.1790422 C158.383166,4.73836155 146.934437,-0.00246962351 134.997512,-1.32278156e-14 Z" id="Shape" fill="#E7E6E7"></path>
            <polygon id="Shape" fill="#E54125" points="103.163306 34.9710856 44.0838598 57.8135247 44.0838598 123.836924 44.1210928 123.85554 65.2508144 115.022013 65.2508144 63.0168351 103.51702 54.1646918 103.51702 131.618619 44.1862505 123.874157 103.163306 145.031803 135.919029 134.439018 135.919029 46.0292835"></polygon>
        </g>
        <g id="Path-2-Copy">
            <use fill="black" fill-opacity="1" filter="url(#filter-2)" xlink:href="#path-1"></use>
            <use fill="#14B468" fill-rule="evenodd" xlink:href="#path-1"></use>
        </g>
        <path d="M7.72999225,60.4579772 L7.72999225,48.6979772 C7.72999225,48.0179772 8.26999225,47.4779772 8.96999225,47.4779772 C9.64999225,47.4779772 10.1899923,48.0179772 10.1899923,48.6979772 L10.1899923,60.4579772 C10.1899923,61.1379772 9.64999225,61.6779772 8.96999225,61.6779772 C8.26999225,61.6779772 7.72999225,61.1379772 7.72999225,60.4579772 Z M11.9299923,60.4779772 L11.9299923,48.7379772 C11.9299923,48.0579772 12.4699923,47.4979772 13.1699923,47.4979772 L13.4299923,47.4979772 C14.0299923,47.4979772 14.3699923,47.7979772 14.7099923,48.2179772 L21.7099923,57.2779772 L21.7099923,48.6779772 C21.7099923,48.0179772 22.2499923,47.4779772 22.9099923,47.4779772 C23.5899923,47.4779772 24.1299923,48.0179772 24.1299923,48.6779772 L24.1299923,60.4379772 C24.1299923,61.1179772 23.6099923,61.6579772 22.9299923,61.6579772 L22.8299923,61.6579772 C22.2499923,61.6579772 21.8899923,61.3579772 21.5499923,60.9179772 L14.3499923,51.5979772 L14.3499923,60.4779772 C14.3499923,61.1379772 13.8099923,61.6779772 13.1499923,61.6779772 C12.4699923,61.6779772 11.9299923,61.1379772 11.9299923,60.4779772 Z M32.2299923,61.8179772 C28.1499923,61.8179772 25.1099923,58.6379772 25.1099923,54.6179772 L25.1099923,54.5779772 C25.1099923,50.5979772 28.0899923,47.3379772 32.3299923,47.3379772 C34.4899923,47.3379772 35.9099923,47.9779772 37.1299923,48.9179772 C37.3899923,49.1179772 37.6099923,49.4579772 37.6099923,49.8979772 C37.6099923,50.5779772 37.0699923,51.0979772 36.3899923,51.0979772 C36.0499923,51.0979772 35.8099923,50.9779772 35.6499923,50.8579772 C34.6899923,50.0779772 33.6499923,49.5979772 32.3099923,49.5979772 C29.6499923,49.5979772 27.6899923,51.7979772 27.6899923,54.5379772 L27.6899923,54.5779772 C27.6899923,57.3179772 29.6299923,59.5379772 32.3099923,59.5379772 C33.7899923,59.5379772 34.7899923,59.0579772 35.8099923,58.1979772 C35.9899923,58.0379772 36.2499923,57.9179772 36.5499923,57.9179772 C37.1699923,57.9179772 37.7099923,58.4379772 37.7099923,59.0579772 C37.7099923,59.4379772 37.5299923,59.7379772 37.3099923,59.9379772 C35.9899923,61.0979772 34.4899923,61.8179772 32.2299923,61.8179772 Z M38.4899923,60.3379772 L38.4899923,48.6979772 C38.4899923,48.0179772 39.0299923,47.4779772 39.7299923,47.4779772 C40.4099923,47.4779772 40.9499923,48.0179772 40.9499923,48.6979772 L40.9499923,59.3379772 L47.2899923,59.3379772 C47.9099923,59.3379772 48.4099923,59.8379772 48.4099923,60.4579772 C48.4099923,61.0779772 47.9099923,61.5779772 47.2899923,61.5779772 L39.7299923,61.5779772 C39.0299923,61.5779772 38.4899923,61.0379772 38.4899923,60.3379772 Z M54.2099923,61.7979772 C50.5699923,61.7979772 48.2499923,59.6979772 48.2499923,55.6379772 L48.2499923,48.6979772 C48.2499923,48.0179772 48.7899923,47.4779772 49.4899923,47.4779772 C50.1699923,47.4779772 50.7099923,48.0179772 50.7099923,48.6979772 L50.7099923,55.5379772 C50.7099923,58.1379772 52.0499923,59.5179772 54.2499923,59.5179772 C56.4299923,59.5179772 57.7699923,58.2179772 57.7699923,55.6379772 L57.7699923,48.6979772 C57.7699923,48.0179772 58.3099923,47.4779772 59.0099923,47.4779772 C59.6899923,47.4779772 60.2299923,48.0179772 60.2299923,48.6979772 L60.2299923,55.5179772 C60.2299923,59.6979772 57.8699923,61.7979772 54.2099923,61.7979772 Z M61.6099923,60.3379772 L61.6099923,48.8179772 C61.6099923,48.1179772 62.1499923,47.5779772 62.8499923,47.5779772 L66.8299923,47.5779772 C71.2299923,47.5779772 74.2699923,50.5979772 74.2699923,54.5379772 L74.2699923,54.5779772 C74.2699923,58.5179772 71.2299923,61.5779772 66.8299923,61.5779772 L62.8499923,61.5779772 C62.1499923,61.5779772 61.6099923,61.0379772 61.6099923,60.3379772 Z M64.0699923,59.3379772 L66.8299923,59.3379772 C69.7699923,59.3379772 71.6899923,57.3579772 71.6899923,54.6179772 L71.6899923,54.5779772 C71.6899923,51.8379772 69.7699923,49.8179772 66.8299923,49.8179772 L64.0699923,49.8179772 L64.0699923,59.3379772 Z M76.4899923,61.5779772 C75.7899923,61.5779772 75.2499923,61.0379772 75.2499923,60.3379772 L75.2499923,48.8179772 C75.2499923,48.1179772 75.7899923,47.5779772 76.4899923,47.5779772 L84.6299923,47.5779772 C85.2299923,47.5779772 85.7299923,48.0779772 85.7299923,48.6779772 C85.7299923,49.2979772 85.2299923,49.7779772 84.6299923,49.7779772 L77.7099923,49.7779772 L77.7099923,53.4179772 L83.7299923,53.4179772 C84.3299923,53.4179772 84.8299923,53.9179772 84.8299923,54.5379772 C84.8299923,55.1379772 84.3299923,55.6179772 83.7299923,55.6179772 L77.7099923,55.6179772 L77.7099923,59.3779772 L84.7299923,59.3779772 C85.3299923,59.3779772 85.8299923,59.8779772 85.8299923,60.4779772 C85.8299923,61.0979772 85.3299923,61.5779772 84.7299923,61.5779772 L76.4899923,61.5779772 Z M86.6499923,60.3379772 L86.6499923,48.8179772 C86.6499923,48.1179772 87.1899923,47.5779772 87.8899923,47.5779772 L91.8699923,47.5779772 C96.2699923,47.5779772 99.3099923,50.5979772 99.3099923,54.5379772 L99.3099923,54.5779772 C99.3099923,58.5179772 96.2699923,61.5779772 91.8699923,61.5779772 L87.8899923,61.5779772 C87.1899923,61.5779772 86.6499923,61.0379772 86.6499923,60.3379772 Z M89.1099923,59.3379772 L91.8699923,59.3379772 C94.8099923,59.3379772 96.7299923,57.3579772 96.7299923,54.6179772 L96.7299923,54.5779772 C96.7299923,51.8379772 94.8099923,49.8179772 91.8699923,49.8179772 L89.1099923,49.8179772 L89.1099923,59.3379772 Z" id="INCLUDED" fill="#FFFFFF" transform="translate(53.519992, 54.577977) rotate(-43.000000) translate(-53.519992, -54.577977) "></path>
    </g>
</svg>