<?xml version="1.0" encoding="UTF-8"?>
<svg width="534px" height="532px" viewBox="0 0 534 532" version="1.1" xmlns="http://www.w3.org/2000/svg" xmlns:xlink="http://www.w3.org/1999/xlink">
    <!-- Generator: Sketch 51.3 (57544) - http://www.bohemiancoding.com/sketch -->
    <title>ic_CLX</title>
    <desc>Created with Sketch.</desc>
    <defs>
        <circle id="path-1" cx="266.578209" cy="266" r="266"></circle>
    </defs>
    <g id="ic_CLX" stroke="none" stroke-width="1" fill="none" fill-rule="evenodd">
        <g>
            <g id="Slide-4" transform="translate(0.500000, 0.000000)">
                <mask id="mask-2" fill="white">
                    <use xlink:href="#path-1"></use>
                </mask>
                <use id="Mask" fill="#4E99BF" fill-rule="nonzero" xlink:href="#path-1"></use>
            </g>
            <g id="Group-3" transform="translate(117.000000, 120.000000)" fill="#FFFFFF">
                <g id="Cloudlex-text-logo" transform="translate(0.397389, 228.909996)">
                    <path d="M98.2249574,39.1449481 C98.2249574,47.7613568 92.0575189,54.7750388 84.482151,54.7750388 C76.9377754,54.7750388 70.8079701,47.7613568 70.8079701,39.1449481 C70.8079701,30.332287 76.9377754,23.1573978 84.482151,23.1573978 C92.0575189,23.1573978 98.2249574,30.332287 98.2249574,39.1449481 M84.482151,15.1040462 C72.2955935,15.1040462 62.743369,25.6619505 62.743369,39.1449481 C62.743369,52.4854291 72.2955935,62.9335256 84.482151,62.9335256 C96.6509988,62.9335256 106.181086,52.4854291 106.181086,39.1449481 C106.181086,25.6619505 96.6509988,15.1040462 84.482151,15.1040462" id="Fill-21"></path>
                    <path d="M143.261017,15.1040462 C141.084087,15.1040462 139.31865,16.9142604 139.31865,19.1423911 L139.31865,41.8370722 C139.31865,48.2102983 135.22142,52.4939421 129.102123,52.4939421 C122.998312,52.4939421 118.890021,48.2102983 118.890021,41.8370722 L118.890021,19.1423911 C118.890021,16.9142604 117.131221,15.1040462 114.952078,15.1040462 C112.766299,15.1040462 111.007499,16.9142604 111.007499,19.1423911 L111.007499,41.8370722 C111.007499,52.605235 118.611268,60.4161846 129.102123,60.4161846 C139.595191,60.4161846 147.205597,52.605235 147.205597,41.8370722 L147.205597,19.1423911 C147.205597,16.9142604 145.43131,15.1040462 143.261017,15.1040462" id="Fill-23"></path>
                    <path d="M173.791912,52.7035293 C166.066792,52.7035293 160.012267,45.7037697 160.012267,36.7706553 C160.012267,27.9136754 166.066792,20.9785148 173.791912,20.9785148 C181.397228,20.9785148 187.582649,28.0636373 187.582649,36.7706553 C187.582649,45.5491936 181.397228,52.7035293 173.791912,52.7035293 M191.598292,0 C189.479541,0 187.746825,1.79723557 187.746825,4.01897864 L187.746825,19.8065049 C184.090593,15.6421786 179.025559,13.2797021 173.627736,13.2797021 C161.516469,13.2797021 152.03201,23.6040014 152.03201,36.7706553 C152.03201,50.0272863 161.587464,60.4161846 173.791912,60.4161846 C185.951988,60.4161846 195.469727,50.0272863 195.469727,36.7706553 L195.469727,4.01897864 C195.469727,1.79723557 193.743666,0 191.598292,0" id="Fill-25"></path>
                    <path d="M21.7935121,62.9335256 C9.57008895,62.9335256 0,52.4793012 0,39.1169696 C0,25.658792 9.57008895,15.1040462 21.7935121,15.1040462 C29.5439828,15.1040462 36.5158775,19.393738 40.4440473,26.5728353 C41.5181734,28.5388467 40.8917836,31.0518814 39.0368758,32.19502 C37.1863793,33.3288077 34.8109504,32.6625613 33.7456467,30.6942123 C31.2136204,26.0842546 26.7583128,23.3280984 21.7935121,23.3280984 C13.9261446,23.3280984 7.75047074,30.2593988 7.75047074,39.1169696 C7.75047074,47.8670058 13.9261446,54.7234996 21.7935121,54.7234996 C26.7891911,54.7234996 31.2775827,51.9579926 33.798581,47.3597235 C34.8616792,45.3796859 37.2415192,44.7111018 39.0876046,45.8425518 C40.9381012,46.9880281 41.5777245,49.4940497 40.5013928,51.4600611 C36.5864567,58.6485092 29.5903004,62.9335256 21.7935121,62.9335256" id="Fill-27"></path>
                    <path d="M54.1362306,60.4161846 C53.1139895,60.4161846 52.0938959,59.9805907 51.3443956,59.090965 C45.8509235,52.5962367 45.8509235,48.3970192 45.8509235,44.3429996 L45.8509235,4.04480064 C45.8509235,1.81382228 47.5453526,0 49.6177531,0 C51.7116293,0 53.3974681,1.81382228 53.3974681,4.04480064 L53.3974681,44.3429996 C53.3974681,47.6456773 53.3974681,49.4618043 56.9366558,53.6448887 C58.3411635,55.2973799 58.2187523,57.8579346 56.6832431,59.3652279 C55.9638087,60.0727799 55.0489459,60.4161846 54.1362306,60.4161846" id="Fill-29"></path>
                    <path d="M212.676809,44.3436127 L212.676809,4.04695099 C212.676809,1.81375309 210.988539,0 208.902903,0 C206.815118,0 205.122553,1.81375309 205.122553,4.04695099 L205.122553,44.3436127 C205.122553,48.3974777 205.122553,52.596535 210.623392,59.0887109 C211.377314,59.9783027 212.388987,60.4161846 213.419992,60.4161846 C214.330713,60.4161846 215.241434,60.0704883 215.954545,59.365268 C217.494608,57.8557276 217.608448,55.2975752 216.210148,53.645147 C212.676809,49.4622222 212.676809,47.6461644 212.676809,44.3436127" id="Fill-31"></path>
                    <path d="M296.021949,56.3012732 L267.524353,16.7115759 C266.226222,14.9100209 263.805086,14.5656404 262.126053,15.9689323 C260.442641,17.3511396 260.127412,19.930479 261.429922,21.7437476 L273.868341,39.0236818 L261.429922,56.3012732 C260.127412,58.1121991 260.442641,60.6845103 262.126053,62.0737458 C262.828751,62.6570842 263.656228,62.9335256 264.468381,62.9335256 C265.624221,62.9335256 266.764738,62.3759573 267.524353,61.3287595 L278.719368,45.7707277 L289.923139,61.3287595 C290.687132,62.3759573 291.82546,62.9335256 292.98349,62.9335256 C293.80221,62.9335256 294.625308,62.6570842 295.328007,62.0737458 C297.004851,60.6845103 297.324459,58.1121991 296.021949,56.3012732" id="Fill-33"></path>
                    <path d="M228.9535,31.8700787 C231.270284,26.7551764 235.999551,23.3351115 241.587875,23.3351115 C248.451432,23.3351115 252.001165,28.050266 253.725956,31.8770919 L228.9535,31.8700787 Z M262.114006,38.6541036 C262.857336,37.7283718 263.177813,36.5010758 262.984192,35.3135207 C261.869197,28.3214399 255.955944,15.1040462 241.587875,15.1040462 C229.251722,15.1040462 219.601792,25.6611297 219.601792,39.1263204 C219.601792,52.4816389 229.251722,62.9335256 241.587875,62.9335256 C249.452924,62.9335256 256.514554,58.6485092 260.476011,51.4694119 C261.550945,49.5010628 260.914442,46.981015 259.049441,45.8472272 C257.168862,44.7181149 254.77641,45.3890367 253.697024,47.3503726 C251.153235,51.9579926 246.626492,54.7188242 241.587875,54.7188242 C233.938703,54.7188242 227.891918,48.3696128 227.449036,40.094131 L258.913684,40.1058195 C258.913684,40.1058195 260.883284,40.173613 262.114006,38.6541036 Z" id="Fill-35"></path>
                    <path d="M298.484903,21.7953168 C299.705962,19.9747742 299.41108,17.3679273 297.820381,15.9747754 C296.223451,14.5627334 293.926696,14.9074794 292.689024,16.7232994 L284.758367,28.4446654 L289.36226,35.2427744 L298.484903,21.7953168 Z" id="Fill-37"></path>
                </g>
                <g id="ic_icon-white" transform="translate(53.204025, 0.399240)">
                    <g id="Cloudlex-symbolic-logo" transform="translate(4.425856, 2.269962)">
                        <path d="M188.098859,96.1078362 C188.098859,79.3348609 174.814693,65.7362458 158.429569,65.7362458 C150.011977,65.7362458 142.410427,69.3358792 137.00477,75.1125061 L136.994879,75.1074433 C136.994879,75.1074433 128.913595,83.6382201 125.753289,85.2886849 C122.592983,86.934087 118.127011,85.7342092 116.02014,82.6104767 C115.045836,81.1574601 108.967563,70.7737075 96.1433474,70.7737075 C84.7978978,70.7737075 72.4385785,80.2967883 72.4385785,96.1078362 C72.4385785,96.49767 72.4534156,96.8875037 72.4682527,97.2722746 C73.0765745,110.815199 84.2044131,121.21414 96.1433474,121.21414 C108.423535,121.21414 114.135826,112.34922 116.579005,108.658457 C118.23087,106.172634 123.527722,105.929621 125.283447,107.261131 C126.584168,108.243309 129.937357,111.863194 127.266675,115.969105 C124.581157,120.085141 116.114108,134.473549 94.3233276,134.473549 C91.6427549,134.473549 89.6842553,134.701374 88.2895662,135.101333 C74.8026259,137.956739 64.6589829,150.188404 64.6589829,164.84514 C64.6589829,181.623178 77.9382035,195.21673 94.3233276,195.21673 C110.297958,195.21673 123.315056,182.291464 123.962944,166.100708 C123.962944,166.100708 126.485254,145.945799 135.140239,137.080879 C143.849628,128.165331 155.892422,128.372905 163.301089,126.064279 C163.301089,126.064279 163.310981,126.064279 163.315926,126.059216 C177.381514,123.669586 188.098859,111.174656 188.098859,96.1078362" id="Fill-39"></path>
                        <path d="M93.7717747,0 C84.523675,0 77.1499228,4.31061943 72.8473309,8.77808065 C68.7128863,13.0785813 65.701072,17.9659737 64.5487687,25.1149236 C59.6675524,55.4713984 51.9970697,63.1971213 26.1023905,69.0002674 C9.00576983,72.8353021 0,83.5966724 0,99.1290687 C0,115.895962 13.2836341,129.480484 29.6681017,129.480484 C45.2810701,129.480484 58.2877558,117.681934 59.2372933,101.471577 C61.0621857,70.3258335 77.5505089,61.4162081 93.7717747,60.7028309 C110.146351,59.979335 123.439876,47.1183084 123.439876,30.3514155 C123.439876,13.5895819 110.156242,0 93.7717747,0" id="Fill-41"></path>
                    </g>
                </g>
            </g>
        </g>
    </g>
</svg>