<svg xmlns="http://www.w3.org/2000/svg" xmlns:xlink="http://www.w3.org/1999/xlink" width="534" height="532" viewBox="0 0 534 532">
    <defs>
        <circle id="a" cx="266.482" cy="266" r="266"/>
        <path id="c" d="M126.88 208.192c-1.679 2.07-4.046 2.845-6.52 2.987-5.628.267-8.47-2-8.47-2 4.182-3.538-8.016-35.5-8.016-35.5-6.975-8.947-6.263-12.5-6.263-12.5l-.712-51.953.712-12.728 9.013-5.474 7.106 5.451 6.737 5.172c.438 1.645.72 3.327.842 5.024.78 11.83-8.569 14.612-8.569 14.612s3.864 11.91.325 22.851c-3.54 10.942 2.577 20.598 2.577 20.598s11.59 33.474 9.673 35.408c-1.917 1.935 1.565 8.052 1.565 8.052z"/>
        <linearGradient id="d" x1="50.003%" x2="50.003%" y1="100%" y2="0%">
            <stop offset="0%" stop-color="gray" stop-opacity=".1"/>
            <stop offset="54%" stop-color="gray" stop-opacity=".12"/>
            <stop offset="100%" stop-color="gray" stop-opacity=".1"/>
        </linearGradient>
        <linearGradient id="e" x1="0%" y1="49.993%" y2="49.993%">
            <stop offset="0%" stop-color="gray" stop-opacity=".1"/>
            <stop offset="54%" stop-color="gray" stop-opacity=".12"/>
            <stop offset="100%" stop-color="gray" stop-opacity=".1"/>
        </linearGradient>
    </defs>
    <g fill="none" fill-rule="evenodd">
        <g transform="translate(.518)">
            <mask id="b" fill="#fff">
                <use xlink:href="#a"/>
            </mask>
            <use fill="#4E99BF" fill-rule="nonzero" xlink:href="#a"/>
            <path fill="#FFF" fill-rule="nonzero" d="M44.305 412.32h444.353C441.075 484.424 359.334 532 266.482 532c-92.853 0-174.594-47.576-222.177-119.68z" mask="url(#b)"/>
            <g mask="url(#b)">
                <g transform="translate(6.45 153)">
                    <rect width="397.978" height="247.166" x="51.866" y=".403" fill="#CBCBCF" fill-rule="nonzero" rx="13.235"/>
                    <path fill="#EBFAFD" fill-rule="nonzero" d="M60.248 12.742h380.385v225.61H60.248z"/>
                    <path fill="#CBCBCF" fill-rule="nonzero" d="M309.172 238.767l-13.087 13.405h-92.177l-11.813-13.405H4.525a4.188 4.188 0 0 0-4.187 4.187v3.38c0 6.22 2.473 1.184 6.873 5.579s10.367 7.86 16.587 7.853h452.465c12.941 0 23.432-.491 23.432-13.432v-3.38a4.188 4.188 0 0 0-4.188-4.187H309.172z"/>
                    <path fill="#FFF" fill-rule="nonzero" d="M312.563 51.817h103.995v78.373H312.563zM83.48 51.789h218.363v166.568H83.48z" opacity=".7"/>
                    <path fill="#F7F4FF" d="M95.479 149.581l35.64-49.532 36.912 41.918 29.453-39.892 37.373-3.401 42.2-21.78 13.214-.032.137 106.34-194.885.467-.044-34.088"/>
                    <path fill="#E9E3FF" d="M95.479 172.341l35.64-49.533 36.912 41.919 29.453-39.892 37.373-3.401 42.2-21.78 13.214-.032.137 106.339-194.885.468-.044-34.088"/>
                    <path fill="#D5CAFF" d="M95.523 206.429l-.022-16.896 44.635-24.739 30.06 12.272 30.005-29.717 43.476-.104 11.94-16.356 34.686-6.277.105 81.349-194.885.468"/>
                    <g fill="#FFBCBD">
                        <path d="M322.912 119.979h11.03v-36.76h-11.03zM395.518 121.177h11.03V72.192h-11.03zM371.316 120.578h11.029V90.435h-11.029zM347.114 120.428h11.03v-52.28h-11.03z"/>
                    </g>
                    <path fill="#DCF2F4" fill-rule="nonzero" d="M312.563 139.983h103.995v78.373H312.563z"/>
                </g>
                <g transform="translate(364.607 227.82)">
                    <path fill="#FDC2CC" fill-rule="nonzero" d="M104.023 75.9s-23.175 3.22-28.006 2.276L63.141 65.943S50.907 75.28 70.225 81.39l36.051 4.182-2.253-9.673z"/>
                    <path fill="#000" fill-rule="nonzero" d="M104.023 75.9s-23.175 3.22-28.006 2.276L63.141 65.943S50.907 75.28 70.225 81.39l36.051 4.182-2.253-9.673z" opacity=".05"/>
                    <path fill="#47465A" fill-rule="nonzero" d="M115.393 206.587l-11.266 9.98s-6.435 1.61-9.98 1.286c-3.545-.324-5.15 5.474 3.22 6.117 8.37.643 35.085-1.286 35.085-1.286s2.577-10.299-5.15-16.097h-11.909z"/>
                    <path fill="#000" fill-rule="nonzero" d="M123.393 206.587l-11.266 9.98s-6.435 1.61-9.98 1.286c-3.545-.324-5.15 5.474 3.22 6.117 8.37.643 35.085-1.286 35.085-1.286s2.577-10.299-5.15-16.097h-11.909z" opacity=".05"/>
                    <path fill="#FFF" fill-rule="nonzero" d="M129.856 218.223a17.753 17.753 0 0 1-.404 3.488s-26.743 1.929-35.085 1.286c-4.022-.307-5.735-1.81-6.042-3.249-.364 1.65 1.092 3.835 6.042 4.216 8.37.643 35.085-1.286 35.085-1.286a18.6 18.6 0 0 0 .404-4.455z" opacity=".3"/>
                    <path fill="#FFCFAD" fill-rule="nonzero" d="M125.588 24.076s7.084 9.98 4.507 16.74c-2.578 6.76 13.502-7.084 13.502-7.084s-5.15-9.013-2.578-18.669l-15.43 9.013z"/>
                    <path fill="#47465A" fill-rule="nonzero" d="M123.682 210.445l-11.266 9.98s-6.435 1.61-9.98 1.286c-3.545-.324-5.15 5.474 3.22 6.117 8.37.643 35.085-1.286 35.085-1.286s2.577-10.299-5.15-16.097h-11.909z"/>
                    <g fill-rule="nonzero">
                        <use fill="#58657E" xlink:href="#c"/>
                        <use fill="#000" fill-opacity=".04" xlink:href="#c"/>
                    </g>
                    <path fill="#5D6B85" fill-rule="nonzero" d="M138.146 212.055c-5.474 6.76-18.344 0-18.344 0 .262-.238.458-.54.569-.876 2.36-6.418-11.497-40.5-11.497-40.5-6.5-6.5-5.5-14-5.5-14l-2.918-48.346-.296-6.68 13.542-5.172 4.16-1.588 13.843 10.623c.6 2.194.898 4.458.888 6.732-.118 6.93-.857 12.074-2.219 15.432-5.333 11.667-8.857 19.667-10.572 24-1.42 3.585-.894 8.1.14 11.662 1.782 6.144 3.432 8.838 3.432 8.838s3.848 7.215 3 11c-.906 4.05 2.295 21.694 1 23-1.917 1.934 10.772 5.875 10.772 5.875z"/>
                    <path fill="#000" fill-rule="nonzero" d="M132.593 112.242c-2.783-.398-8.416-3.75-11.312-5.57l-1.81-1.139s-2.896-8.045-10.623-1.928a28.916 28.916 0 0 1-8.392 4.745 19.636 19.636 0 0 1-3.585.899l.711-12.728 9.013-5.474 7.107 5.45 4.16-1.587 13.843 10.623c.597 2.186.896 4.443.888 6.709z" opacity=".1"/>
                    <path fill="#999DBF" fill-rule="nonzero" d="M150.015 50.494c-1.138 6.908-6.136 17.202-12.14 26.686-5.066 8-5.066 9.812-7 14-1.935 4.188 2.434 20.129 2.434 20.129-3.22.324-13.843-6.76-13.843-6.76s-2.896-8.046-10.623-1.929c-7.727 6.117-11.969 5.06-11.969 5.06-1.61-10.623 10.5-33 10.5-33s-4.071-18.104-1.5-21c1.194-1.419 15.63-12.094 16.073-13.894.197-.718.334-1.45.41-2.19 4.181-.325 14.486-7.398 14.486-7.398l8.046-1.286v4.183c.093.042.181.095.261.159 1.326 1.013 2.993 5.309 4.148 8.694a17.639 17.639 0 0 1 .717 8.546z"/>
                    <path fill="#000" fill-rule="nonzero" d="M143.597 37.277s-8.37-6.76-20.922 15.13c-12.552 21.889-15.448 18.344-15.448 18.344s2.577 9.673 1.286 11.59c0 0 8.688-.643 11.909 0 3.22.643 23.175-24.45 23.175-24.45s10.322-14.179 0-20.614z" opacity=".1"/>
                    <path fill="#000" fill-rule="nonzero" d="M143.295 35.985s-8.37-6.76-20.922 15.13c-12.552 21.889-15.448 18.344-15.448 18.344s9.98 10.942 13.195 11.59c3.215.65 23.175-24.466 23.175-24.466s10.3-14.157 0-20.598z" opacity=".1"/>
                    <path fill="#000" fill-rule="nonzero" d="M108.234 80.247c.13-2.384-.768-6.577-1.286-8.75 1.957-.257 3.192-.428 3.192-.428l2.276 9.673-4.182-.495zM141.36 15.712l-15.447 9.013c.65.95 1.25 1.934 1.798 2.947.89.182 1.798.273 2.708.273 4.125 0 6.048-4.33 8.535-7.243-.176-2.339 1.718-2.401 2.407-4.99z" opacity=".1"/>
                    <circle cx="130.1" cy="13.777" r="13.519" fill="#FFCFAD" fill-rule="nonzero"/>
                    <path fill="url(#d)" fill-rule="nonzero" d="M.329 29.186h108.877v82.049H.329z"/>
                    <path fill="#FFF" fill-rule="nonzero" d="M2.77 31.023h103.995v78.373H2.77z"/>
                    <path fill="#FF5EA8" d="M56.425 99.796c-16.787.323-30.654-12.936-30.975-29.613-.32-16.678 13.027-30.459 29.814-30.781 16.786-.323 30.654 12.936 30.975 29.613.32 16.678-13.028 30.459-29.814 30.781"/>
                    <path fill="#FFDEED" d="M56.425 99.796c-16.787.323-30.654-12.936-30.975-29.613-.32-16.678 13.027-30.459 29.814-30.781l1.161 60.394"/>
                    <path fill="#FFB5D7" d="M25.449 70.128c-.29-16.654 13.046-30.404 29.815-30.726l.587 30.553-23.825 18.42a30.144 30.144 0 0 1-3.74-6.002l-.001-.003a17.991 17.991 0 0 1-.079-.168l-.001-.003-.015-.031-.002-.005-.077-.167-.002-.005-.013-.03-.003-.007-.06-.131v-.005a.804.804 0 0 1-.014-.03l-.003-.006c-.005-.01-.01-.02-.013-.03L28 81.746c-.02-.043-.039-.087-.057-.13l-.004-.008-.012-.028-.004-.009-.012-.028-.004-.008-.039-.092-.004-.008a1.892 1.892 0 0 1-.01-.025l-.006-.014a.734.734 0 0 1-.01-.024l-.006-.014a.734.734 0 0 1-.01-.024l-.006-.014-.036-.083-.005-.014-.01-.023-.007-.016-.01-.022-.007-.018-.008-.02-.01-.023a1.999 1.999 0 0 1-.01-.025l-.011-.027-.008-.019-.009-.021-.007-.018-.008-.021-.008-.02-.009-.02-.007-.018-.01-.026a2.217 2.217 0 0 1-.011-.026l-.01-.025-.007-.017-.009-.022-.007-.019-.009-.02-.007-.02-.01-.022-.006-.016a1.698 1.698 0 0 1-.015-.038l-.004-.01a1.006 1.006 0 0 0-.012-.03l-.005-.015a.729.729 0 0 1-.01-.025l-.007-.016c-.002-.008-.006-.016-.01-.025l-.005-.015a.957.957 0 0 1-.011-.029l-.005-.01-.015-.04-.004-.012a.937.937 0 0 0-.011-.028l-.006-.015a.763.763 0 0 0-.016-.04l-.01-.028-.005-.012-.015-.04-.016-.04c0-.004-.002-.008-.003-.011l-.011-.03-.006-.014-.01-.027-.005-.013a3.239 3.239 0 0 0-.012-.031l-.003-.01-.03-.081-.004-.009-.012-.033-.004-.01-.01-.032-.005-.01-.013-.035-.002-.005a2.06 2.06 0 0 0-.015-.043l-.014-.04a.064.064 0 0 1-.004-.01l-.012-.033-.003-.009-.012-.034-.003-.007a18.02 18.02 0 0 1-.059-.168l-.003-.009-.013-.035-.002-.006-.044-.128c0-.001 0-.004-.002-.005l-.013-.038-.001-.005a18.522 18.522 0 0 1-.058-.17l-.002-.007-.013-.038-.001-.005a18.697 18.697 0 0 1-.043-.13v-.002l-.014-.04-.001-.004-.014-.042-.043-.133a2.073 2.073 0 0 1-.014-.044v-.001l-.056-.177v-.001a2.03 2.03 0 0 0-.013-.043v-.002a26.45 26.45 0 0 1-.055-.177v-.001a29.9 29.9 0 0 1-1.055-5.025v-.002a29.869 29.869 0 0 1-.074-.666l-.004-.048-.018-.19v-.002a18.523 18.523 0 0 1-.017-.191v-.001l-.004-.045v-.004l-.016-.189v-.004l-.003-.043v-.004l-.01-.142v-.004l-.004-.042v-.007l-.003-.041v-.005a18.468 18.468 0 0 1-.01-.142v-.004l-.002-.043v-.005c-.002-.014-.002-.03-.003-.044v-.003l-.009-.14v-.01l-.002-.038V71.2l-.003-.04v-.005l-.005-.095v-.006l-.002-.04v-.01l-.002-.035v-.012l-.002-.038v-.007l-.004-.093v-.009l-.002-.037v-.012l-.002-.034v-.012l-.002-.04v-.006l-.001-.046v-.005l-.002-.04v-.014l-.001-.033-.001-.013v-.034l-.001-.012-.002-.042v-.004-.045l-.001-.012v-.034l-.001-.015-.001-.03v-.017-.032l-.001-.013-.001-.045-.001-.055"/>
                    <path fill="#000" fill-rule="nonzero" d="M145.167 33.254h-6.543s-12.876 6.435-13.195 6.117c-.216-.217-2.208.153-3.471.42.198-.717.335-1.45.41-2.19 4.182-.324 14.486-7.397 14.486-7.397l8.046-1.286V33.1c.095.04.185.092.267.154z" opacity=".05"/>
                    <path fill="#FFF" fill-rule="nonzero" d="M141.122 222.087a17.753 17.753 0 0 1-.404 3.487s-26.743 1.93-35.084 1.286c-4.023-.307-5.736-1.809-6.043-3.249-.364 1.65 1.092 3.835 6.043 4.217 8.37.643 35.084-1.286 35.084-1.286a18.6 18.6 0 0 0 .404-4.455z" opacity=".3"/>
                    <path fill="#FFCFAD" fill-rule="nonzero" d="M112.393 80.73l-4.16-.483-31.863-3.704c-19.312-6.117-7.084-15.448-7.084-15.448l12.876 12.233c3.716.746 18.282-.99 24.809-1.826 1.957-.256 3.192-.427 3.192-.427l2.23 9.656z"/>
                    <path fill="#999DBF" fill-rule="nonzero" d="M143.597 36.634s-8.37-6.76-20.922 15.13c-12.552 21.889-15.448 18.344-15.448 18.344s2.577 9.673 1.286 11.59c0 0 8.688-.643 11.909 0 3.22.643 23.175-24.467 23.175-24.467s10.322-14.162 0-20.597z"/>
                </g>
                <g>
                    <g transform="translate(-26 233.797)">
                        <path stroke="#535461" stroke-width="1.138" d="M68.037 31.254S60.748 47.6 27.127 41.883M21.829 91.8S47.7 65.924 39.792 56.524M21.829 173.563s25.872-25.878 17.963-35.278"/>
                        <path fill="#16BDDF" fill-rule="nonzero" d="M124.862 65.968h34.663v19.591h-34.663zM124.862 147.73h34.663v19.591h-34.663z" opacity=".2"/>
                        <rect width="185.379" height="246.421" x=".816" y=".409" fill="#CBCBCF" fill-rule="nonzero" rx="11.38"/>
                        <path fill="#EBFAFD" fill-rule="nonzero" d="M10.233 12.72h166.539v210.803H10.232z"/>
                        <circle cx="92.748" cy="234.772" r="6.782" fill="#FFF" fill-rule="nonzero"/>
                        <path fill="#FFF" fill-rule="nonzero" d="M122.074 44.136h47.5v35.801h-47.5zM122.074 125.898h47.5v35.801h-47.5z" opacity=".7"/>
                        <path fill="#A5E8FF" d="M145.97 157.458c-7.657.013-13.874-6.143-13.888-13.75-.013-7.606 6.183-13.784 13.84-13.797 7.656-.014 13.874 6.142 13.888 13.749.013 7.607-6.183 13.784-13.84 13.798"/>
                        <path fill="#EAF9FE" d="M145.97 157.458c-7.657.013-13.874-6.143-13.888-13.75-.013-7.606 6.183-13.784 13.84-13.797l.048 27.547"/>
                        <path fill="#D0F3FF" d="M132.082 143.684c0-7.596 6.19-13.76 13.84-13.773l.024 13.935-11.01 8.21a13.747 13.747 0 0 1-1.658-2.766v-.002a8.205 8.205 0 0 1-.035-.077v-.002l-.007-.014v-.002l-.034-.077-.001-.002-.006-.014-.001-.003-.026-.06-.001-.002a.366.366 0 0 1-.006-.014l-.001-.003-.006-.014-.001-.003-.025-.06-.002-.003-.005-.013-.002-.004-.005-.013-.002-.004-.017-.042-.001-.004-.005-.011a.256.256 0 0 1-.007-.018l-.003-.006a.335.335 0 0 1-.004-.011l-.003-.006-.015-.039-.003-.006-.004-.01a.352.352 0 0 1-.003-.008l-.004-.01-.003-.008-.004-.01-.004-.01a.913.913 0 0 1-.005-.012l-.004-.012a302.78 302.78 0 0 1-.004-.009l-.004-.01-.003-.007a.644.644 0 0 0-.004-.01l-.003-.009-.004-.01c0-.003-.002-.005-.003-.008l-.004-.012a1.013 1.013 0 0 1-.005-.012l-.004-.011-.004-.008-.003-.01-.004-.009-.003-.01-.003-.008-.004-.01-.003-.008a.774.774 0 0 1-.007-.017l-.002-.005a.459.459 0 0 0-.005-.013l-.002-.007a.333.333 0 0 1-.005-.012l-.002-.007-.004-.011-.003-.008a.436.436 0 0 1-.005-.013l-.002-.005-.006-.018-.002-.005a.427.427 0 0 0-.014-.039l-.005-.012-.002-.006-.007-.018-.006-.019-.002-.004-.005-.014-.002-.007-.005-.012-.002-.006a1.474 1.474 0 0 0-.02-.056l-.001-.004-.005-.015-.002-.005-.005-.014-.001-.005-.006-.016v-.003a.94.94 0 0 0-.008-.02l-.006-.018a.568.568 0 0 1-.007-.02l-.001-.003-.005-.016-.001-.003a8.215 8.215 0 0 1-.02-.058v-.004a.435.435 0 0 1-.006-.015l-.001-.004-.006-.016v-.003a8.328 8.328 0 0 1-.02-.059v-.002l-.006-.018v-.002a8.447 8.447 0 0 1-.02-.06l-.006-.018v-.003l-.006-.018v-.002a8.527 8.527 0 0 1-.02-.06l-.005-.02-.007-.02-.018-.061a.946.946 0 0 1-.006-.02l-.024-.082a13.635 13.635 0 0 1-.499-2.707l-.002-.022-.007-.087a8.45 8.45 0 0 1-.006-.087v-.001l-.001-.021v-.002l-.006-.086v-.002-.02-.002l-.005-.064v-.002-.02-.002l-.002-.02v-.002a8.426 8.426 0 0 1-.003-.064v-.002-.02l-.001-.002v-.02-.002c-.002-.021-.003-.042-.003-.064v-.004l-.001-.017v-.004-.019l-.001-.002-.001-.043v-.003l-.001-.018v-.005-.016-.005l-.001-.018v-.003l-.001-.042v-.004a.59.59 0 0 1 0-.017v-.006l-.001-.015v-.006-.018-.002l-.001-.022v-.002-.018-.007-.014-.007-.015-.006l-.001-.019v-.001-.021-.006-.015-.007-.014-.007-.015-.006-.02-.025"/>
                        <path fill="#FFF" fill-rule="nonzero" d="M17.43 44.136h99.847v76.075H17.43zM17.43 125.898h99.847v76.075H17.43z" opacity=".7"/>
                        <g fill="#FFBCBD">
                            <path d="M126.98 74.756h5.015V58.038h-5.016zM160 75.302h5.017v-22.28h-5.016zM148.994 75.029h5.016v-13.71h-5.016zM137.987 74.96h5.016V51.184h-5.016z"/>
                        </g>
                        <path fill="#DCF2F4" fill-rule="nonzero" d="M122.074 84.409h47.5v35.801h-47.5z"/>
                        <path fill="#FFF" fill-rule="nonzero" d="M122.074 166.171h47.5v35.801h-47.5z" opacity=".7"/>
                        <path fill="#F7F4FF" d="M22.95 89.228l16.29-22.64 16.872 19.16 13.462-18.233 17.082-1.555 19.288-9.955 6.04-.014.062 48.604-89.075.213-.02-15.58"/>
                        <path fill="#E9E3FF" d="M22.95 99.631l16.29-22.64 16.872 19.16 13.462-18.234 17.082-1.554 19.288-9.955 6.04-.014.062 48.603-89.075.214-.02-15.58"/>
                        <path fill="#D5CAFF" d="M22.971 115.211l-.01-7.722 20.401-11.308 13.74 5.61 13.714-13.583 19.871-.048 5.457-7.475 15.854-2.87.048 37.182-89.075.214"/>
                        <g>
                            <path fill="#F7F4FF" d="M22.95 170.99l16.29-22.64 16.872 19.16 13.462-18.233 17.082-1.555 19.288-9.955 6.04-.014.062 48.604-89.075.213-.02-15.58"/>
                            <path fill="#E9E3FF" d="M22.95 181.393l16.29-22.64 16.872 19.16 13.462-18.234 17.082-1.554 19.288-9.955 6.04-.015.062 48.604-89.075.214-.02-15.58"/>
                            <path fill="#D5CAFF" d="M22.971 196.973l-.01-7.722 20.401-11.308 13.74 5.61 13.714-13.583 19.871-.048 5.457-7.475 15.854-2.87.048 37.182-89.075.214"/>
                        </g>
                        <g fill="#FFBCBD">
                            <path d="M126.98 197.15h5.015v-16.718h-5.016zM160 197.695h5.017v-22.279h-5.016zM148.994 197.422h5.016v-13.709h-5.016zM137.987 197.354h5.016v-23.777h-5.016z"/>
                        </g>
                    </g>
                    <path fill="#E6E8EC" fill-rule="nonzero" d="M178.412 309.984h35.113v2.065h-35.113zM178.412 313.427h38.208v2.065h-38.208zM178.412 316.87h38.208v2.064h-38.208zM145.712 334.64h13.081v2.064h-13.08zM145.712 338.081h18.59v2.065h-18.59z"/>
                    <path fill="#16BDDF" fill-rule="nonzero" d="M178.412 331.197h15.835v8.95h-15.835z" opacity=".2"/>
                    <path fill="#E6E8EC" fill-rule="nonzero" d="M198.037 331.197h18.59v2.065h-18.59zM198.037 334.64h13.081v2.064h-13.08zM198.037 338.081h18.59v2.065h-18.59zM178.412 341.524h38.208v2.065h-38.208zM178.412 344.966h38.208v2.065h-38.208z"/>
                    <path fill="#16BDDF" fill-rule="nonzero" d="M178.412 371.47h15.835v8.95h-15.835z" opacity=".2"/>
                    <path fill="#E6E8EC" fill-rule="nonzero" d="M198.037 374.913h13.081v2.065h-13.08z"/>
                    <path fill="#F7C4A7" fill-rule="nonzero" d="M212.746 456.131h-7.943l3.106 7.597 7.602-2.072z"/>
                    <path fill="#DDDBE2" fill-rule="nonzero" d="M206.51 471.295c-.182.051-.364.29-.53.632h.057c.148-.04.41-.336.729-.797a.671.671 0 0 1-.256.165z"/>
                    <path fill="#4C4C78" fill-rule="nonzero" d="M228.143 478.937l4.74 13.206s-12.98 9.958-21.412 7.898a23.568 23.568 0 0 0-3.869-.626c-1.747-.13-4.75-1.4-2.896-3.021 5.986-5.235 13.963-14.96 13.963-14.96l9.474-2.497zM149.348 477.69l2.242 12.718s-11.47-.5-30.919 5.485c0 0-7.482-3.243-1.246-7.232 0 0 7.232.5 11.721-7.232 4.49-7.733 7.232-6.731 7.232-6.731l10.97 2.993z"/>
                    <path fill="#182B51" fill-rule="nonzero" d="M208.695 385.428l-2.197 38.692a16.006 16.006 0 0 0 3.818 11.317 23.46 23.46 0 0 0 4.12 3.84c5.235 3.74 16.455 43.136 16.455 43.136s-12.717.746-16.205 3.244c0 0-.745-9.975-2.742-10.97-1.998-.996-16.706-30.157-16.706-30.157l-14.72-37.907s-11.721 20.2-21.696 23.687v8.478s-5.485 24.934-7.482 27.676c-1.997 2.743 0 13.713 0 13.713s-5.736 7.232-18.948-.5c0 0 4.24-4.74 3.983-10.476-.256-5.735 5.747-37.144 5.747-37.144s-.745-11.949 5.235-19.448c5.98-7.5 15.932-36.154 15.932-36.154l6.862-14.765 38.544 23.738z"/>
                    <g fill="#000" fill-rule="nonzero" opacity=".1">
                        <path d="M228.518 482.425s-11.22-39.397-16.455-43.136a23.756 23.756 0 0 1-4.33-4.09 15.824 15.824 0 0 1-3.602-11.062l2.197-38.692-36.775-22.669.501-1.075 38.515 23.738-2.196 38.692a15.824 15.824 0 0 0 3.602 11.061 23.756 23.756 0 0 0 4.33 4.092c5.235 3.738 16.455 43.135 16.455 43.135s-12.717.745-16.205 3.243c0 0-.028-.387-.09-1.018 4.904-1.679 14.053-2.22 14.053-2.22zM148.979 480.194s-1.998-10.97 0-13.712c1.997-2.743 7.482-27.676 7.482-27.676v-8.478c9.974-3.494 21.696-23.688 21.696-23.688l.87 2.248c-3.38 5.36-12.398 18.669-20.319 21.44v8.478s-5.485 24.933-7.482 27.676c-1.997 2.742 0 13.712 0 13.712s-2.782 3.5-8.927 3.027c4.58-.392 6.68-3.027 6.68-3.027z"/>
                    </g>
                    <path fill="#FFBA89" fill-rule="nonzero" d="M122.919 342.042l4.899.324 2.583.171v-6.259l-3.414-.614-2.1-.382s-6.48-19.197-12.717-15.71c-6.236 3.488 10.749 22.47 10.749 22.47zM201.463 290.679s3.243 12.467 4.239 20.2c.995 7.732-23.187 1.496-23.187 1.496s9.224-11.22 3.983-17.207l14.965-4.49z"/>
                    <path fill="#F0F2F7" fill-rule="nonzero" d="M175.283 342.543l-.5 4.74 7.726-.501 7.727-6.731 7.727-21.696 4.996-7.721 3.738-4.74-1.496-5.736s-.683.57-1.838 1.48c-3.795 2.907-12.706 8.944-19.215 7.277a7.761 7.761 0 0 1-.887-.279l-9.725 16.706 1.747 17.2z"/>
                    <path fill="#000" fill-rule="nonzero" d="M207.482 302c.702.879 1.824 2.033 2.459 3.416 2.11 4.603 9.229 9.348 12.41 11.3a5.32 5.32 0 0 1 2.412 3.363c.643 2.845.888 8.137-2.606 15.761-5.485 11.949-9.474 17.207-9.474 17.207s-.995 11.948.501 15.46c1.497 3.51 0 22.69 0 22.69s-26.174 4.985-34.908 0c-8.734-4.984-7.482-24.233-7.482-24.233s-8.228 17.468-11.204 17.969l1.707-9.724s9.724-10.475 10.242-23.938c0 0 2.993-12.216.501-15.46 0 0-42.14 3.494-44.632.501 0 0 27.676-1.246 31.915-7.966 0 0 12.216-9.724 12.717-16.205a7.17 7.17 0 0 1 3.738-5.872 9.764 9.764 0 0 1 5.588-1.246l5.633.387s-9.719 17.172-9.2 19.448c.517 2.276-.502 20.444-.502 20.444s11.221-24.188 16.205-26.93c4.985-2.743 10.703-13.997 10.703-13.997l-.995-5.69s1.934.389 4.272 3.315z" opacity=".1"/>
                    <path fill="#000" fill-rule="nonzero" d="M175.283 342.543l-.5 4.74 7.726-.501 7.727-6.731 7.727-21.696 4.996-7.721 3.738-4.74-1.496-5.736s-.683.57-1.838 1.48l.342 1.968s-5.736 11.26-10.72 14.003C188 320.352 176.78 344.54 176.78 344.54s.995-18.208.5-20.444c-.341-1.525 4.029-9.929 6.868-15.18a7.761 7.761 0 0 1-.887-.28l-9.725 16.706 1.747 17.2zM127.818 342.372l2.583.17v-6.258l-3.414-.615c1.2 1.594 1.16 4.359.83 6.703z" opacity=".1"/>
                    <path fill="#4F5AC1" fill-rule="nonzero" d="M203.21 298.706s2.312 1.652 6.272 6.294c3.318 3.89 9.688 8.99 12.869 10.942a5.32 5.32 0 0 1 2.412 3.363c.643 2.845.888 8.137-2.606 15.761-5.485 11.95-9.474 17.207-9.474 17.207s-.995 11.949.501 15.46c1.497 3.51 0 22.69 0 22.69s-26.174 4.985-34.908 0c-8.734-4.984-7.482-24.187-7.482-24.187s-8.228 17.45-11.204 17.946l1.707-9.724s9.724-10.475 10.242-23.938c0 0 2.993-12.216.501-15.46 0 0-9.724 10.476-20.694 10.242-10.97-.233-23.938 1.247-23.938 1.247s2.492-7.966 0-10.97c0 0 27.676-1.247 31.915-7.967 0 0 12.216-9.724 12.717-16.205a7.17 7.17 0 0 1 3.744-5.894 9.764 9.764 0 0 1 5.587-1.247l5.634.387s-9.725 17.195-9.207 19.437c.518 2.242-.5 20.444-.5 20.444s11.22-24.188 16.204-26.93c4.985-2.743 10.72-14.003 10.72-14.003l-1.012-4.895z"/>
                    <path fill="#000" fill-rule="nonzero" d="M208.695 324.09s-5.986 20.2-9.474 22.692c-3.488 2.492-24.683 15.21-30.92 12.216 0 0-1.496 7.483.746 9.224 0 0 23.25-.91 23.437-.996 0 0 15.21-1.997 17.701-9.474 2.493-7.476 5.486-20.2 5.486-20.2l-6.976-13.462z" opacity=".1"/>
                    <g fill="#000" fill-rule="nonzero" opacity=".1">
                        <path d="M177.798 324.09c.342 1.537 0 10.572-.279 16.103-1.206 2.464-1.963 4.091-1.963 4.091s.996-18.208.501-20.444c-.472-2.134 8.285-17.781 9.155-19.346l1.815.125s-9.747 17.23-9.229 19.471zM149.599 345.035c10.97.25 20.694-10.242 20.694-10.242.294.408.509.867.632 1.354-2.845 2.68-10.811 9.32-19.58 9.104-10.97-.25-23.937 1.246-23.937 1.246s.051-.165.13-.45a198.494 198.494 0 0 1 22.06-1.012zM169.047 365.98s-.102 1.559-.045 3.897c-2.595 5.121-7.318 13.952-9.429 14.305l.37-2.048c3.63-4.558 9.104-16.154 9.104-16.154z"/>
                    </g>
                    <path fill="url(#e)" fill-rule="nonzero" d="M.04.319h51.727v38.982H.04z" transform="translate(114.873 315.934)"/>
                    <path fill="#FFF" fill-rule="nonzero" d="M117.024 317.84h47.5v35.8h-47.5z"/>
                    <path fill="#FF5EA8" d="M141.426 349.42c-7.651.281-14.08-5.654-14.36-13.256-.278-7.602 5.698-13.992 13.35-14.272 7.652-.28 14.08 5.654 14.36 13.256.278 7.602-5.698 13.992-13.35 14.273"/>
                    <path fill="#FFDEED" d="M141.426 349.42c-7.651.281-14.08-5.654-14.36-13.256-.278-7.602 5.698-13.992 13.35-14.272l1.01 27.529"/>
                    <path fill="#FFB5D7" d="M127.066 336.14c-.265-7.592 5.706-13.968 13.35-14.248l.511 13.926-10.717 8.589a13.747 13.747 0 0 1-1.753-2.707v-.001a8.205 8.205 0 0 1-.038-.076v-.002l-.007-.014-.001-.002-.037-.076v-.002l-.007-.013-.001-.003c-.01-.02-.02-.04-.028-.06l-.001-.002a.366.366 0 0 1-.007-.014l-.001-.002-.006-.014-.002-.003-.027-.058-.001-.004-.006-.013-.002-.004-.006-.012-.001-.004-.019-.042-.002-.003-.005-.012a.256.256 0 0 1-.008-.017l-.002-.006a.335.335 0 0 1-.005-.011l-.003-.006-.017-.038-.002-.006-.005-.01a.352.352 0 0 1-.003-.008l-.005-.01c0-.003-.002-.005-.003-.008l-.004-.009-.005-.01a.913.913 0 0 1-.005-.012l-.005-.012a302.78 302.78 0 0 1-.004-.009l-.004-.01-.003-.007a.644.644 0 0 0-.004-.01l-.004-.008-.004-.01-.004-.008-.004-.012a1.013 1.013 0 0 1-.005-.012l-.005-.01-.004-.009-.004-.01-.003-.008-.004-.01-.004-.008-.004-.01-.003-.008a.774.774 0 0 1-.007-.017l-.002-.005a.459.459 0 0 0-.006-.013l-.003-.007a.333.333 0 0 1-.004-.011l-.003-.007-.005-.011-.003-.007a.436.436 0 0 1-.005-.013l-.002-.005-.007-.018-.003-.005a.427.427 0 0 0-.015-.038l-.005-.013-.002-.005-.007-.018-.008-.019-.002-.004-.005-.014-.003-.006-.004-.013-.003-.005a1.474 1.474 0 0 0-.021-.056l-.002-.004-.006-.015c0-.001 0-.003-.002-.004l-.005-.015-.002-.004-.006-.016-.001-.003a.94.94 0 0 0-.007-.019l-.007-.018a.568.568 0 0 1-.007-.019l-.002-.004-.006-.016-.001-.003a8.215 8.215 0 0 1-.022-.057v-.004a.435.435 0 0 1-.006-.015l-.002-.004-.006-.016v-.003a8.328 8.328 0 0 1-.022-.058l-.001-.002-.006-.017-.001-.003a8.447 8.447 0 0 1-.021-.06l-.007-.017v-.003l-.007-.017v-.002a8.527 8.527 0 0 1-.021-.06l-.007-.019v-.001l-.007-.02-.02-.06a.946.946 0 0 1-.007-.02l-.027-.08a.926.926 0 0 0-.007-.02v-.001a13.635 13.635 0 0 1-.547-2.364l-.039-.303c0-.008-.002-.015-.003-.022l-.01-.087a8.45 8.45 0 0 1-.01-.087l.001-.001c0-.007 0-.014-.002-.02v-.003l-.008-.085v-.003l-.002-.02v-.001l-.006-.065v-.001l-.002-.02v-.003l-.002-.018v-.003a8.426 8.426 0 0 1-.005-.065v-.001l-.002-.02v-.002l-.002-.02v-.001l-.005-.065v-.004l-.001-.017v-.004l-.002-.018v-.003l-.003-.043v-.003l-.001-.017v-.005l-.001-.016v-.006l-.002-.017v-.004l-.003-.042v-.004a.59.59 0 0 1 0-.017l-.001-.005v-.016l-.001-.005-.001-.019v-.002l-.001-.021v-.002l-.001-.019v-.006l-.001-.015v-.006l-.002-.015v-.006-.02l-.002-.022v-.005-.015-.007l-.001-.014v-.007l-.001-.015v-.006l-.001-.02-.001-.026"/>
                    <path fill="#FFBA89" fill-rule="nonzero" d="M162.065 363.488l5.298 1.138 4.176.859-2.242-6.26-1.559-.392-2.43-.603s-3.487-17.44-10.469-16.188c-6.981 1.252 7.226 21.446 7.226 21.446z"/>
                    <path fill="#000" fill-rule="nonzero" d="M167.363 364.603l4.176.882-2.242-6.26-1.559-.392a24.905 24.905 0 0 0-.375 5.77z" opacity=".1"/>
                    <path fill="#4F5AC1" fill-rule="nonzero" d="M208.695 323.595s-5.986 20.2-9.474 22.692c-3.488 2.492-24.683 15.21-30.92 12.216 0 0-1.496 7.482.746 9.224 0 0 23.25-.91 23.437-.996 0 0 15.21-1.997 17.701-9.474 2.493-7.477 5.486-20.2 5.486-20.2l-6.976-13.462z"/>
                    <path fill="#F0F2F7" fill-rule="nonzero" d="M187.982 301.172l-7 1.828-.175 9.41 4.534.637z"/>
                    <g fill-rule="nonzero" transform="translate(172.183 265.065)">
                        <path fill="#000" d="M29.03 26.114s.506 1.952 1.183 4.791a13.457 13.457 0 0 1-14.863 6.828c.598-2.56.467-5.12-1.285-7.152l14.964-4.467z" opacity=".1"/>
                        <circle cx="18.56" cy="24.123" r="13.462" fill="#FFBA89"/>
                        <path fill="#021949" d="M6.867 19.912a7.21 7.21 0 0 1-3.005.182c-2.1-.432-3.596-2.566-3.647-4.711a7.238 7.238 0 0 1 2.777-5.56c1.138-.95 2.503-1.627 3.545-2.685 1.234-1.257 6.373-4.643 9.15-5.593 2.065-.7 7.111-1.11 8.836-.848 1.656.252 7.004 4.521 8.275 7.238 1.223 2.709 3.11 9.724 2.775 10.941-.7 2.538-.865 5.201-1.673 7.705-.808 2.503-2.475 4.95-4.996 5.69.2-2.807-.355-5.616-1.605-8.137-.207-.55-.613-1-1.138-1.263a2.76 2.76 0 0 0-1.37 0 13.656 13.656 0 0 1-9.105-1.844c-.956-.569-2.447-2.566-3.47-2.765-1.292-.233-3.984 1.349-5.35 1.65z"/>
                    </g>
                </g>
            </g>
        </g>
        <path fill="#FFBA89" fill-rule="nonzero" d="M186 313l1 2.5 2.5-1.25L198 305l-10.5 1z"/>
        <g fill-rule="nonzero">
            <path fill="#FFF" d="M440.508 78.517c0-.382-.134-.763-.4-1.144-2.137-2.556-3.852-4.75-5.15-6.578.801-1.564 1.412-3.013 1.83-4.347l8.867-1.373c.344-.039.65-.238.916-.6.267-.364.4-.735.4-1.116V52.775c0-.419-.133-.79-.4-1.114a1.652 1.652 0 0 0-.972-.6l-8.696-1.316c-.42-1.297-1.068-2.861-1.945-4.691.571-.84 1.43-1.984 2.575-3.433a177.832 177.832 0 0 0 2.402-3.089c.268-.38.4-.743.4-1.086 0-1.03-2.746-4.081-8.236-9.154-.38-.304-.781-.457-1.202-.457-.457 0-.838.132-1.145.4l-6.75 5.092c-1.563-.8-2.994-1.392-4.29-1.774l-1.316-8.752c-.038-.381-.228-.716-.572-1.001a1.746 1.746 0 0 0-1.144-.43h-10.64c-.877 0-1.449.458-1.716 1.373-.458 1.755-.896 4.692-1.315 8.81-1.64.534-3.108 1.144-4.405 1.83l-6.578-5.148a2.058 2.058 0 0 0-1.202-.4c-.725 0-2.231 1.125-4.52 3.376-2.288 2.25-3.852 3.946-4.69 5.09-.268.306-.4.687-.4 1.145 0 .343.132.724.4 1.144 2.135 2.556 3.85 4.748 5.148 6.578-.8 1.565-1.41 3.013-1.83 4.348l-8.867 1.372c-.344.038-.648.238-.916.6-.266.362-.4.734-.4 1.115v10.583c0 .42.134.791.4 1.115.268.325.591.506.973.543l8.695 1.373c.458 1.449 1.126 3.013 2.003 4.691-.61.84-1.506 2.004-2.688 3.49-1.184 1.488-1.965 2.499-2.346 3.032-.267.381-.4.745-.4 1.086 0 1.032 2.746 4.082 8.237 9.154.382.305.781.456 1.202.456.495 0 .877-.132 1.143-.4l6.75-5.09c1.563.8 2.994 1.391 4.29 1.773l1.317 8.752c.037.381.228.716.571 1.001.343.286.725.429 1.144.429h10.64c.877 0 1.45-.457 1.716-1.373.458-1.793.896-4.748 1.316-8.867a25.896 25.896 0 0 0 4.404-1.772l6.579 5.148c.381.267.782.4 1.201.4.725 0 2.223-1.135 4.491-3.405 2.269-2.268 3.842-3.976 4.72-5.12.267-.266.4-.627.4-1.085zm-21.426-11.814c-2.41 2.409-5.317 3.613-8.722 3.613-3.405 0-6.313-1.204-8.722-3.613-2.409-2.41-3.613-5.317-3.613-8.722 0-3.405 1.204-6.313 3.613-8.722 2.41-2.409 5.317-3.613 8.722-3.613 3.405 0 6.313 1.204 8.722 3.613 2.41 2.41 3.614 5.317 3.614 8.722 0 3.405-1.204 6.313-3.614 8.722z"/>
            <path fill="#84FAF0" d="M475.059 81.492a16.014 16.014 0 0 0-1.716-2.974c1.946-4.31 2.917-6.942 2.917-7.895 0-.15-.074-.285-.228-.4-4.578-2.669-6.941-4.004-7.094-4.004l-.343.115c-1.563 1.564-3.318 3.7-5.263 6.407-.762-.076-1.333-.115-1.714-.115-.383 0-.954.04-1.717.115-.532-.801-1.525-2.09-2.974-3.862-1.449-1.772-2.327-2.66-2.632-2.66-.076 0-.648.305-1.716.917-1.068.61-2.193 1.257-3.375 1.945-1.183.688-1.85 1.068-2.002 1.144-.154.114-.23.249-.23.4 0 .954.973 3.584 2.918 7.894a16.09 16.09 0 0 0-1.716 2.974c-5.683.571-8.524 1.163-8.524 1.773v8.009c0 .61 2.841 1.2 8.524 1.773a16.543 16.543 0 0 0 1.716 2.973c-1.945 4.31-2.917 6.942-2.917 7.895 0 .152.075.286.229.4 4.652 2.708 7.017 4.062 7.093 4.062.305 0 1.183-.897 2.632-2.689 1.449-1.793 2.44-3.088 2.974-3.89.762.076 1.334.114 1.717.114.38 0 .952-.038 1.714-.113.533.8 1.525 2.096 2.974 3.889 1.45 1.792 2.326 2.689 2.632 2.689.076 0 2.442-1.355 7.094-4.062.154-.114.228-.247.228-.4 0-.953-.972-3.585-2.917-7.895a16.58 16.58 0 0 0 1.716-2.973c5.683-.572 8.524-1.163 8.524-1.773v-8.009c0-.61-2.841-1.202-8.524-1.774zm-9.695 9.526c-1.034 1.036-2.284 1.555-3.748 1.555-1.464 0-2.714-.519-3.748-1.555-1.036-1.035-1.554-2.284-1.554-3.748 0-1.435.525-2.679 1.575-3.727 1.048-1.05 2.291-1.574 3.727-1.574 1.435 0 2.679.524 3.728 1.574 1.049 1.048 1.574 2.292 1.574 3.727 0 1.464-.518 2.713-1.554 3.748zM475.059 22.914a16 16 0 0 0-1.716-2.975c1.946-4.309 2.917-6.94 2.917-7.894 0-.152-.074-.286-.228-.4-4.578-2.67-6.941-4.005-7.094-4.005l-.343.115c-1.563 1.564-3.318 3.7-5.263 6.407-.762-.076-1.333-.114-1.714-.114-.383 0-.954.038-1.717.114-.532-.801-1.525-2.088-2.974-3.861-1.449-1.774-2.327-2.66-2.632-2.66-.076 0-.648.304-1.716.915s-2.193 1.259-3.375 1.946c-1.183.687-1.85 1.068-2.002 1.143-.154.115-.23.248-.23.4 0 .954.973 3.586 2.918 7.895a16.046 16.046 0 0 0-1.716 2.975c-5.683.572-8.524 1.162-8.524 1.773v8.008c0 .61 2.841 1.202 8.524 1.773a16.646 16.646 0 0 0 1.716 2.975c-1.945 4.31-2.917 6.94-2.917 7.894 0 .152.075.286.229.4 4.652 2.708 7.017 4.062 7.093 4.062.305 0 1.183-.896 2.632-2.689 1.449-1.792 2.44-3.088 2.974-3.89.762.076 1.334.115 1.717.115.38 0 .952-.039 1.714-.115.533.802 1.525 2.097 2.974 3.89 1.45 1.793 2.326 2.689 2.632 2.689.076 0 2.442-1.354 7.094-4.062.154-.114.228-.247.228-.4 0-.954-.972-3.584-2.917-7.894a16.661 16.661 0 0 0 1.716-2.975c5.683-.571 8.524-1.163 8.524-1.773v-8.008c0-.61-2.841-1.202-8.524-1.774zm-9.126 10.095c-1.191 1.193-2.631 1.79-4.317 1.79-1.686 0-3.125-.597-4.317-1.79-1.193-1.192-1.79-2.631-1.79-4.317 0-1.654.605-3.085 1.814-4.294 1.208-1.209 2.64-1.813 4.293-1.813s3.086.605 4.294 1.813c1.208 1.208 1.813 2.64 1.813 4.294 0 1.686-.597 3.125-1.79 4.317z"/>
        </g>
        <g fill-rule="nonzero" transform="translate(479.94 222.998)">
            <circle cx="14.95" cy="19.102" r="13.21" fill="#FFCFAD"/>
            <path fill="#B96B6B" d="M13.529 30.313c-1.163 2.563-1.407 5.44-2.264 8.159A17.928 17.928 0 0 1 .217 49.934c4.29 1.714 9.348-.38 12.666-3.848 3.318-3.467 5.256-8.083 7.118-12.57 4.814 3.236 4.23 10.673 5.84 16.466a18.261 18.261 0 0 0 9.723 11.62 17.405 17.405 0 0 0 14.89-.3c-4.413-5.385-10.28-11.558-9.52-18.697.606-5.806-.298-11.768 0-17.588.409-8.267-3.636-16.229-9.558-21.532C27.916.385 22.537-.009 20.79.61c-3.4 1.224-7.132.762-10.64 1.584-18.261 4.277 5.079 24.374 3.379 28.12z"/>
        </g>
        <path fill="#F0F2F7" fill-rule="nonzero" d="M189.723 314.138l2.853 5.169 18.548-13.718-6.624-8.089z"/>
    </g>
</svg>
