<svg xmlns="http://www.w3.org/2000/svg" xmlns:xlink="http://www.w3.org/1999/xlink" width="532" height="532" viewBox="0 0 532 532">
    <defs>
        <circle id="a" cx="266.482" cy="266" r="266"/>
        <linearGradient id="c" x1="-.008%" y1="49.986%" y2="49.986%">
            <stop offset="0%" stop-color="gray" stop-opacity=".25"/>
            <stop offset="54%" stop-color="gray" stop-opacity=".12"/>
            <stop offset="100%" stop-color="gray" stop-opacity=".1"/>
        </linearGradient>
        <linearGradient id="d" x1=".004%" x2="100.012%" y1="50.008%" y2="50.008%">
            <stop offset="0%" stop-color="gray" stop-opacity=".25"/>
            <stop offset="54%" stop-color="gray" stop-opacity=".12"/>
            <stop offset="100%" stop-color="gray" stop-opacity=".1"/>
        </linearGradient>
        <linearGradient id="e" x1=".004%" x2="100.012%" y1="50.011%" y2="50.011%">
            <stop offset="0%" stop-color="gray" stop-opacity=".25"/>
            <stop offset="54%" stop-color="gray" stop-opacity=".12"/>
            <stop offset="100%" stop-color="gray" stop-opacity=".1"/>
        </linearGradient>
        <linearGradient id="f" x1="0%" x2="100.026%" y1="49.998%" y2="49.998%">
            <stop offset="0%" stop-color="gray" stop-opacity=".25"/>
            <stop offset="54%" stop-color="gray" stop-opacity=".12"/>
            <stop offset="100%" stop-color="gray" stop-opacity=".1"/>
        </linearGradient>
        <linearGradient id="g" x1="0%" x2="100.033%" y1="49.998%" y2="49.998%">
            <stop offset="0%" stop-color="gray" stop-opacity=".25"/>
            <stop offset="54%" stop-color="gray" stop-opacity=".12"/>
            <stop offset="100%" stop-color="gray" stop-opacity=".1"/>
        </linearGradient>
        <linearGradient id="h" x1=".003%" x2="100.019%" y1="50%" y2="50%">
            <stop offset="0%" stop-color="gray" stop-opacity=".25"/>
            <stop offset="54%" stop-color="gray" stop-opacity=".12"/>
            <stop offset="100%" stop-color="gray" stop-opacity=".1"/>
        </linearGradient>
        <linearGradient id="i" x1="0%" y1="50%" y2="50%">
            <stop offset="0%" stop-color="gray" stop-opacity=".25"/>
            <stop offset="54%" stop-color="gray" stop-opacity=".12"/>
            <stop offset="100%" stop-color="gray" stop-opacity=".1"/>
        </linearGradient>
        <linearGradient id="j" x1=".013%" y1="50%" y2="50%">
            <stop offset="0%" stop-color="gray" stop-opacity=".25"/>
            <stop offset="54%" stop-color="gray" stop-opacity=".12"/>
            <stop offset="100%" stop-color="gray" stop-opacity=".1"/>
        </linearGradient>
        <linearGradient id="k" x1="0%" y1="50.064%" y2="50.064%">
            <stop offset="0%" stop-color="gray" stop-opacity=".25"/>
            <stop offset="54%" stop-color="gray" stop-opacity=".12"/>
            <stop offset="100%" stop-color="gray" stop-opacity=".1"/>
        </linearGradient>
        <linearGradient id="l" x1=".015%" x2="100.004%" y1="49.97%" y2="49.97%">
            <stop offset="0%" stop-color="gray" stop-opacity=".25"/>
            <stop offset="54%" stop-color="gray" stop-opacity=".12"/>
            <stop offset="100%" stop-color="gray" stop-opacity=".1"/>
        </linearGradient>
        <linearGradient id="m" x1="-.009%" y1="50.016%" y2="50.016%">
            <stop offset="0%" stop-color="gray" stop-opacity=".25"/>
            <stop offset="54%" stop-color="gray" stop-opacity=".12"/>
            <stop offset="100%" stop-color="gray" stop-opacity=".1"/>
        </linearGradient>
        <linearGradient id="n" x1="0%" x2="99.95%" y1="50.014%" y2="50.014%">
            <stop offset="0%" stop-color="gray" stop-opacity=".25"/>
            <stop offset="54%" stop-color="gray" stop-opacity=".12"/>
            <stop offset="100%" stop-color="gray" stop-opacity=".1"/>
        </linearGradient>
        <linearGradient id="q" x1="50%" x2="44.107%" y1="0%" y2="-253.991%">
            <stop offset="0%" stop-color="#FFF"/>
            <stop offset="100%" stop-color="#F3FDFE"/>
        </linearGradient>
        <path id="p" d="M58.262.32h550.583v45.117H58.262z"/>
        <filter id="o" width="110.9%" height="233%" x="-6%" y="-62.1%" filterUnits="objectBoundingBox">
            <feOffset dx="-3" dy="2" in="SourceAlpha" result="shadowOffsetOuter1"/>
            <feGaussianBlur in="shadowOffsetOuter1" result="shadowBlurOuter1" stdDeviation="9.5"/>
            <feColorMatrix in="shadowBlurOuter1" values="0 0 0 0 0.698039216 0 0 0 0 0.698039216 0 0 0 0 0.698039216 0 0 0 0.25 0"/>
        </filter>
    </defs>
    <g fill="none" fill-rule="evenodd">
        <g transform="translate(-.482)">
            <mask id="b" fill="#fff">
                <use xlink:href="#a"/>
            </mask>
            <use fill="#4E99BF" fill-rule="nonzero" xlink:href="#a"/>
            <g mask="url(#b)">
                <g fill-rule="nonzero" transform="translate(-4 119.083)">
                    <path fill="#16BDDF" d="M383.094 325.539h-45.916V299.67h45.916v25.868zm-43.976-1.94h42.036V301.61h-42.036V323.6z" opacity=".2"/>
                    <g opacity=".7">
                        <path fill="url(#c)" d="M88.656 285.763s-56.03-20.488-63.7 8.348l21.49 51.422 2.302-.338h46.814v.305s-6.906-21.046 10.748-39.25l-17.654-20.487z" transform="translate(.262 .25)"/>
                        <path fill="url(#d)" d="M49.55.97c-2.38-.789-5.245-1.494-7.185.078-1.125.911-1.61 2.38-2.483 3.53-2.904 3.81-8.756 3.098-13.38 4.463-6.797 2.005-10.994 8.737-13.4 15.333-10.645 29.101 1.222 62.387-8.045 91.941-2.729 8.698-7.191 18.353-2.78 26.353 1.467 2.67 3.88 4.895 4.59 7.844.997 4.003-.924 9.255 2.433 11.693 1.047.756 2.373.996 3.627 1.293 7.554 1.992 13.277 7.87 19.033 13.096 5.755 5.225 12.675 10.282 20.48 9.94a33.35 33.35 0 0 0 7.425-1.475l38.737-10.787c3.88-1.08 8.097-2.386 10.347-5.697 1.378-2.025 1.81-4.527 2.16-6.933a182.64 182.64 0 0 0 1.895-27.763c0-3.065-.142-6.202-1.294-9.054-1.293-3.291-3.88-5.923-5.762-8.93-3.634-5.82-4.61-12.811-5.51-19.582-1.429-10.78-2.858-21.775-.879-32.471.847-4.592 2.309-9.054 3.279-13.613a64.58 64.58 0 0 0 .737-22.59c-.905-6.24-2.845-12.571-7.114-17.266a18.05 18.05 0 0 0-10.735-5.82c-5.238-.647-7.844 2.367-12.513 3.492C66.306 9.772 56.192 3.162 49.55.97z" opacity=".1" transform="translate(48.751 122.476)"/>
                        <path fill="url(#e)" d="M98.04 121.65c-2.38-.789-5.245-1.494-7.186.078-1.125.912-1.61 2.38-2.483 3.53-2.904 3.81-8.756 3.098-13.38 4.463-6.797 2.005-10.994 8.737-13.4 15.333-10.644 29.102 1.223 62.387-8.045 91.941-2.729 8.698-7.19 18.353-2.78 26.353 1.468 2.67 3.88 4.896 4.591 7.844.996 4.004-.925 9.255 2.432 11.693 1.047.756 2.373.996 3.628 1.293 7.553 1.992 13.276 7.87 19.032 13.096 5.756 5.225 12.662 10.34 20.481 9.978a33.35 33.35 0 0 0 7.424-1.474l38.737-10.787c3.88-1.08 8.097-2.386 10.347-5.697 1.378-2.025 1.811-4.527 2.16-6.933a182.64 182.64 0 0 0 1.895-27.763c0-3.065-.142-6.202-1.293-9.054-1.294-3.291-3.88-5.923-5.762-8.93-3.635-5.82-4.611-12.812-5.51-19.582-1.43-10.78-2.859-21.775-.88-32.471.847-4.592 2.309-9.054 3.28-13.613a64.58 64.58 0 0 0 .736-22.59c-.905-6.24-2.845-12.571-7.113-17.266a18.05 18.05 0 0 0-10.736-5.82c-5.238-.647-7.844 2.367-12.513 3.492-6.907 1.681-17.021-4.89-23.663-7.114z" transform="translate(.262 .25)"/>
                        <path fill="url(#f)" d="M35.064 199.344s-6.137 41.732-21.49 30.35c-15.352-11.382-13.05-30.35-13.05-30.35s29.935-80.423 28.403-92.568C27.394 94.631 80.016.266 80.016.266l19.491 155.07s-58.306 21.245-64.443 44.008z" opacity=".1" transform="translate(.896 110.189)"/>
                        <path fill="url(#g)" d="M37.005 309.283s-6.137 41.731-21.49 30.35c-15.353-11.382-13.05-30.35-13.05-30.35S32.4 228.86 30.86 216.715c-1.539-12.145 51.09-106.511 51.09-106.511l19.49 155.071s-58.3 21.244-64.436 44.008z" transform="translate(.262 .25)"/>
                        <path fill="url(#h)" d="M4.617.62s18.852 4.935 32.05 7.347a13.283 13.283 0 0 1 9.598 7.243c3.983 8.22 10.056 23.087 9.008 35.485l11.511 44.764 32.982 39.449-29.923 13.664-33.757-37.178 27.627 70.56-51.426 2.277S-3.065 70.412.776 51.458L4.617.62z" opacity=".1" transform="translate(117.301 101.782)"/>
                        <path fill="url(#i)" d="M115.131 135.16l8.058-33.008 10.367 19.35-5.374 15.934z" transform="translate(.262 .25)"/>
                        <path fill="url(#i)" d="M144.297 145.022s0 51.593 6.907 55.383" opacity=".1" transform="translate(.262 .25)"/>
                        <path fill="url(#j)" d="M45.288 157.917s-15.928 50.811-11.42 56.133" opacity=".1" transform="translate(.262 .25)"/>
                        <path fill="url(#k)" d="M42.223 227.709s30.705 19.847 34.921 20.164" opacity=".1" transform="translate(.262 .25)"/>
                        <path fill="url(#l)" d="M.595.64s.116 4.443-.298 9.791a35.323 35.323 0 0 0 32.53 21.341 35.937 35.937 0 0 0 5.658-.452c-.2-5.678.892-11.376 4.32-16.239C55.085-2.393.595.641.595.641z" opacity=".1" transform="translate(87.553 66.86)"/>
                        <path fill="url(#m)" d="M73.866 45.107c4.274.57 9.7-.84 10.547-5.031 1.042-5.29-6.117-8.73-7.223-14.014-.414-1.979.077-4.048-.162-6.06-.478-4.048-3.79-7.165-7.159-9.519A55.532 55.532 0 0 0 33.253.834c-1.604.149-3.292.408-4.527 1.423-1.41 1.145-1.94 3.007-2.916 4.527-3.311 5.29-10.748 5.91-16.084 9.209C3.486 19.873.394 27.42.116 34.689c-.278 7.269 1.818 14.402 3.88 21.386 1.766 5.937 3.616 12.035 7.49 16.898 3.873 4.863 10.301 8.259 16.387 6.797-2.788-1.985-.763-6.596 2.257-8.213 3.02-1.617 6.77-1.895 9.35-4.126 2.581-2.231 3.357-5.885 4.198-9.209 1.06-4.19 2.587-8.446 5.69-11.505 6.086-5.988 17.048-2.6 24.498-1.61z" opacity=".1" transform="translate(68.152 .897)"/>
                        <path fill="url(#n)" d="M11.731 3.052c-.517 3.609-1.668 9.856-3.835 13.8A110.365 110.365 0 0 0 .57 32.866s14.137 10.82 21.341 18.211a16.762 16.762 0 0 0 17.603 4.262c3.745-1.345 7.023-3.945 7.896-8.821 1.371-7.69-.258-13.49-1.797-16.924a12.578 12.578 0 0 1-.052-10.347c.53-1.164 1.15-2.076 1.843-2.303 0 0-13.814-3.033-14.583.757-.77 3.79-11.511 7.586-13.814.757L18.36 3.402A3.311 3.311 0 0 0 15.036.246a3.311 3.311 0 0 0-3.305 2.806z" opacity=".1" transform="translate(101.78 62.333)"/>
                    </g>
                    <path fill="#0B2251" d="M89.668 285.515s-53.786-19.893-61.152 8.103l20.63 53.03 2.192-1.328h44.946c-4.42-14.813-.97-28.115 10.347-39.906l-16.963-19.9z"/>
                    <path fill="#000" d="M98.676 127.65c-2.282-.764-5.037-1.45-6.893.077-1.08.886-1.546 2.309-2.387 3.428-2.787 3.699-8.407 3.007-12.843 4.332-6.525 1.94-10.548 8.485-12.863 14.875-10.218 28.254 1.17 60.589-7.721 89.283-2.587 8.445-6.9 17.823-2.671 25.59 1.41 2.586 3.705 4.753 4.41 7.617.957 3.88-.886 8.99 2.335 11.356 1.002.738 2.276.964 3.479 1.294 7.25 1.94 12.746 7.644 18.27 12.72 5.522 5.077 12.17 9.985 19.659 9.656a31.688 31.688 0 0 0 7.113-1.43l37.186-10.476c3.73-1.054 7.76-2.322 9.94-5.536 1.293-1.94 1.739-4.384 2.075-6.732a179.381 179.381 0 0 0 1.817-26.96c0-2.976-.135-6.022-1.228-8.79-1.294-3.194-3.725-5.749-5.536-8.678-3.486-5.64-4.43-12.443-5.29-19.02-1.371-10.47-2.742-21.146-.847-31.532.815-4.456 2.218-8.789 3.15-13.219a63.428 63.428 0 0 0 .71-21.936c-.866-6.06-2.735-12.21-6.822-16.769a17.273 17.273 0 0 0-10.308-5.652c-5.032-.647-7.534 2.302-12.016 3.395-6.629 1.624-16.342-4.76-22.719-6.893z" opacity=".1"/>
                    <path fill="#F0F2F7" d="M98.676 126.175c-2.282-.763-5.037-1.449-6.893.078-1.08.886-1.546 2.308-2.387 3.427-2.787 3.7-8.407 3.007-12.843 4.333-6.525 1.94-10.548 8.485-12.863 14.874-10.218 28.254 1.17 60.59-7.721 89.283-2.587 8.446-6.9 17.823-2.671 25.59 1.41 2.587 3.705 4.753 4.41 7.618.957 3.88-.886 8.99 2.335 11.356 1.002.737 2.276.964 3.479 1.293 7.25 1.94 12.746 7.644 18.27 12.72 5.522 5.077 12.17 9.986 19.659 9.656a31.688 31.688 0 0 0 7.113-1.43l37.192-10.47c3.731-1.053 7.76-2.32 9.94-5.535 1.293-1.94 1.74-4.384 2.076-6.732a179.381 179.381 0 0 0 1.817-26.96c0-2.976-.136-6.022-1.229-8.79-1.293-3.194-3.725-5.749-5.536-8.678-3.485-5.64-4.43-12.443-5.29-19.02-1.37-10.47-2.742-21.146-.847-31.532.815-4.456 2.218-8.789 3.15-13.219a63.428 63.428 0 0 0 .711-21.936c-.867-6.06-2.736-12.21-6.823-16.769a17.273 17.273 0 0 0-10.289-5.671c-5.03-.647-7.534 2.302-12.015 3.395-6.655 1.643-16.368-4.747-22.745-6.88z"/>
                    <path fill="#FFBA89" d="M88.2 70.378s.737 27.996-8.103 27.258c-8.84-.737 25.053 46.42 25.053 46.42l28.733-15.475s-16.944-27.259-5.174-44.208c11.77-16.95-40.51-13.995-40.51-13.995z"/>
                    <path fill="#4F5AC1" d="M37.357 308.363s-5.892 40.522-20.63 29.47S4.2 308.363 4.2 308.363s28.733-78.102 27.259-89.891c-1.475-11.79 49.071-103.44 49.071-103.44l18.709 150.59s-55.991 20.636-61.882 42.74z"/>
                    <path fill="#4F5AC1" d="M85.245 91.417c-3.168 3.359-24.31 16.534-35.362 15.797l-8.588 2.36a47.455 47.455 0 0 0-34.01 36.72l-.136.705c-4.423 23.578-5.891 88.416-5.891 88.416s.737 16.944 8.103 21.341l47.15 32.451s-1.474-35.367 16.213-39.047c17.688-3.68-4.423-1.475-4.423-1.475l-32.419-19.161s.737-28.733 9.578-38.31c8.84-9.578 39.785-59.678 39.785-59.678l-8.84-30.977 8.84-9.142zM122.824 107.22s18.108 4.792 30.77 7.114a12.766 12.766 0 0 1 9.209 7.036c3.822 7.987 9.649 22.415 8.646 34.456l11.052 43.471 31.688 38.31-28.732 13.264-32.42-36.105 26.515 68.55-49.362 2.199s-14.738-110.52-11.052-128.939l3.686-49.356z"/>
                    <path fill="#F0F2F7" d="M87.25 85.718l10.159 49.866-16.581 8.472-9.08-44.92z"/>
                    <path fill="#000" d="M143.085 148.848s0 50.1 6.629 53.786M48.04 161.349s-15.294 49.343-10.994 54.51M45.091 229.155s29.477 19.272 33.525 19.582M88.93 73.327s.117 4.313-.284 9.506c6.02 14.24 19.896 22.582 35.148 20.34.17-.024.342-.05.513-.079-.194-5.516.86-11.045 4.146-15.773C140.229 70.378 88.93 73.327 88.93 73.327z" opacity=".1"/>
                    <path fill="#F0F2F7" d="M124 99.917l16.5 10-12.884 31.565-12.526-2.211z"/>
                    <circle cx="119.138" cy="66.698" r="33.893" fill="#FFBA89"/>
                    <path fill="#000" d="M140.64 52.452c4.107.55 9.339-.822 10.128-4.883 1.002-5.141-5.872-8.478-6.933-13.58-.4-1.94.078-3.933-.155-5.88-.46-3.931-3.64-6.958-6.874-9.24a52.855 52.855 0 0 0-35.148-9.365c-1.54.15-3.163.395-4.353 1.378-1.351 1.112-1.875 2.916-2.8 4.41-3.182 5.135-10.347 5.743-15.436 8.944-5.995 3.745-8.957 11.097-9.229 18.16-.271 7.061 1.746 13.987 3.738 20.765 1.694 5.768 3.473 11.686 7.191 16.407 3.719 4.72 9.895 8.019 15.728 6.596-2.677-1.94-.73-6.409 2.166-7.974 2.898-1.565 6.467-1.836 8.983-4.01 2.516-2.172 3.234-5.716 4.029-8.943 1.022-4.074 2.496-8.2 5.465-11.175 5.833-5.885 16.329-2.574 23.5-1.61z" opacity=".1"/>
                    <path fill="#021949" d="M139.936 51.714c4.106.55 9.338-.821 10.127-4.882 1.002-5.141-5.872-8.478-6.933-13.58-.4-1.941.078-3.933-.155-5.88-.491-3.964-3.686-7.003-6.92-9.273a52.855 52.855 0 0 0-35.128-9.37c-1.54.148-3.162.394-4.352 1.377-1.352 1.112-1.876 2.916-2.8 4.41-3.182 5.135-10.348 5.743-15.437 8.944-5.995 3.745-8.957 11.097-9.229 18.16-.271 7.061 1.747 13.987 3.738 20.765 1.695 5.768 3.473 11.686 7.192 16.407 3.718 4.72 9.894 8.019 15.727 6.596-2.677-1.94-.73-6.409 2.167-7.974 2.897-1.565 6.467-1.837 8.982-4.01 2.516-2.172 3.234-5.716 4.03-8.943 1.021-4.074 2.496-8.2 5.464-11.175 5.827-5.827 16.348-2.522 23.527-1.572z"/>
                    <path fill="#E2E1E3" d="M61.853 271.158H386.23v74.869H61.853z"/>
                    <path fill="#E2E1E3" d="M76.837 271.158h25.661v74.869h-25.66z"/>
                    <path fill="#000" d="M61.853 277.05H386.23v8.214H61.853z" opacity=".1"/>
                    <path fill="#E3E1E3" d="M51.726 258.632h354.397v20.74H51.726z"/>
                    <path fill="#000" d="M25.199 273.363s4.358 6.396 17.286 8.356" opacity=".1"/>
                </g>
                <g fill-rule="nonzero">
                    <path fill="#B3B2BF" d="M497.861 94.81h102.695v41.042c-.29.236-.581.469-.874.7H497.86c-1.337 0-2.422-1.016-2.422-2.27v-37.2c0-1.255 1.084-2.271 2.422-2.271z"/>
                    <path fill="#A09FAB" d="M497.861 125.923h101.82c.294-.192.586-.384.875-.58v11.103c-.29.195-.581.388-.874.58H497.86c-1.338 0-2.422-.842-2.422-1.88v-11.103c0 1.038 1.084 1.88 2.422 1.88z"/>
                    <g>
                        <path fill="#DAECF7" d="M484.822 97.158h11.045v39.013c-.258.224-.518.445-.78.665h-10.265a2.159 2.159 0 0 1-2.159-2.158V99.317c0-1.192.967-2.159 2.159-2.159z"/>
                        <path fill="#B2D9ED" d="M484.822 124.09h10.266c.261-.22.522-.441.779-.666v12.746c-.258.225-.518.446-.78.666h-10.265a2.158 2.158 0 0 1-2.159-2.158V121.93c0 1.193.967 2.159 2.159 2.159z"/>
                    </g>
                </g>
                <g fill-rule="nonzero">
                    <path fill="#FFF" d="M394.036 185.48H267.353a6.568 6.568 0 0 1-6.568-6.568V92.536a6.568 6.568 0 0 1 6.568-6.569h126.683a6.568 6.568 0 0 1 6.568 6.569v86.376a6.568 6.568 0 0 1-6.568 6.568z"/>
                    <path fill="#FFF" d="M394.1 85.967h-9.754c3.592 0 6.503 2.97 6.503 6.635v86.244c0 3.664-2.911 6.634-6.503 6.634h9.755c3.591 0 6.503-2.97 6.503-6.634V92.602c0-3.664-2.912-6.635-6.503-6.635z"/>
                    <path fill="#E6E6E6" d="M401.742 197.823H259.647c-5.387 0-9.755-4.368-9.755-9.755v-1.951a2.601 2.601 0 0 1 2.601-2.601h156.402a2.601 2.601 0 0 1 2.601 2.601v1.95c0 5.388-4.367 9.756-9.754 9.756z"/>
                    <path fill="#BEBADE" d="M408.896 183.516h-9.755a2.601 2.601 0 0 1 2.601 2.601v1.95c0 5.388-4.367 9.756-9.755 9.756h9.755c5.388 0 9.755-4.368 9.755-9.755v-1.951a2.601 2.601 0 0 0-2.601-2.601z"/>
                    <path fill="#84FAF0" d="M390.849 95.722v78.038h-120.31V95.722z"/>
                </g>
                <g fill-rule="nonzero">
                    <path fill="#F4C3B8" d="M309.888 186.999c1.825-2.125 4.512-2.06 7.204-.562 6.302 3.51 19.98 9.775 19.98 9.775-.435-.699-.69-1.56-.69-2.62 0-3.431 5.118-5.281 10.984-6.276 4.51-1.237 9.32-1.442 14.766-5.079 6.31-4.214 13.072-3.308 17.849-1.887 5.128 1.525 8.911.942 12.724 1.069v26.164c-2.106.185-4.522-.169-7.858 1.188-5.858 2.382-21.711 7.697-32.571 7.697-8.94 0-31.077-12.69-41.241-21.422-2.672-2.296-3.432-5.389-1.147-8.047z"/>
                    <g fill="#EAB5AC">
                        <path d="M337.071 196.212c1.305 1.626 3.487 2.503 5.572 2.21l19.431-2.702a1.828 1.828 0 1 1 .504 3.621l-19.431 2.703c-3.414.475-6.99-.888-9.31-4.147-.165-.244-.38-.707-1.788-3.35a1.819 1.819 0 0 1-.208-.771c3.035 1.43 5.23 2.436 5.23 2.436zM375.6 179.385c4.544.624 6.051 2.034 11.93 2.034h5.175v26.164c-2.106.185-4.522-.169-7.858 1.188-1.962.797-5.044 1.924-8.684 3.07 10.84-8.283 10.485-24.603-.564-32.456z"/>
                    </g>
                    <path fill="#DAECF7" d="M394.376 174.518h11.045v39.013c-.258.224-.518.445-.78.665h-10.265a2.159 2.159 0 0 1-2.159-2.158v-35.361c0-1.192.967-2.159 2.159-2.159z"/>
                    <path fill="#B2D9ED" d="M394.376 201.45h10.266c.261-.22.522-.441.779-.666v12.746c-.258.225-.518.446-.78.666h-10.265a2.158 2.158 0 0 1-2.159-2.159v-12.746c0 1.192.967 2.159 2.159 2.159z"/>
                    <path fill="#C2C2D3" d="M409.518 172.17h190.87v41.042c-.465.236-.935.469-1.406.7H409.518c-2.152 0-3.897-1.016-3.897-2.27v-37.2c0-1.255 1.745-2.272 3.897-2.272z"/>
                    <path fill="#A8A9BA" d="M409.518 203.283h189.464c.471-.192.942-.385 1.406-.58v11.102c-.465.196-.935.389-1.406.58H409.518c-2.152 0-3.897-.842-3.897-1.88v-11.103c0 1.039 1.745 1.88 3.897 1.88z"/>
                </g>
                <g fill-rule="nonzero">
                    <path fill="#E0935F" d="M435.47 273.954a5.996 5.996 0 1 1 0-11.992 5.996 5.996 0 1 1 0-11.993v-7.171a5.996 5.996 0 0 1 0-11.993h18.646v44.124M468.8 262.89c-3.36-6.676 9.737-6.802 12.081-13.898a6.485 6.485 0 0 1 8.195-4.129 6.486 6.486 0 0 1 4.127 8.195 14.913 14.913 0 0 0 .85 11.454s6.515 11.27 2.263 20.757c-3.955 8.824-13.454 15.088-23.52 15.777-5.786.395-11.495-1.515-15.95-5.23l-.705-.587"/>
                    <g fill="#C67842">
                        <path d="M479.499 259.295c0 5.65 8.348 18.033 0 26.381-8.348 8.348-21.303-17.364-21.303-17.364"/>
                        <path d="M469.182 300.994a21.97 21.97 0 0 0 3.614.052c10.066-.69 19.565-6.953 23.52-15.777 4.252-9.486-2.263-20.757-2.263-20.757a14.916 14.916 0 0 1-.85-11.454 6.486 6.486 0 0 0-8.29-8.163 6.486 6.486 0 0 1 4.037 8.163 14.913 14.913 0 0 0 .85 11.454s6.516 11.27 2.263 20.757c-3.871 8.638-13.053 14.822-22.881 15.725zM429.475 236.801a5.996 5.996 0 0 0 5.996 5.997v-2.984a5.996 5.996 0 0 1-5.808-4.505 6 6 0 0 0-.188 1.492zM429.475 255.965a5.996 5.996 0 0 0 5.996 5.997v-2.984a5.996 5.996 0 0 1-5.808-4.504 5.995 5.995 0 0 0-.188 1.491zM429.475 267.958a5.996 5.996 0 0 0 5.996 5.996v-2.984a5.996 5.996 0 0 1-5.808-4.504 6 6 0 0 0-.188 1.492z"/>
                    </g>
                    <path fill="#FFF" d="M440.19 222.542h36.073a4.719 4.719 0 0 1 4.719 4.719v63.249a4.719 4.719 0 0 1-4.719 4.718H440.19a4.719 4.719 0 0 1-4.718-4.718v-63.25a4.719 4.719 0 0 1 4.718-4.718z"/>
                    <path fill="#FF1A84" d="M439.468 233.11v44.597a3.52 3.52 0 0 0 3.52 3.519h30.476a3.509 3.509 0 0 0 2.661-1.219 3.499 3.499 0 0 0 .86-2.3V233.11a3.521 3.521 0 0 0-3.521-3.521h-30.475c-.606 0-1.177.154-1.674.425a3.513 3.513 0 0 0-1.847 3.096z"/>
                    <path fill="#CCC" d="M455.387 288.45a2.84 2.84 0 1 0 5.68 0 2.84 2.84 0 0 0-5.68 0z"/>
                    <path fill="#E0935F" d="M471.632 301.124h51.116v-26.953h-33.604l-3.786 16.057z"/>
                    <g>
                        <path fill="#DAECF7" d="M499.492 269.932h11.045v39.013c-.258.224-.518.445-.78.665h-10.265a2.159 2.159 0 0 1-2.159-2.158V272.09c0-1.192.967-2.159 2.159-2.159z"/>
                        <path fill="#B2D9ED" d="M499.492 296.864h10.266c.261-.22.522-.441.779-.666v12.746c-.258.225-.518.446-.78.666h-10.265a2.158 2.158 0 0 1-2.159-2.159v-12.746c0 1.192.967 2.159 2.159 2.159z"/>
                        <path fill="#A2A0A9" d="M512.156 267.584h87.84v41.042c-.257.236-.517.469-.778.7h-87.062c-1.192 0-2.159-1.017-2.159-2.27v-37.2c0-1.255.967-2.272 2.159-2.272z"/>
                        <path fill="#918F97" d="M512.156 298.697h87.062c.26-.192.521-.385.779-.58v11.102c-.258.196-.518.389-.78.58h-87.061c-1.192 0-2.159-.842-2.159-1.88v-11.103c0 1.039.967 1.88 2.159 1.88z"/>
                    </g>
                </g>
                <path fill="#C67842" fill-rule="nonzero" d="M423.47 108.028a5.996 5.996 0 0 0 5.997 5.996v-2.984a5.996 5.996 0 0 1-5.808-4.505 6 6 0 0 0-.188 1.493z"/>
                <path fill="#FFF" fill-rule="nonzero" d="M458.125 241.45c4.857 0 9.638 2.236 9.638 7.586 0 4.934-5.654 6.83-6.868 8.613-.911 1.326-.607 3.19-3.11 3.19-1.632 0-2.43-1.327-2.43-2.541 0-4.518 6.639-5.54 6.639-9.26 0-2.049-1.363-3.263-3.64-3.263-4.857 0-2.96 5.007-6.639 5.007-1.327 0-2.467-.797-2.467-2.313-.001-3.722 4.247-7.02 8.877-7.02zm-.189 21.852a3.126 3.126 0 0 1 3.112 3.112 3.124 3.124 0 0 1-3.112 3.112 3.124 3.124 0 0 1-3.112-3.112 3.126 3.126 0 0 1 3.112-3.112z"/>
                <g fill="#004E75" fill-rule="nonzero">
                    <path d="M330.828 109.416c-2.816 0-5.014 1.511-5.014 4.19 0 8.175.961 19.922.961 28.096 0 2.13 1.856 3.023 4.054 3.023 1.648 0 3.984-.893 3.984-3.023 0-8.174.961-19.92.961-28.095 0-2.68-2.266-4.19-4.946-4.19zM330.898 149.464c-3.023 0-5.29 2.405-5.29 5.29 0 2.817 2.267 5.29 5.29 5.29 2.816 0 5.22-2.473 5.22-5.29 0-2.885-2.404-5.29-5.22-5.29z"/>
                </g>
            </g>
            <g fill-rule="nonzero" mask="url(#b)">
                <g transform="rotate(-180 333.054 242.878)">
                    <use fill="#000" filter="url(#o)" xlink:href="#p"/>
                    <use fill="url(#q)" xlink:href="#p"/>
                </g>
                <path fill="#FFF" d="M837.674 538.622H-.52V448.98h838.193z"/>
            </g>
        </g>
        <g fill-rule="nonzero" transform="rotate(-90 245.458 132.44)">
            <path fill="#D662A7" d="M28.835 127.085H4.465a4.249 4.249 0 0 1-4.29-4.29V4.378a4.249 4.249 0 0 1 4.29-4.29h24.541a4.249 4.249 0 0 1 4.29 4.29v118.244c0 2.574-2.058 4.462-4.461 4.462z"/>
            <path fill="#F1FCFD" d="M5.495 7.811h22.482v59.287H5.495z"/>
            <circle cx="16.65" cy="95.349" r="8.066" fill="#E6E9EE"/>
            <circle cx="16.65" cy="95.349" r="6.178" fill="#324A5E"/>
        </g>
        <g fill-rule="nonzero" transform="rotate(-60 368.201 -4.299)">
            <path fill="#F97375" d="M28.835 127.085H4.465a4.249 4.249 0 0 1-4.29-4.29V4.378a4.249 4.249 0 0 1 4.29-4.29h24.541a4.249 4.249 0 0 1 4.29 4.29v118.244c0 2.574-2.058 4.462-4.461 4.462z"/>
            <path fill="#F1FCFD" d="M5.495 7.811h22.482v59.287H5.495z"/>
            <circle cx="16.65" cy="95.349" r="8.066" fill="#E6E9EE"/>
            <circle cx="16.65" cy="95.349" r="6.178" fill="#324A5E"/>
        </g>
        <g fill-rule="nonzero">
            <path fill="#E0935F" d="M465.06 95.534c-3.028-6.016 8.773 2.4 10.886-3.994 1.01-3.069 5.343-6.943 7.384-3.72 2.04 3.223 2.04 3.72 3.718 7.384s-.859-1.436.767 1.791c0 0 5.87 10.156 2.038 18.703-3.563 7.952-12.122 13.595-21.192 14.216-5.214.356-10.359-1.365-14.373-4.711l-.635-.53"/>
            <path fill="#E0935F" d="M465.906 129.985h16.206v-24.287H479.4l-2.56 16.477z"/>
            <path fill="#FFF" d="M420.642 37.236h48.718c3.52 0 6.373 2.54 6.373 5.674v76.057c0 3.133-2.854 5.674-6.373 5.674h-48.718c-3.519 0-6.372-2.54-6.372-5.674V42.91c0-3.134 2.853-5.674 6.372-5.674z"/>
            <path fill="#8C6FFF" d="M419.669 47.674v67.273c0 2.337 2.128 4.232 4.754 4.232h41.157c1.435 0 2.724-.568 3.594-1.465.722-.74 1.16-1.709 1.16-2.767V47.674c0-2.338-2.13-4.234-4.754-4.234h-41.157a5.17 5.17 0 0 0-2.26.511c-1.487.714-2.494 2.113-2.494 3.723z"/>
            <path fill="#E0935F" d="M477.694 95.308c-6.982-1.871-20.113-8.076-19.191-11.515.52-1.938 1.993-3.878 5.117-4.265 2.42-.299 7.115 1.123 10.162 1.94 6.982 1.87 10.38 5.687 9.458 9.125-.921 3.439 1.436 6.585-5.546 4.715z"/>
            <path fill="#FFF" d="M446.439 65.488c5.024 0 9.97 2.314 9.97 7.848 0 5.104-5.848 7.067-7.104 8.911-.943 1.372-.628 3.3-3.22 3.3-1.687 0-2.511-1.373-2.511-2.629 0-4.674 6.867-5.732 6.867-9.58 0-2.12-1.41-3.375-3.766-3.375-5.024 0-3.062 5.18-6.868 5.18-1.373 0-2.553-.825-2.553-2.394 0-3.85 4.395-7.261 9.185-7.261zm-.196 22.607a3.234 3.234 0 0 1 3.22 3.22c0 1.77-1.453 3.22-3.22 3.22a3.232 3.232 0 0 1-3.22-3.22 3.234 3.234 0 0 1 3.22-3.22z"/>
        </g>
        <g fill="#004E75" fill-rule="nonzero" opacity=".5">
            <path d="M151.792 104.707c4.77-8.26 8.635-14.956 5.503-16.765-3.132-1.808-6.998 4.888-11.767 13.148-4.769 8.26-7.899 15.381-5.503 16.765 2.397 1.383 6.998-4.888 11.767-13.148zM166.41 124.53c8.26-4.77 14.957-8.635 13.149-11.767-1.808-3.132-8.505.734-16.765 5.503s-14.531 9.37-13.148 11.767c1.384 2.396 8.505-.734 16.765-5.503zM126.856 97.55c0-9.538 0-17.27-3.617-17.27-3.616 0-3.616 7.732-3.616 17.27s.85 17.27 3.616 17.27c2.768 0 3.617-7.732 3.617-17.27z"/>
        </g>
    </g>
</svg>
