<svg xmlns="http://www.w3.org/2000/svg" xmlns:xlink="http://www.w3.org/1999/xlink" width="536" height="536" viewBox="0 0 536 536">
    <defs>
        <ellipse id="a" cx="266" cy="268" rx="266" ry="268"/>
        <path id="c" d="M9.317 49.414c0-22.145 17.952-40.097 40.097-40.097s40.098 17.952 40.098 40.097-17.953 40.098-40.098 40.098S9.317 71.559 9.317 49.414"/>
        <filter id="d" width="113.7%" height="113.7%" x="-6.9%" y="-6.9%" filterUnits="objectBoundingBox">
            <feGaussianBlur in="SourceAlpha" result="shadowBlurInner1" stdDeviation="5.5"/>
            <feOffset in="shadowBlurInner1" result="shadowOffsetInner1"/>
            <feComposite in="shadowOffsetInner1" in2="SourceAlpha" k2="-1" k3="1" operator="arithmetic" result="shadowInnerInner1"/>
            <feColorMatrix in="shadowInnerInner1" values="0 0 0 0 0.42897411 0 0 0 0 0.89275085 0 0 0 0 0.853447737 0 0 0 1 0"/>
        </filter>
    </defs>
    <g fill="none" fill-rule="evenodd">
        <mask id="b" fill="#fff">
            <use xlink:href="#a"/>
        </mask>
        <use fill="#4E99BF" fill-rule="nonzero" xlink:href="#a"/>
        <g fill="#FFF" fill-rule="nonzero" mask="url(#b)">
            <g transform="translate(136.382 324.038)">
                <circle cx="62.5" cy="18.5" r="2.953"/>
                <circle cx="94.5" cy="5.5" r="4.5"/>
                <circle cx="107.93" cy="3.058" r="2.522"/>
                <circle cx="79.5" cy="15.5" r="4.5"/>
                <circle cx="70.5" cy="30.5" r="4.5"/>
                <circle cx="51.193" cy="33.583" r="5.743"/>
                <circle cx="9.193" cy="57.466" r="8.81"/>
            </g>
            <g transform="matrix(-1 0 0 1 405.382 335.038)">
                <circle cx="62.5" cy="7.5" r="4.5"/>
                <circle cx="29.123" cy="14.06" r="4.5"/>
                <circle cx="79.5" cy="4.5" r="4.5"/>
                <circle cx="70.5" cy="19.5" r="4.5"/>
                <circle cx="49.391" cy="20.781" r="7.545"/>
                <circle cx="9.193" cy="46.466" r="8.81"/>
            </g>
            <path d="M253.37 345.228a22.625 22.625 0 0 0-34.217 25.613c-6.026 7.499-5.137 18.4 2.024 24.822 7.161 6.423 18.094 6.126 24.896-.676l27.78-27.781c5.866-5.901 5.878-15.428.027-21.344-5.583-5.625-14.59-5.904-20.51-.634z"/>
            <path d="M235.735 389.995a29.19 29.19 0 0 0-54.584-7.85c-12.338 1.345-21.472 12.1-20.799 24.493.674 12.393 10.92 22.096 23.33 22.095h50.689c10.735-.032 19.437-8.712 19.496-19.447.038-10.226-7.924-18.697-18.132-19.29z"/>
            <path d="M114.375 428.733h339.918v113.242H114.375z"/>
            <path d="M223.362 365.065h85.454v74h-85.454zM178.265 432.295c-3.716-19.147-19.147-33.842-38.452-36.618-19.306-2.777-38.252 6.975-47.213 24.299-19.363 2.109-33.697 18.99-32.64 38.439 1.057 19.448 17.136 34.676 36.613 34.675h79.551c16.848-.05 30.505-13.673 30.598-30.52.06-16.048-12.437-29.343-28.457-30.275z"/>
            <path d="M286.583 345.228a22.625 22.625 0 0 1 34.218 25.613c6.025 7.499 5.136 18.4-2.025 24.822-7.16 6.423-18.094 6.126-24.895-.676l-27.78-27.781c-5.867-5.901-5.879-15.428-.028-21.344 5.583-5.625 14.59-5.904 20.51-.634z"/>
            <path d="M279.609 149.802l7 200.236h-31.311l7-200.38H229.84L270.9 98.6l41.024 51.06zM304.22 389.995a29.19 29.19 0 0 1 54.583-7.85c12.338 1.345 21.472 12.1 20.798 24.493-.673 12.393-10.919 22.096-23.33 22.095h-50.688c-10.735-.032-19.437-8.712-19.496-19.447-.038-10.226 7.924-18.697 18.132-19.29z"/>
            <path d="M361.69 432.295c3.715-19.147 19.146-33.842 38.451-36.618 19.306-2.777 38.252 6.975 47.212 24.299 19.363 2.109 33.698 18.99 32.64 38.439-1.056 19.448-17.135 34.676-36.613 34.675h-79.55c-16.848-.05-30.505-13.673-30.598-30.52-.06-16.048 12.437-29.343 28.457-30.275z"/>
        </g>
        <g fill-rule="nonzero" mask="url(#b)">
            <path fill="#FFBA89" d="M453.727 296.386s-23.62 58.019-19.416 39.384c2.78-12.341-15.196-28.738-27.627-38.372-6.327-4.937-11.214-8.071-11.214-8.071s44.345-51.7 41.202-29.396a33.592 33.592 0 0 0 2.42 18c4.894 11.634 14.635 18.455 14.635 18.455zM302.847 378.807c-1.25-.32-3.291-.115-5.406.337a81.22 81.22 0 0 0-10.539 3.2s-17.384 2.099-14.76-16.133c1.95-13.592 17.41-8.655 25.151-5.282 2.633 1.16 4.377 2.13 4.377 2.13l1.177 15.748z"/>
            <path fill="#000" d="M302.847 378.807c-1.25-.32-3.291-.115-5.406.337-1.892-4.772-.452-16.084-.148-18.215 2.633 1.16 4.377 2.13 4.377 2.13l1.177 15.748z" opacity=".1"/>
            <path fill="#CBCDDA" d="M302.92 361.398l-4.549-.823s-2.328 15.632.716 19.746h5.233l-1.4-18.923z"/>
            <path fill="#333B7F" d="M394.17 389.922s-13.904-8.318-15.566 2.18c-1.662 10.498-3.85 28.434-3.85 28.434l-3.85 22.83-4.987 45.745.7 7.783s14.809-4.986 18.28-3.234c3.473 1.753 6.303-19.243 6.303-19.243l5.759-21.696.872-46.007-3.661-16.792z"/>
            <path fill="#000" d="M394.17 389.922s-13.904-8.318-15.566 2.18c-1.662 10.498-3.85 28.434-3.85 28.434l-3.85 22.83-4.987 45.745.7 7.783s14.809-4.986 18.28-3.234c3.473 1.753 6.303-19.243 6.303-19.243l5.759-21.696.872-46.007-3.661-16.792z" opacity=".1"/>
            <path fill="#4F5AC1" d="M386.675 336.033s-14.43 16.274-36.34 19.548c-21.91 3.275-48.944 4.336-48.944 4.336s-6.82 12.201 3.019 25.192l55.123-1.218s12.201-2.649 21.654 0l5.488-47.858z"/>
            <path fill="#000" d="M386.675 336.033s-14.43 16.274-36.34 19.548c-21.91 3.275-48.944 4.336-48.944 4.336s-6.82 12.201 3.019 25.192l55.123-1.218s12.201-2.649 21.654 0l5.488-47.858z" opacity=".05"/>
            <path fill="#000" d="M436.755 277.43c-5.381 11.518-14.736 20.009-28.302 20.009-.601 0-1.185 0-1.77-.041-6.326-4.937-11.213-8.071-11.213-8.071s44.345-51.7 41.202-29.396c-.97 6.828-2.081 12.373.083 17.5z" opacity=".1"/>
            <path fill="#FFBA89" d="M442.25 262.58c-.013 18.668-15.156 33.792-33.825 33.781-18.668-.01-33.794-15.151-33.787-33.82.008-18.668 15.146-33.796 33.815-33.792a33.732 33.732 0 0 1 33.797 33.83z"/>
            <path fill="#F0F2F7" d="M462.91 469.168s-75.396 6.655-78.16-2.97c-2.765-9.626 7.692-35.69 7.692-35.69l-3.406-36.39-.123-1.39s9.445-39.368 9.1-42.51c-.33-2.831 15.203-35.864 18.395-42.618.379-.782.576-1.21.576-1.21l.6.346.264.156 3.694 2.156 14.587-3.456 17.582-9.206 1.645 100.71 7.553 72.072z"/>
            <path fill="#333B7F" d="M422.678 306.555s-5.167-1.399-7.175 3.76a53.05 53.05 0 0 1-2.805 6.475l-2.008 11.987-3.677 18.923-2.707 83.712 1.226 14.875 6.738-12.02 1.226-78.2v-9.758a70.829 70.829 0 0 1 5.61-24.435l.947-2.197 5.858-7.52-3.233-5.602z"/>
            <path fill="#000" d="M444.719 284.95s-17.845 18.923-24.148 21.169c0 0 3.151 14.348 6.303 17.145 0 0 18.725-19.095 22.04-20.642l2.781-6.804-6.976-10.868z" opacity=".1"/>
            <path fill="#F0F2F7" d="M444.719 283.872s-17.845 18.923-24.148 21.169c0 0 3.151 14.348 6.303 17.146 0 0 18.725-19.096 22.04-20.643l2.781-6.795-6.976-10.877z"/>
            <path fill="#000" d="M418.03 306.39l-.182.494-5.718 15.327-10.226 28.92s-.09.295-.272.822c-1.695 5.266-10.802 33.839-12.596 42.14l-.123-1.39s9.445-39.368 9.1-42.51c-.33-2.83 15.203-35.863 18.395-42.618.51-.346.905-.642 1.177-.864l.444-.32z" opacity=".1"/>
            <path fill="#4F5AC1" d="M416.984 306.382l-5.907 15.83-10.226 28.918s-.091.296-.272.823c-1.794 5.611-12.02 37.64-12.843 43.498-.93 6.434-13.789 41.21-13.789 41.21l-7.347 60.216c-6.582-5.11 2.765-54.3 2.765-54.3s10.498-72.952 12.982-97.222c2.485-24.27 15.887-31.363 15.887-31.363 6.187-.312 11.765-3.044 15.196-5.142a32.087 32.087 0 0 0 3.554-2.468z"/>
            <path fill="#000" d="M491.071 693.798c-1.571 11.724-3.67 44.427-3.67 44.427-7.346 11.017-23.62 5.068-23.62 5.068s-1.744-3.29-4.368-15.747c-2.625-12.456-4.196-56.332-4.196-56.332l-6.13-36.859c-5.594-14.175-6.82-30.967-6.82-30.967-2.468-6.475-8.4-48.986-8.4-48.986s2.468 38.134.88 58.258c-1.588 20.124 8.038 47.2 8.038 47.2s5.43 25.373 2.625 33.247c-2.806 7.873 7.001 40.404 7.001 40.404-.823 9.453-28.68 5.603-28.68 5.603s-13.106-35.172-15.402-56.34a279.729 279.729 0 0 0-6.738-37.846l-2.27-29.397-4.032-17.376-4.805-22.913c-5.43-16.792-7.084-44.872-7.084-44.872l-4.204-27.553c-2.748-13.624.823-29.618 3.192-37.985 1.029-3.629 1.852-5.842 1.852-5.842 2.41 1.712 16.216 3.72 23.357 5.348a40.94 40.94 0 0 0 11.93.954 265.824 265.824 0 0 0 53.304-9.774c1.177-.353 1.802-.559 1.802-.559l.37 3.151.872 7.503 1.555 13.32s4.723 71.027 1.926 80.628c-2.798 9.601 1.925 41.96 1.925 41.96-2.625 7.675 5.594 38.873 5.594 38.873s5.776 41.68 4.196 53.404z" opacity=".1"/>
            <path fill="#182B51" d="M491.071 692.77c-1.571 11.723-3.67 44.427-3.67 44.427-7.346 11.024-23.62 5.068-23.62 5.068s-1.744-3.291-4.368-15.739c-2.625-12.448-4.196-56.34-4.196-56.34l-6.13-36.908c-5.553-14.176-6.82-31.01-6.82-31.01-2.468-6.474-8.4-48.984-8.4-48.984s2.468 38.133.88 58.257c-1.588 20.124 8.038 47.233 8.038 47.233s5.43 25.373 2.625 33.247c-2.806 7.873 7.001 40.412 7.001 40.412-.823 9.445-28.68 5.595-28.68 5.595s-13.106-35.13-15.402-56.308a279.729 279.729 0 0 0-6.738-37.846l-2.27-29.388-4.032-17.318-4.805-22.913c-5.43-16.8-7.084-44.88-7.084-44.88l-4.204-27.553c-2.748-13.625.823-29.619 3.192-37.986 1.029-3.62 1.852-5.833 1.852-5.833 2.41 1.711 16.216 3.71 23.357 5.34a40.66 40.66 0 0 0 11.93.954 265.824 265.824 0 0 0 53.304-9.774l1.802-.551.37 3.143.872 7.511 1.555 13.32s4.723 71.018 1.926 80.628c-2.798 9.61 1.925 41.959 1.925 41.959-2.625 7.668 5.594 38.866 5.594 38.866s5.776 41.63 4.196 53.37z"/>
            <path fill="#000" d="M442.25 262.58a33.732 33.732 0 0 1-4.475 16.85c-5.266.929-10.869-.1-14.81-3.58-2.698-2.377-4.442-5.627-6.762-8.383a50.77 50.77 0 0 0-4.83-4.764 15.327 15.327 0 0 0-3.809-2.772 5.175 5.175 0 0 0-4.566-.05c-1.86 1.037-2.468 3.349-3.546 5.192a6.936 6.936 0 0 1-3.875 3.381 4.114 4.114 0 0 1-4.632-1.571c-1.144-1.967-.305-5.035-2.222-6.237a12.234 12.234 0 0 0-1.563-.641c-2.468-1.12-2.756-4.435-2.97-7.15-.107-1.333-.395-2.838-1.514-3.554-1.118-.716-2.591-.354-3.924-.33a5.093 5.093 0 0 1-1.177-.09c6.476-14.596 22.282-22.671 37.904-19.364 15.622 3.307 26.8 17.094 26.804 33.063h-.033z" opacity=".1"/>
            <path fill="#444053" d="M375.502 218.613a11.288 11.288 0 0 0-4.55 8.178 4.212 4.212 0 0 0 .124 1.604c.23.554.505 1.088.823 1.596 1.727 3.431-.914 7.495-.576 11.321a7.528 7.528 0 0 0 7.404 6.582c1.333 0 2.798-.395 3.925.33 1.127.723 1.407 2.22 1.514 3.553.213 2.715.485 6.03 2.961 7.15a13.83 13.83 0 0 1 1.564.642c1.925 1.2 1.086 4.278 2.23 6.236a4.114 4.114 0 0 0 4.631 1.571 6.91 6.91 0 0 0 3.867-3.373c1.061-1.851 1.695-4.114 3.554-5.191a5.15 5.15 0 0 1 4.566.04 15.36 15.36 0 0 1 3.81 2.782 49.808 49.808 0 0 1 4.829 4.763c2.32 2.748 4.064 5.998 6.763 8.376 5.084 4.467 12.867 4.936 19.137 2.36a5.808 5.808 0 0 0 2.377-1.513 6.039 6.039 0 0 0 1.078-2.69c.637-3.097.82-6.27.543-9.42-.222-2.469-.724-4.937-.551-7.405.173-2.65 1.119-5.208 1.25-7.857.23-4.69-2.098-9.14-4.936-12.851-1.711-2.213-3.636-4.262-5.117-6.631-1.292-2.057-2.23-4.32-3.612-6.31-3.242-4.65-8.705-7.405-14.283-8.368-5.578-.963-11.312-.37-16.899.56-4.87.822-9.774 1.99-14.71 2.278-4.32.305-7.8-1.151-11.716 1.687z"/>
            <path fill="#000" d="M416.984 306.382l-5.907 15.83-10.226 28.918s-.091.296-.272.823v.041l12.868-43.16a32.086 32.086 0 0 0 3.537-2.452z" opacity=".1"/>
            <path fill="#FFB9B9" d="M480.845 487.54s.609 19.152-4.55 23.965l-13.731-25.891 11.518-5.603 6.763 7.528z"/>
            <path fill="#000" d="M512.898 494.532c-6.302 7.347-33.732 8.664-33.732 8.664l-27.15-42.782s-6.425-4.46-18.495-24.542c-12.07-20.083-11.674-35.55-11-47.102.675-11.55 8.228-44.748 8.228-44.748 1.176-7.47 18.1-54.3 18.1-54.3 1.777 3.546 5.084 6.507 8.951 8.951 10.449 6.582 25.036 9.28 25.036 9.28 23.497 3.415 19.161 27.685 19.161 27.685s.263 94.343-1.185 105.63c-1.448 11.289 12.086 53.264 12.086 53.264z" opacity=".1"/>
            <path fill="#CBCDDA" d="M481.198 491.208l-.79 7.002-9.535-3.497-6.993-10.588 5.249-4.114z"/>
            <path fill="#000" d="M480.861 464.091l-4.986.51-48.072 4.805a77.872 77.872 0 0 1-23.119-1.135l-22.296-4.46c1.029-3.62 1.852-5.833 1.852-5.833 2.41 1.712 16.216 3.71 23.357 5.34a40.66 40.66 0 0 0 11.93.954 265.824 265.824 0 0 0 53.304-9.774l2.172 2.592 5.858 7.001z" opacity=".1"/>
            <g fill="#000" opacity=".1">
                <path d="M384.895 458.32a5.67 5.67 0 0 1-.6-.342s0 .065-.064.16l.664.183zM486.916 639.39s-8.227-31.197-5.594-38.865c0 0-4.723-32.334-1.917-41.96 2.805-9.625-1.934-80.627-1.934-80.627l-1.554-13.32-.873-7.512-.362-3.143-1.81.552-1.118.329.14 1.217.871 7.504 1.555 13.32s4.723 71.026 1.934 80.627c-2.79 9.602 1.917 41.96 1.917 41.96-2.625 7.676 5.594 38.865 5.594 38.865s5.76 41.647 4.205 53.363c-1.555 11.715-3.678 44.427-3.678 44.427-5.364 8.055-15.492 7.051-20.568 5.924l.09.197s16.274 5.957 23.62-5.068c0 0 2.099-32.72 3.678-44.427 1.58-11.708-4.196-53.362-4.196-53.362z"/>
            </g>
            <path fill="#4F5AC1" d="M513.943 494.532c-6.294 7.347-33.732 8.664-33.732 8.664l-27.15-42.782s-6.425-4.46-18.503-24.542c-12.078-20.083-11.666-35.55-11-47.102.666-11.55 8.227-44.748 8.227-44.748 1.177-7.47 18.1-54.3 18.1-54.3 1.77 3.546 5.077 6.507 8.952 8.951 10.448 6.582 25.035 9.28 25.035 9.28 23.49 3.415 19.154 27.685 19.154 27.685s.263 94.343-1.185 105.63c-1.448 11.289 12.102 53.264 12.102 53.264z"/>
            <path fill="#000" d="M454.912 312.94l-5.907 2.196 3.933 2.756-29.372 70.854c.683-11.519 8.227-44.749 8.227-44.749 1.177-7.47 18.1-54.3 18.1-54.3 1.77 3.546 5.077 6.508 8.952 8.951l-3.933 14.291zM461.996 439.163l30.046-7.742 3.94 12.2-30.703 7.488z" opacity=".1"/>
            <path fill="#000" d="M479.183 317.925s-13.65 12.843-8.499 41.466c5.15 28.622 13.386 59.697 13.386 59.697l-22.214 61.54s15.484 16.142 23.094 18.1l22.173-49.207s10.366-17.056 7.61-43.819c-2.756-26.763-12.728-70.072-12.728-70.072s.009-26.36-22.822-17.705z" opacity=".1"/>
            <path fill="#4F5AC1" d="M480.228 317.925s-13.658 12.843-8.524 41.466c5.134 28.622 13.378 59.697 13.378 59.697l-22.214 61.54s15.484 16.142 23.094 18.1l22.214-49.207s10.366-17.056 7.61-43.819c-2.756-26.763-12.728-70.072-12.728-70.072s0-26.36-22.83-17.705z"/>
            <path fill="#000" d="M463.608 481.936s17.319 23.975 16.01 30.36c-1.307 6.383-6.384 2.97-6.384 2.97l-6.82-9.355-6.13-17.5s.601-7.552 3.324-6.475z" opacity=".1"/>
            <path fill="#000" d="M461.51 481.936s17.278 23.975 16.01 30.36c-1.266 6.383-6.384 2.97-6.384 2.97l-6.828-9.355-6.121-17.5s.6-7.552 3.324-6.475z" opacity=".1"/>
            <path fill="#474463" d="M462.564 481.936s17.277 23.975 16.002 30.36c-1.276 6.383-6.385 2.97-6.385 2.97l-6.82-9.355-6.121-17.5s.592-7.552 3.324-6.475z"/>
        </g>
        <g mask="url(#b)">
            <path fill="#FFF" fill-rule="nonzero" d="M348.648 271.635l-14.99-14.99h-24.91a4 4 0 0 0-4 4v48.75a4 4 0 0 0 4 4h35.9a4 4 0 0 0 4-4v-37.76z"/>
            <path fill="#4FD0FC" fill-rule="nonzero" d="M308.747 256.645h24.91l9.638 9.636v-10.99a4 4 0 0 0-4-4h-35.901a4 4 0 0 0-4 4v48.75a4 4 0 0 0 4 4h1.353v-47.396a4 4 0 0 1 4-4z"/>
            <path fill="#4FD0FC" fill-rule="nonzero" d="M333.658 256.645v10.99a4 4 0 0 0 4 4h10.99l-14.99-14.99zM316.946 290.334a.784.784 0 0 1-.218-.508c0-.145.072-.363.218-.508l1.016-1.016a.702.702 0 0 1 1.016 0l.073.072 3.993 4.284a.35.35 0 0 0 .508 0l9.728-10.092h.073a.702.702 0 0 1 1.016 0l1.017 1.017c.29.29.29.726 0 1.016l-11.616 12.052a.66.66 0 0 1-.508.217.66.66 0 0 1-.509-.217l-5.662-6.099-.145-.218z"/>
        </g>
        <g fill-rule="nonzero" mask="url(#b)">
            <path fill="#4650AA" d="M308.827 421.174c-3.539-18.236-18.235-32.232-36.622-34.876-18.387-2.644-36.432 6.644-44.966 23.143-18.441 2.009-32.094 18.086-31.087 36.61 1.006 18.523 16.32 33.027 34.871 33.025h75.765c16.046-.048 29.054-13.022 29.142-29.068.057-15.284-11.845-27.946-27.103-28.834zm-35.62 16.25v17.09H258.83v-17.136h-15.377l22.55-22.55 22.538 22.55-15.332.045z"/>
            <path fill="#FFF" d="M273.208 437.423v41.646h-14.379v-41.691h-15.377l22.55-22.55 22.538 22.55z"/>
        </g>
        <g fill-rule="nonzero" mask="url(#b)" opacity=".8">
            <path fill="#FFAF07" d="M208.525 253.885h-6.257a4.156 4.156 0 0 0-4.156 4.157v4.628h28.633v-4.628a4.156 4.156 0 0 0-4.156-4.157h-14.064z"/>
            <path fill="#FFE4A7" d="M244.204 211.49c-2.151-3.37-5.921-5.225-10.614-5.225h-42.323c-4.694 0-8.463 1.854-10.613 5.225-2.324 3.641-2.383 8.471-.163 13.254 4.08 8.787 16.952 11.717 17.499 11.838l1.252.276h26.371l1.254-.276c.546-.12 13.419-3.05 17.498-11.838 2.22-4.783 2.16-9.613-.161-13.254zm-3.694 11.463c-1.635 3.521-5.456 5.901-8.375 7.277a33.884 33.884 0 0 1-3.32 1.35l-32.772.002h-.001a34.012 34.012 0 0 1-3.321-1.352c-2.917-1.376-6.74-3.756-8.375-7.277-1.597-3.438-1.636-6.784-.109-9.177 1.342-2.104 3.84-3.261 7.03-3.261H233.59c3.191 0 5.688 1.157 7.03 3.261 1.526 2.394 1.487 5.739-.11 9.177z"/>
            <path fill="#FFAF07" d="M215.404 253.885l-.006-4.125c-.005-2.968 1.534-5.745 4.092-7.248 8.146-4.787 13.978-17.622 13.978-32.706V202h-42.08v7.806c0 15.084 5.832 27.919 13.979 32.706 2.558 1.503 4.097 4.28 4.092 7.247l-.006 4.126 3.4 3.52 2.55-3.52z"/>
            <g fill="#FFE4A7">
                <path d="M211.007 249.76l-.003 4.125h-1.551l.006-4.125c.004-2.967-1.535-5.744-4.092-7.247-8.147-4.788-13.978-17.623-13.978-32.706V202h10.972v7.807c0 15.083 2.79 27.918 6.688 32.706 1.224 1.503 1.961 4.28 1.958 7.247z"/>
                <path d="M211.336 253.885h-9.068a4.156 4.156 0 0 0-4.156 4.157v4.628h9.067v-4.628a4.156 4.156 0 0 1 4.157-4.157z"/>
            </g>
        </g>
        <g fill-rule="nonzero" opacity=".8" transform="translate(83.782 284.316)">
            <path fill="#998BD3" d="M79.983 40.033v2.169a41.558 41.558 0 0 1-3.837 15.179c-6.505 13.344-20.183 22.685-36.03 22.685C17.932 80.066.083 62.051.083 40.033.083 17.848 17.932 0 40.116 0c22.019 0 39.867 17.848 39.867 40.033z"/>
            <circle cx="39.95" cy="40.033" r="31.693" fill="#FFF"/>
            <circle cx="39.95" cy="40.033" r="23.52" fill="#998BD3"/>
            <circle cx="39.95" cy="40.033" r="15.179" fill="#FFF"/>
            <circle cx="39.95" cy="40.033" r="6.839" fill="#998BD3"/>
            <path fill="#553DB6" d="M63.97 15.846c-1.001-1-2.836-1-3.837 0L38.282 37.698c-1.001 1-1.001 2.835 0 3.836 1 1.001 2.835 1.001 3.836 0L63.97 19.683c1-1 1-2.836 0-3.837z"/>
            <path fill="#553DB6" d="M70.141 9.675L60.3 19.349l-2.169-8.84L67.973.667zM69.307 21.518l9.675-9.675-8.84-2.168-9.842 9.674z"/>
        </g>
        <g fill="#84FAF0">
            <path d="M435.41 72.113l48.634-47.632 13.72 14.025 20.84-23.229 5.722 5.672-26.52 27.507-14.018-15.388-47.157 43.004-1.41 1.287z"/>
            <path d="M529.205 29.292l6.005-26.18-25.677 7.884 19.672 18.296"/>
        </g>
        <g transform="translate(381.793 21.84)">
            <circle cx="49.404" cy="49.404" r="49.13" fill="#FFF" fill-rule="nonzero"/>
            <path fill="#84FAF0" d="M.274 49.414c0-27.14 22-49.14 49.14-49.14s49.14 22 49.14 49.14-22 49.14-49.14 49.14-49.14-22-49.14-49.14"/>
            <use fill="#84FAF0" xlink:href="#c"/>
            <use fill="#000" filter="url(#d)" xlink:href="#c"/>
            <path fill="#004E75" d="M52.857 22.496v5.313c2.132.344 3.876 1.049 5.232 2.115 1.355 1.066 2.647 2.702 3.876 4.906l-5.286 2.955c-1.59-2.891-3.669-4.337-6.235-4.337-1.59 0-2.91.47-3.957 1.41-1.049.94-1.573 2.114-1.573 3.523 0 1.284.425 2.35 1.274 3.2.831.83 2.512 1.815 5.042 2.954 2.187.994 3.994 1.93 5.422 2.806 1.427.876 2.503 1.72 3.226 2.534 2.042 2.205 3.063 4.87 3.063 7.997 0 3.072-.922 5.783-2.765 8.132-1.826 2.331-4.265 3.903-7.32 4.717v5.61h-4.743v-5.448c-3.542-.578-6.244-1.798-8.105-3.66-1.862-1.86-3.235-4.734-4.12-8.62l5.963-1.247c.813 2.748 1.807 4.709 2.982 5.883 1.229 1.12 2.864 1.68 4.906 1.68 1.988 0 3.65-.64 4.988-1.924 1.32-1.265 1.98-2.9 1.98-4.907 0-1.788-.552-3.225-1.654-4.31-.56-.523-1.388-1.115-2.481-1.775-1.093-.66-2.49-1.378-4.188-2.155-3.506-1.572-5.81-3.018-6.912-4.337-1.753-1.97-2.63-4.328-2.63-7.075 0-1.302.208-2.512.624-3.633a9.936 9.936 0 0 1 1.802-3.05c.786-.912 1.758-1.702 2.915-2.371 1.156-.669 2.466-1.193 3.93-1.573v-5.313h4.744"/>
        </g>
    </g>
</svg>
